<svg width="556" height="481" viewBox="0 0 556 481" fill="none" xmlns="http://www.w3.org/2000/svg">
<g filter="url(#filter0_d_2004_3228)">
<rect x="78" y="158" width="400" height="282.067" fill="url(#paint0_linear_2004_3228)"/>
</g>
<rect x="108.395" y="289.307" width="41.3374" height="120.365" fill="#ECF2FF"/>
<rect x="167.97" y="348.881" width="41.3374" height="60.7903" fill="#ECF2FF"/>
<rect x="227.544" y="328.213" width="41.3374" height="81.459" fill="#ECF2FF"/>
<rect x="287.119" y="305.113" width="41.3374" height="104.559" fill="#527AFC"/>
<rect x="346.693" y="345.234" width="41.3374" height="64.4377" fill="#ECF2FF"/>
<rect x="406.268" y="318.486" width="41.3374" height="91.1854" fill="#ECF2FF"/>
<path d="M285.431 274.649C285.431 275.272 285.275 275.868 284.964 276.439C284.652 276.997 284.192 277.463 283.583 277.84C282.986 278.216 282.266 278.43 281.423 278.481V280.057H280.373V278.481C279.193 278.378 278.233 278.002 277.494 277.353C276.755 276.692 276.378 275.855 276.366 274.844H278.252C278.304 275.388 278.505 275.862 278.855 276.264C279.219 276.666 279.724 276.919 280.373 277.023V272.159C279.504 271.939 278.804 271.712 278.272 271.478C277.74 271.245 277.286 270.882 276.91 270.389C276.534 269.896 276.346 269.235 276.346 268.405C276.346 267.354 276.709 266.486 277.435 265.798C278.175 265.111 279.154 264.728 280.373 264.65V263.036H281.423V264.65C282.526 264.741 283.414 265.098 284.088 265.72C284.763 266.33 285.152 267.127 285.255 268.113H283.369C283.304 267.659 283.103 267.251 282.766 266.888C282.428 266.511 281.981 266.265 281.423 266.148V270.895C282.279 271.115 282.973 271.342 283.505 271.576C284.049 271.796 284.503 272.153 284.866 272.646C285.243 273.138 285.431 273.806 285.431 274.649ZM278.155 268.308C278.155 268.943 278.343 269.429 278.719 269.767C279.095 270.104 279.647 270.383 280.373 270.603V266.109C279.698 266.174 279.16 266.395 278.758 266.771C278.356 267.134 278.155 267.646 278.155 268.308ZM281.423 277.042C282.124 276.964 282.668 276.711 283.057 276.283C283.459 275.855 283.66 275.343 283.66 274.747C283.66 274.111 283.466 273.625 283.077 273.288C282.688 272.937 282.137 272.659 281.423 272.451V277.042Z" fill="#18202B"/>
<path d="M288.272 276.945C289.919 275.622 291.209 274.539 292.143 273.696C293.077 272.84 293.862 271.952 294.497 271.031C295.145 270.097 295.47 269.183 295.47 268.288C295.47 267.445 295.262 266.784 294.847 266.304C294.445 265.811 293.79 265.565 292.882 265.565C292.001 265.565 291.313 265.844 290.82 266.401C290.341 266.946 290.081 267.679 290.042 268.599H288.33C288.382 267.147 288.823 266.025 289.653 265.234C290.483 264.443 291.553 264.047 292.863 264.047C294.199 264.047 295.256 264.417 296.034 265.156C296.825 265.895 297.22 266.913 297.22 268.21C297.22 269.287 296.896 270.337 296.248 271.362C295.612 272.373 294.886 273.268 294.069 274.046C293.252 274.811 292.208 275.706 290.937 276.731H297.629V278.209H288.272V276.945Z" fill="#18202B"/>
<path d="M301.951 274.591C302.081 275.33 302.379 275.901 302.846 276.303C303.326 276.705 303.968 276.906 304.772 276.906C305.848 276.906 306.639 276.484 307.145 275.641C307.664 274.798 307.91 273.378 307.884 271.381C307.612 271.965 307.158 272.425 306.523 272.762C305.887 273.087 305.18 273.249 304.402 273.249C303.533 273.249 302.755 273.074 302.068 272.723C301.394 272.36 300.862 271.835 300.473 271.148C300.084 270.46 299.889 269.63 299.889 268.658C299.889 267.27 300.291 266.155 301.095 265.312C301.899 264.456 303.041 264.028 304.519 264.028C306.335 264.028 307.606 264.618 308.332 265.798C309.071 266.978 309.441 268.736 309.441 271.07C309.441 272.704 309.291 274.053 308.993 275.116C308.708 276.18 308.215 276.99 307.515 277.548C306.827 278.105 305.881 278.384 304.675 278.384C303.352 278.384 302.321 278.028 301.582 277.314C300.842 276.601 300.421 275.693 300.317 274.591H301.951ZM304.694 271.751C305.563 271.751 306.276 271.485 306.834 270.953C307.392 270.409 307.67 269.676 307.67 268.755C307.67 267.782 307.398 266.998 306.853 266.401C306.309 265.805 305.544 265.506 304.558 265.506C303.65 265.506 302.924 265.792 302.379 266.362C301.847 266.933 301.582 267.685 301.582 268.619C301.582 269.566 301.847 270.324 302.379 270.895C302.911 271.465 303.683 271.751 304.694 271.751Z" fill="#18202B"/>
<path d="M314.204 274.591C314.334 275.33 314.632 275.901 315.099 276.303C315.579 276.705 316.221 276.906 317.025 276.906C318.101 276.906 318.892 276.484 319.398 275.641C319.917 274.798 320.163 273.378 320.137 271.381C319.865 271.965 319.411 272.425 318.776 272.762C318.14 273.087 317.433 273.249 316.655 273.249C315.786 273.249 315.008 273.074 314.321 272.723C313.647 272.36 313.115 271.835 312.726 271.148C312.337 270.46 312.142 269.63 312.142 268.658C312.142 267.27 312.544 266.155 313.348 265.312C314.152 264.456 315.294 264.028 316.772 264.028C318.588 264.028 319.859 264.618 320.585 265.798C321.324 266.978 321.694 268.736 321.694 271.07C321.694 272.704 321.544 274.053 321.246 275.116C320.961 276.18 320.468 276.99 319.768 277.548C319.08 278.105 318.134 278.384 316.928 278.384C315.605 278.384 314.574 278.028 313.835 277.314C313.095 276.601 312.674 275.693 312.57 274.591H314.204ZM316.947 271.751C317.816 271.751 318.529 271.485 319.087 270.953C319.645 270.409 319.923 269.676 319.923 268.755C319.923 267.782 319.651 266.998 319.106 266.401C318.562 265.805 317.797 265.506 316.811 265.506C315.903 265.506 315.177 265.792 314.632 266.362C314.101 266.933 313.835 267.685 313.835 268.619C313.835 269.566 314.101 270.324 314.632 270.895C315.164 271.465 315.936 271.751 316.947 271.751Z" fill="#18202B"/>
<path d="M323.714 265.915V264.3H327.372V278.365H325.582V265.915H323.714Z" fill="#18202B"/>
<path d="M330.198 276.945C331.845 275.622 333.136 274.539 334.069 273.696C335.003 272.84 335.788 271.952 336.423 271.031C337.072 270.097 337.396 269.183 337.396 268.288C337.396 267.445 337.188 266.784 336.773 266.304C336.371 265.811 335.716 265.565 334.809 265.565C333.927 265.565 333.239 265.844 332.747 266.401C332.267 266.946 332.007 267.679 331.969 268.599H330.257C330.309 267.147 330.75 266.025 331.58 265.234C332.409 264.443 333.479 264.047 334.789 264.047C336.125 264.047 337.182 264.417 337.96 265.156C338.751 265.895 339.147 266.913 339.147 268.21C339.147 269.287 338.822 270.337 338.174 271.362C337.539 272.373 336.812 273.268 335.995 274.046C335.178 274.811 334.134 275.706 332.863 276.731H339.555V278.209H330.198V276.945Z" fill="#18202B"/>
<g filter="url(#filter1_d_2004_3228)">
<rect width="160" height="133" transform="translate(8 76)" fill="url(#paint1_linear_2004_3228)"/>
<path d="M41.6881 111.112C41.6881 112.04 41.3681 112.813 40.7281 113.432C40.0987 114.04 39.1334 114.344 37.8321 114.344H35.6881V119H34.2321V107.848H37.8321C39.0907 107.848 40.0454 108.152 40.6961 108.76C41.3574 109.368 41.6881 110.152 41.6881 111.112ZM37.8321 113.144C38.6427 113.144 39.2401 112.968 39.6241 112.616C40.0081 112.264 40.2001 111.763 40.2001 111.112C40.2001 109.736 39.4107 109.048 37.8321 109.048H35.6881V113.144H37.8321Z" fill="#18202B"/>
<path d="M42.9537 114.584C42.9537 113.688 43.135 112.904 43.4977 112.232C43.8603 111.549 44.3563 111.021 44.9857 110.648C45.6257 110.275 46.335 110.088 47.1137 110.088C47.8817 110.088 48.5483 110.253 49.1137 110.584C49.679 110.915 50.1003 111.331 50.3777 111.832V110.232H51.8497V119H50.3777V117.368C50.0897 117.88 49.6577 118.307 49.0817 118.648C48.5163 118.979 47.855 119.144 47.0977 119.144C46.319 119.144 45.615 118.952 44.9857 118.568C44.3563 118.184 43.8603 117.645 43.4977 116.952C43.135 116.259 42.9537 115.469 42.9537 114.584ZM50.3777 114.6C50.3777 113.939 50.2443 113.363 49.9777 112.872C49.711 112.381 49.3483 112.008 48.8897 111.752C48.4417 111.485 47.9457 111.352 47.4017 111.352C46.8577 111.352 46.3617 111.48 45.9137 111.736C45.4657 111.992 45.1083 112.365 44.8417 112.856C44.575 113.347 44.4417 113.923 44.4417 114.584C44.4417 115.256 44.575 115.843 44.8417 116.344C45.1083 116.835 45.4657 117.213 45.9137 117.48C46.3617 117.736 46.8577 117.864 47.4017 117.864C47.9457 117.864 48.4417 117.736 48.8897 117.48C49.3483 117.213 49.711 116.835 49.9777 116.344C50.2443 115.843 50.3777 115.261 50.3777 114.6Z" fill="#18202B"/>
<path d="M61.8622 110.232L56.5822 123.128H55.0782L56.8062 118.904L53.2702 110.232H54.8862L57.6382 117.336L60.3582 110.232H61.8622Z" fill="#18202B"/>
<path d="M73.8698 110.072C74.5525 110.072 75.1605 110.216 75.6938 110.504C76.2271 110.781 76.6485 111.203 76.9578 111.768C77.2671 112.333 77.4218 113.021 77.4218 113.832V119H75.9818V114.04C75.9818 113.165 75.7631 112.499 75.3258 112.04C74.8991 111.571 74.3178 111.336 73.5818 111.336C72.8245 111.336 72.2218 111.581 71.7738 112.072C71.3258 112.552 71.1018 113.251 71.1018 114.168V119H69.6618V114.04C69.6618 113.165 69.4431 112.499 69.0058 112.04C68.5791 111.571 67.9978 111.336 67.2618 111.336C66.5045 111.336 65.9018 111.581 65.4538 112.072C65.0058 112.552 64.7818 113.251 64.7818 114.168V119H63.3258V110.232H64.7818V111.496C65.0698 111.037 65.4538 110.685 65.9338 110.44C66.4245 110.195 66.9631 110.072 67.5498 110.072C68.2858 110.072 68.9365 110.237 69.5018 110.568C70.0671 110.899 70.4885 111.384 70.7658 112.024C71.0111 111.405 71.4165 110.925 71.9818 110.584C72.5471 110.243 73.1765 110.072 73.8698 110.072Z" fill="#18202B"/>
<path d="M87.8102 114.28C87.8102 114.557 87.7942 114.851 87.7622 115.16H80.7542C80.8075 116.024 81.1008 116.701 81.6342 117.192C82.1782 117.672 82.8342 117.912 83.6022 117.912C84.2315 117.912 84.7542 117.768 85.1702 117.48C85.5968 117.181 85.8955 116.787 86.0662 116.296H87.6342C87.3995 117.139 86.9302 117.827 86.2262 118.36C85.5222 118.883 84.6475 119.144 83.6022 119.144C82.7702 119.144 82.0235 118.957 81.3622 118.584C80.7115 118.211 80.1995 117.683 79.8262 117C79.4528 116.307 79.2662 115.507 79.2662 114.6C79.2662 113.693 79.4475 112.899 79.8102 112.216C80.1728 111.533 80.6795 111.011 81.3302 110.648C81.9915 110.275 82.7488 110.088 83.6022 110.088C84.4342 110.088 85.1702 110.269 85.8102 110.632C86.4502 110.995 86.9408 111.496 87.2822 112.136C87.6342 112.765 87.8102 113.48 87.8102 114.28ZM86.3062 113.976C86.3062 113.421 86.1835 112.947 85.9382 112.552C85.6928 112.147 85.3568 111.843 84.9302 111.64C84.5142 111.427 84.0502 111.32 83.5382 111.32C82.8022 111.32 82.1728 111.555 81.6502 112.024C81.1382 112.493 80.8448 113.144 80.7702 113.976H86.3062Z" fill="#18202B"/>
<path d="M94.0041 110.072C95.0707 110.072 95.9347 110.397 96.5961 111.048C97.2574 111.688 97.5881 112.616 97.5881 113.832V119H96.1481V114.04C96.1481 113.165 95.9294 112.499 95.4921 112.04C95.0547 111.571 94.4574 111.336 93.7001 111.336C92.9321 111.336 92.3187 111.576 91.8601 112.056C91.4121 112.536 91.1881 113.235 91.1881 114.152V119H89.7321V110.232H91.1881V111.48C91.4761 111.032 91.8654 110.685 92.3561 110.44C92.8574 110.195 93.4067 110.072 94.0041 110.072Z" fill="#18202B"/>
<path d="M101.742 111.432V116.6C101.742 117.027 101.833 117.331 102.014 117.512C102.196 117.683 102.51 117.768 102.958 117.768H104.03V119H102.718C101.908 119 101.3 118.813 100.894 118.44C100.489 118.067 100.286 117.453 100.286 116.6V111.432H99.1504V110.232H100.286V108.024H101.742V110.232H104.03V111.432H101.742Z" fill="#18202B"/>
<rect width="110" height="44" transform="translate(33 140)" fill="#D5F7D8"/>
<path d="M48.592 162.416C48.592 161.328 48.8427 160.352 49.344 159.488C49.856 158.624 50.544 157.952 51.408 157.472C52.2827 156.981 53.2373 156.736 54.272 156.736C55.456 156.736 56.5067 157.029 57.424 157.616C58.352 158.192 59.024 159.013 59.44 160.08H57.248C56.96 159.493 56.56 159.056 56.048 158.768C55.536 158.48 54.944 158.336 54.272 158.336C53.536 158.336 52.88 158.501 52.304 158.832C51.728 159.163 51.2747 159.637 50.944 160.256C50.624 160.875 50.464 161.595 50.464 162.416C50.464 163.237 50.624 163.957 50.944 164.576C51.2747 165.195 51.728 165.675 52.304 166.016C52.88 166.347 53.536 166.512 54.272 166.512C54.944 166.512 55.536 166.368 56.048 166.08C56.56 165.792 56.96 165.355 57.248 164.768H59.44C59.024 165.835 58.352 166.656 57.424 167.232C56.5067 167.808 55.456 168.096 54.272 168.096C53.2267 168.096 52.272 167.856 51.408 167.376C50.544 166.885 49.856 166.208 49.344 165.344C48.8427 164.48 48.592 163.504 48.592 162.416ZM65.399 168.144C64.567 168.144 63.815 167.957 63.143 167.584C62.471 167.2 61.943 166.667 61.559 165.984C61.175 165.291 60.983 164.491 60.983 163.584C60.983 162.688 61.1803 161.893 61.575 161.2C61.9697 160.507 62.5083 159.973 63.191 159.6C63.8737 159.227 64.6363 159.04 65.479 159.04C66.3217 159.04 67.0843 159.227 67.767 159.6C68.4497 159.973 68.9883 160.507 69.383 161.2C69.7777 161.893 69.975 162.688 69.975 163.584C69.975 164.48 69.7723 165.275 69.367 165.968C68.9617 166.661 68.407 167.2 67.703 167.584C67.0097 167.957 66.2417 168.144 65.399 168.144ZM65.399 166.56C65.8683 166.56 66.3057 166.448 66.711 166.224C67.127 166 67.463 165.664 67.719 165.216C67.975 164.768 68.103 164.224 68.103 163.584C68.103 162.944 67.9803 162.405 67.735 161.968C67.4897 161.52 67.1643 161.184 66.759 160.96C66.3537 160.736 65.9163 160.624 65.447 160.624C64.9777 160.624 64.5403 160.736 64.135 160.96C63.7403 161.184 63.4257 161.52 63.191 161.968C62.9563 162.405 62.839 162.944 62.839 163.584C62.839 164.533 63.079 165.269 63.559 165.792C64.0497 166.304 64.663 166.56 65.399 166.56ZM82.4501 159.04C83.1435 159.04 83.7621 159.184 84.3061 159.472C84.8608 159.76 85.2928 160.187 85.6021 160.752C85.9221 161.317 86.0821 162 86.0821 162.8V168H84.2741V163.072C84.2741 162.283 84.0768 161.68 83.6821 161.264C83.2875 160.837 82.7488 160.624 82.0661 160.624C81.3835 160.624 80.8395 160.837 80.4341 161.264C80.0395 161.68 79.8421 162.283 79.8421 163.072V168H78.0341V163.072C78.0341 162.283 77.8368 161.68 77.4421 161.264C77.0475 160.837 76.5088 160.624 75.8261 160.624C75.1435 160.624 74.5995 160.837 74.1941 161.264C73.7995 161.68 73.6021 162.283 73.6021 163.072V168H71.7781V159.184H73.6021V160.192C73.9008 159.829 74.2795 159.547 74.7381 159.344C75.1968 159.141 75.6875 159.04 76.2101 159.04C76.9141 159.04 77.5435 159.189 78.0981 159.488C78.6528 159.787 79.0795 160.219 79.3781 160.784C79.6448 160.251 80.0608 159.829 80.6261 159.52C81.1915 159.2 81.7995 159.04 82.4501 159.04ZM90.2271 160.48C90.5365 160.075 90.9578 159.733 91.4911 159.456C92.0245 159.179 92.6271 159.04 93.2991 159.04C94.0671 159.04 94.7658 159.232 95.3951 159.616C96.0351 159.989 96.5365 160.517 96.8991 161.2C97.2618 161.883 97.4431 162.667 97.4431 163.552C97.4431 164.437 97.2618 165.232 96.8991 165.936C96.5365 166.629 96.0351 167.173 95.3951 167.568C94.7658 167.952 94.0671 168.144 93.2991 168.144C92.6271 168.144 92.0298 168.011 91.5071 167.744C90.9845 167.467 90.5578 167.125 90.2271 166.72V172.192H88.4031V159.184H90.2271V160.48ZM95.5871 163.552C95.5871 162.944 95.4591 162.421 95.2031 161.984C94.9578 161.536 94.6271 161.2 94.2111 160.976C93.8058 160.741 93.3685 160.624 92.8991 160.624C92.4405 160.624 92.0031 160.741 91.5871 160.976C91.1818 161.211 90.8511 161.552 90.5951 162C90.3498 162.448 90.2271 162.976 90.2271 163.584C90.2271 164.192 90.3498 164.725 90.5951 165.184C90.8511 165.632 91.1818 165.973 91.5871 166.208C92.0031 166.443 92.4405 166.56 92.8991 166.56C93.3685 166.56 93.8058 166.443 94.2111 166.208C94.6271 165.963 94.9578 165.611 95.2031 165.152C95.4591 164.693 95.5871 164.16 95.5871 163.552ZM101.071 156.16V168H99.2469V156.16H101.071ZM111.546 163.376C111.546 163.707 111.524 164.005 111.482 164.272H104.746C104.799 164.976 105.06 165.541 105.53 165.968C105.999 166.395 106.575 166.608 107.258 166.608C108.239 166.608 108.932 166.197 109.338 165.376H111.306C111.039 166.187 110.554 166.853 109.85 167.376C109.156 167.888 108.292 168.144 107.258 168.144C106.415 168.144 105.658 167.957 104.986 167.584C104.324 167.2 103.802 166.667 103.418 165.984C103.044 165.291 102.858 164.491 102.858 163.584C102.858 162.677 103.039 161.883 103.402 161.2C103.775 160.507 104.292 159.973 104.954 159.6C105.626 159.227 106.394 159.04 107.258 159.04C108.09 159.04 108.831 159.221 109.482 159.584C110.132 159.947 110.639 160.459 111.002 161.12C111.364 161.771 111.546 162.523 111.546 163.376ZM109.642 162.8C109.631 162.128 109.391 161.589 108.922 161.184C108.452 160.779 107.871 160.576 107.178 160.576C106.548 160.576 106.01 160.779 105.562 161.184C105.114 161.579 104.847 162.117 104.762 162.8H109.642ZM115.469 160.672V165.552C115.469 165.883 115.543 166.123 115.693 166.272C115.853 166.411 116.119 166.48 116.493 166.48H117.613V168H116.173C115.351 168 114.722 167.808 114.285 167.424C113.847 167.04 113.629 166.416 113.629 165.552V160.672H112.589V159.184H113.629V156.992H115.469V159.184H117.613V160.672H115.469ZM127.374 163.376C127.374 163.707 127.352 164.005 127.31 164.272H120.574C120.627 164.976 120.888 165.541 121.358 165.968C121.827 166.395 122.403 166.608 123.086 166.608C124.067 166.608 124.76 166.197 125.166 165.376H127.134C126.867 166.187 126.382 166.853 125.678 167.376C124.984 167.888 124.12 168.144 123.086 168.144C122.243 168.144 121.486 167.957 120.814 167.584C120.152 167.2 119.63 166.667 119.246 165.984C118.872 165.291 118.686 164.491 118.686 163.584C118.686 162.677 118.867 161.883 119.23 161.2C119.603 160.507 120.12 159.973 120.782 159.6C121.454 159.227 122.222 159.04 123.086 159.04C123.918 159.04 124.659 159.221 125.31 159.584C125.96 159.947 126.467 160.459 126.83 161.12C127.192 161.771 127.374 162.523 127.374 163.376ZM125.47 162.8C125.459 162.128 125.219 161.589 124.75 161.184C124.28 160.779 123.699 160.576 123.006 160.576C122.376 160.576 121.838 160.779 121.39 161.184C120.942 161.579 120.675 162.117 120.59 162.8H125.47Z" fill="#26AD32"/>
</g>
<g filter="url(#filter2_d_2004_3228)">
<rect width="170" height="133" transform="translate(378 50)" fill="url(#paint2_linear_2004_3228)"/>
<path d="M409.288 93.112C408.253 93.112 407.309 92.872 406.456 92.392C405.603 91.9014 404.925 91.224 404.424 90.36C403.933 89.4854 403.688 88.504 403.688 87.416C403.688 86.328 403.933 85.352 404.424 84.488C404.925 83.6134 405.603 82.936 406.456 82.456C407.309 81.9654 408.253 81.72 409.288 81.72C410.333 81.72 411.283 81.9654 412.136 82.456C412.989 82.936 413.661 83.608 414.152 84.472C414.643 85.336 414.888 86.3174 414.888 87.416C414.888 88.5147 414.643 89.496 414.152 90.36C413.661 91.224 412.989 91.9014 412.136 92.392C411.283 92.872 410.333 93.112 409.288 93.112ZM409.288 91.848C410.067 91.848 410.765 91.6667 411.384 91.304C412.013 90.9414 412.504 90.424 412.856 89.752C413.219 89.08 413.4 88.3014 413.4 87.416C413.4 86.52 413.219 85.7414 412.856 85.08C412.504 84.408 412.019 83.8907 411.4 83.528C410.781 83.1654 410.077 82.984 409.288 82.984C408.499 82.984 407.795 83.1654 407.176 83.528C406.557 83.8907 406.067 84.408 405.704 85.08C405.352 85.7414 405.176 86.52 405.176 87.416C405.176 88.3014 405.352 89.08 405.704 89.752C406.067 90.424 406.557 90.9414 407.176 91.304C407.805 91.6667 408.509 91.848 409.288 91.848Z" fill="#18202B"/>
<path d="M418.266 85.656C418.522 85.1547 418.885 84.7654 419.354 84.488C419.834 84.2107 420.415 84.072 421.098 84.072V85.576H420.714C419.082 85.576 418.266 86.4614 418.266 88.232V93H416.81V84.232H418.266V85.656Z" fill="#18202B"/>
<path d="M422.235 88.584C422.235 87.688 422.416 86.904 422.779 86.232C423.142 85.5494 423.638 85.0214 424.267 84.648C424.907 84.2747 425.622 84.088 426.411 84.088C427.094 84.088 427.728 84.248 428.315 84.568C428.902 84.8774 429.35 85.288 429.659 85.8V81.16H431.131V93H429.659V91.352C429.371 91.8747 428.944 92.3067 428.379 92.648C427.814 92.9787 427.152 93.144 426.395 93.144C425.616 93.144 424.907 92.952 424.267 92.568C423.638 92.184 423.142 91.6454 422.779 90.952C422.416 90.2587 422.235 89.4694 422.235 88.584ZM429.659 88.6C429.659 87.9387 429.526 87.3627 429.259 86.872C428.992 86.3814 428.63 86.008 428.171 85.752C427.723 85.4854 427.227 85.352 426.683 85.352C426.139 85.352 425.643 85.48 425.195 85.736C424.747 85.992 424.39 86.3654 424.123 86.856C423.856 87.3467 423.723 87.9227 423.723 88.584C423.723 89.256 423.856 89.8427 424.123 90.344C424.39 90.8347 424.747 91.2134 425.195 91.48C425.643 91.736 426.139 91.864 426.683 91.864C427.227 91.864 427.723 91.736 428.171 91.48C428.63 91.2134 428.992 90.8347 429.259 90.344C429.526 89.8427 429.659 89.2614 429.659 88.6Z" fill="#18202B"/>
<path d="M441.591 88.28C441.591 88.5574 441.575 88.8507 441.543 89.16H434.535C434.589 90.024 434.882 90.7014 435.415 91.192C435.959 91.672 436.615 91.912 437.383 91.912C438.013 91.912 438.535 91.768 438.951 91.48C439.378 91.1814 439.677 90.7867 439.847 90.296H441.415C441.181 91.1387 440.711 91.8267 440.007 92.36C439.303 92.8827 438.429 93.144 437.383 93.144C436.551 93.144 435.805 92.9574 435.143 92.584C434.493 92.2107 433.981 91.6827 433.607 91C433.234 90.3067 433.047 89.5067 433.047 88.6C433.047 87.6934 433.229 86.8987 433.591 86.216C433.954 85.5334 434.461 85.0107 435.111 84.648C435.773 84.2747 436.53 84.088 437.383 84.088C438.215 84.088 438.951 84.2694 439.591 84.632C440.231 84.9947 440.722 85.496 441.063 86.136C441.415 86.7654 441.591 87.48 441.591 88.28ZM440.087 87.976C440.087 87.4214 439.965 86.9467 439.719 86.552C439.474 86.1467 439.138 85.8427 438.711 85.64C438.295 85.4267 437.831 85.32 437.319 85.32C436.583 85.32 435.954 85.5547 435.431 86.024C434.919 86.4934 434.626 87.144 434.551 87.976H440.087Z" fill="#18202B"/>
<path d="M444.969 85.656C445.225 85.1547 445.588 84.7654 446.057 84.488C446.537 84.2107 447.119 84.072 447.801 84.072V85.576H447.417C445.785 85.576 444.969 86.4614 444.969 88.232V93H443.513V84.232H444.969V85.656Z" fill="#18202B"/>
<rect width="120" height="44" transform="translate(403 114)" fill="#ECF2FF"/>
<path d="M421.024 130.88V142H419.2V130.88H421.024ZM427.867 133.04C428.56 133.04 429.179 133.184 429.723 133.472C430.277 133.76 430.709 134.187 431.019 134.752C431.328 135.317 431.483 136 431.483 136.8V142H429.675V137.072C429.675 136.283 429.477 135.68 429.083 135.264C428.688 134.837 428.149 134.624 427.467 134.624C426.784 134.624 426.24 134.837 425.835 135.264C425.44 135.68 425.243 136.283 425.243 137.072V142H423.419V133.184H425.243V134.192C425.541 133.829 425.92 133.547 426.379 133.344C426.848 133.141 427.344 133.04 427.867 133.04ZM439.79 134.48C440.099 134.075 440.52 133.733 441.054 133.456C441.587 133.179 442.19 133.04 442.862 133.04C443.63 133.04 444.328 133.232 444.958 133.616C445.598 133.989 446.099 134.517 446.462 135.2C446.824 135.883 447.006 136.667 447.006 137.552C447.006 138.437 446.824 139.232 446.462 139.936C446.099 140.629 445.598 141.173 444.958 141.568C444.328 141.952 443.63 142.144 442.862 142.144C442.19 142.144 441.592 142.011 441.07 141.744C440.547 141.467 440.12 141.125 439.79 140.72V146.192H437.966V133.184H439.79V134.48ZM445.15 137.552C445.15 136.944 445.022 136.421 444.766 135.984C444.52 135.536 444.19 135.2 443.774 134.976C443.368 134.741 442.931 134.624 442.462 134.624C442.003 134.624 441.566 134.741 441.15 134.976C440.744 135.211 440.414 135.552 440.158 136C439.912 136.448 439.79 136.976 439.79 137.584C439.79 138.192 439.912 138.725 440.158 139.184C440.414 139.632 440.744 139.973 441.15 140.208C441.566 140.443 442.003 140.56 442.462 140.56C442.931 140.56 443.368 140.443 443.774 140.208C444.19 139.963 444.52 139.611 444.766 139.152C445.022 138.693 445.15 138.16 445.15 137.552ZM450.633 134.464C450.9 134.016 451.252 133.669 451.689 133.424C452.137 133.168 452.665 133.04 453.273 133.04V134.928H452.809C452.095 134.928 451.551 135.109 451.177 135.472C450.815 135.835 450.633 136.464 450.633 137.36V142H448.809V133.184H450.633V134.464ZM458.774 142.144C457.942 142.144 457.19 141.957 456.518 141.584C455.846 141.2 455.318 140.667 454.934 139.984C454.55 139.291 454.358 138.491 454.358 137.584C454.358 136.688 454.555 135.893 454.95 135.2C455.345 134.507 455.883 133.973 456.566 133.6C457.249 133.227 458.011 133.04 458.854 133.04C459.697 133.04 460.459 133.227 461.142 133.6C461.825 133.973 462.363 134.507 462.758 135.2C463.153 135.893 463.35 136.688 463.35 137.584C463.35 138.48 463.147 139.275 462.742 139.968C462.337 140.661 461.782 141.2 461.078 141.584C460.385 141.957 459.617 142.144 458.774 142.144ZM458.774 140.56C459.243 140.56 459.681 140.448 460.086 140.224C460.502 140 460.838 139.664 461.094 139.216C461.35 138.768 461.478 138.224 461.478 137.584C461.478 136.944 461.355 136.405 461.11 135.968C460.865 135.52 460.539 135.184 460.134 134.96C459.729 134.736 459.291 134.624 458.822 134.624C458.353 134.624 457.915 134.736 457.51 134.96C457.115 135.184 456.801 135.52 456.566 135.968C456.331 136.405 456.214 136.944 456.214 137.584C456.214 138.533 456.454 139.269 456.934 139.792C457.425 140.304 458.038 140.56 458.774 140.56ZM468.705 133.04C469.388 133.04 469.99 133.179 470.513 133.456C471.046 133.723 471.462 134.059 471.761 134.464V133.184H473.601V142.144C473.601 142.955 473.43 143.675 473.089 144.304C472.748 144.944 472.252 145.445 471.601 145.808C470.961 146.171 470.193 146.352 469.297 146.352C468.102 146.352 467.11 146.069 466.321 145.504C465.532 144.949 465.084 144.192 464.977 143.232H466.785C466.924 143.691 467.217 144.059 467.665 144.336C468.124 144.624 468.668 144.768 469.297 144.768C470.033 144.768 470.625 144.544 471.073 144.096C471.532 143.648 471.761 142.997 471.761 142.144V140.672C471.452 141.088 471.03 141.44 470.497 141.728C469.974 142.005 469.377 142.144 468.705 142.144C467.937 142.144 467.233 141.952 466.593 141.568C465.964 141.173 465.462 140.629 465.089 139.936C464.726 139.232 464.545 138.437 464.545 137.552C464.545 136.667 464.726 135.883 465.089 135.2C465.462 134.517 465.964 133.989 466.593 133.616C467.233 133.232 467.937 133.04 468.705 133.04ZM471.761 137.584C471.761 136.976 471.633 136.448 471.377 136C471.132 135.552 470.806 135.211 470.401 134.976C469.996 134.741 469.558 134.624 469.089 134.624C468.62 134.624 468.182 134.741 467.777 134.976C467.372 135.2 467.041 135.536 466.785 135.984C466.54 136.421 466.417 136.944 466.417 137.552C466.417 138.16 466.54 138.693 466.785 139.152C467.041 139.611 467.372 139.963 467.777 140.208C468.193 140.443 468.63 140.56 469.089 140.56C469.558 140.56 469.996 140.443 470.401 140.208C470.806 139.973 471.132 139.632 471.377 139.184C471.633 138.725 471.761 138.192 471.761 137.584ZM477.821 134.464C478.088 134.016 478.44 133.669 478.877 133.424C479.325 133.168 479.853 133.04 480.461 133.04V134.928H479.997C479.282 134.928 478.738 135.109 478.365 135.472C478.002 135.835 477.821 136.464 477.821 137.36V142H475.997V133.184H477.821V134.464ZM490.218 137.376C490.218 137.707 490.196 138.005 490.154 138.272H483.418C483.471 138.976 483.732 139.541 484.202 139.968C484.671 140.395 485.247 140.608 485.93 140.608C486.911 140.608 487.604 140.197 488.01 139.376H489.977C489.711 140.187 489.226 140.853 488.522 141.376C487.828 141.888 486.964 142.144 485.93 142.144C485.087 142.144 484.33 141.957 483.658 141.584C482.996 141.2 482.474 140.667 482.09 139.984C481.716 139.291 481.53 138.491 481.53 137.584C481.53 136.677 481.711 135.883 482.074 135.2C482.447 134.507 482.964 133.973 483.626 133.6C484.298 133.227 485.066 133.04 485.93 133.04C486.762 133.04 487.503 133.221 488.154 133.584C488.804 133.947 489.311 134.459 489.674 135.12C490.036 135.771 490.218 136.523 490.218 137.376ZM488.314 136.8C488.303 136.128 488.063 135.589 487.594 135.184C487.124 134.779 486.543 134.576 485.85 134.576C485.22 134.576 484.682 134.779 484.234 135.184C483.786 135.579 483.519 136.117 483.434 136.8H488.314ZM495.213 142.144C494.519 142.144 493.895 142.021 493.341 141.776C492.797 141.52 492.365 141.179 492.045 140.752C491.725 140.315 491.554 139.829 491.533 139.296H493.421C493.453 139.669 493.629 139.984 493.949 140.24C494.279 140.485 494.69 140.608 495.181 140.608C495.693 140.608 496.087 140.512 496.365 140.32C496.653 140.117 496.797 139.861 496.797 139.552C496.797 139.221 496.637 138.976 496.317 138.816C496.007 138.656 495.511 138.48 494.829 138.288C494.167 138.107 493.629 137.931 493.213 137.76C492.797 137.589 492.434 137.328 492.125 136.976C491.826 136.624 491.677 136.16 491.677 135.584C491.677 135.115 491.815 134.688 492.093 134.304C492.37 133.909 492.765 133.6 493.277 133.376C493.799 133.152 494.397 133.04 495.069 133.04C496.071 133.04 496.877 133.296 497.485 133.808C498.103 134.309 498.434 134.997 498.477 135.872H496.653C496.621 135.477 496.461 135.163 496.173 134.928C495.885 134.693 495.495 134.576 495.005 134.576C494.525 134.576 494.157 134.667 493.901 134.848C493.645 135.029 493.517 135.269 493.517 135.568C493.517 135.803 493.602 136 493.773 136.16C493.943 136.32 494.151 136.448 494.397 136.544C494.642 136.629 495.005 136.741 495.485 136.88C496.125 137.051 496.647 137.227 497.053 137.408C497.469 137.579 497.826 137.835 498.125 138.176C498.423 138.517 498.578 138.971 498.589 139.536C498.589 140.037 498.45 140.485 498.173 140.88C497.895 141.275 497.501 141.584 496.989 141.808C496.487 142.032 495.895 142.144 495.213 142.144ZM503.759 142.144C503.066 142.144 502.442 142.021 501.887 141.776C501.343 141.52 500.911 141.179 500.591 140.752C500.271 140.315 500.101 139.829 500.079 139.296H501.967C501.999 139.669 502.175 139.984 502.495 140.24C502.826 140.485 503.237 140.608 503.727 140.608C504.239 140.608 504.634 140.512 504.911 140.32C505.199 140.117 505.343 139.861 505.343 139.552C505.343 139.221 505.183 138.976 504.863 138.816C504.554 138.656 504.058 138.48 503.375 138.288C502.714 138.107 502.175 137.931 501.759 137.76C501.343 137.589 500.981 137.328 500.671 136.976C500.373 136.624 500.223 136.16 500.223 135.584C500.223 135.115 500.362 134.688 500.639 134.304C500.917 133.909 501.311 133.6 501.823 133.376C502.346 133.152 502.943 133.04 503.615 133.04C504.618 133.04 505.423 133.296 506.031 133.808C506.65 134.309 506.981 134.997 507.023 135.872H505.199C505.167 135.477 505.007 135.163 504.719 134.928C504.431 134.693 504.042 134.576 503.551 134.576C503.071 134.576 502.703 134.667 502.447 134.848C502.191 135.029 502.063 135.269 502.063 135.568C502.063 135.803 502.149 136 502.319 136.16C502.49 136.32 502.698 136.448 502.943 136.544C503.189 136.629 503.551 136.741 504.031 136.88C504.671 137.051 505.194 137.227 505.599 137.408C506.015 137.579 506.373 137.835 506.671 138.176C506.97 138.517 507.125 138.971 507.135 139.536C507.135 140.037 506.997 140.485 506.719 140.88C506.442 141.275 506.047 141.584 505.535 141.808C505.034 142.032 504.442 142.144 503.759 142.144Z" fill="#537AFC"/>
</g>
<path d="M153.587 93.3726L137.273 17.89L216.302 14.55L232.615 90.0326L153.587 93.3726Z" fill="url(#paint3_linear_2004_3228)" stroke="url(#paint4_linear_2004_3228)" stroke-width="0.5"/>
<g filter="url(#filter3_d_2004_3228)">
<path d="M170.993 56.7587L171.998 32.1264L190.864 30.8221L187.76 44.6827L202.583 43.6579L202.864 47.7322L183.088 75.0268L185.816 55.7339L170.993 56.7587Z" fill="url(#paint5_linear_2004_3228)"/>
</g>
<path d="M153.387 93.631L136.966 17.6525L130.567 27.2264L146.987 103.205L153.387 93.631Z" fill="url(#paint6_linear_2004_3228)"/>
<path d="M153.387 93.6311L232.922 90.2697L226.523 99.8436L146.987 103.205L153.387 93.6311Z" fill="url(#paint7_linear_2004_3228)"/>
<defs>
<filter id="filter0_d_2004_3228" x="38" y="150" width="448" height="330.067" filterUnits="userSpaceOnUse" color-interpolation-filters="sRGB">
<feFlood flood-opacity="0" result="BackgroundImageFix"/>
<feColorMatrix in="SourceAlpha" type="matrix" values="0 0 0 0 0 0 0 0 0 0 0 0 0 0 0 0 0 0 127 0" result="hardAlpha"/>
<feOffset dx="-16" dy="16"/>
<feGaussianBlur stdDeviation="12"/>
<feComposite in2="hardAlpha" operator="out"/>
<feColorMatrix type="matrix" values="0 0 0 0 0.878431 0 0 0 0 0.905882 0 0 0 0 0.964706 0 0 0 0.25 0"/>
<feBlend mode="normal" in2="BackgroundImageFix" result="effect1_dropShadow_2004_3228"/>
<feBlend mode="normal" in="SourceGraphic" in2="effect1_dropShadow_2004_3228" result="shape"/>
</filter>
<filter id="filter1_d_2004_3228" x="0" y="68" width="208" height="181" filterUnits="userSpaceOnUse" color-interpolation-filters="sRGB">
<feFlood flood-opacity="0" result="BackgroundImageFix"/>
<feColorMatrix in="SourceAlpha" type="matrix" values="0 0 0 0 0 0 0 0 0 0 0 0 0 0 0 0 0 0 127 0" result="hardAlpha"/>
<feOffset dx="16" dy="16"/>
<feGaussianBlur stdDeviation="12"/>
<feComposite in2="hardAlpha" operator="out"/>
<feColorMatrix type="matrix" values="0 0 0 0 0.878431 0 0 0 0 0.905882 0 0 0 0 0.964706 0 0 0 0.25 0"/>
<feBlend mode="normal" in2="BackgroundImageFix" result="effect1_dropShadow_2004_3228"/>
<feBlend mode="normal" in="SourceGraphic" in2="effect1_dropShadow_2004_3228" result="shape"/>
</filter>
<filter id="filter2_d_2004_3228" x="338" y="42" width="218" height="181" filterUnits="userSpaceOnUse" color-interpolation-filters="sRGB">
<feFlood flood-opacity="0" result="BackgroundImageFix"/>
<feColorMatrix in="SourceAlpha" type="matrix" values="0 0 0 0 0 0 0 0 0 0 0 0 0 0 0 0 0 0 127 0" result="hardAlpha"/>
<feOffset dx="-16" dy="16"/>
<feGaussianBlur stdDeviation="12"/>
<feComposite in2="hardAlpha" operator="out"/>
<feColorMatrix type="matrix" values="0 0 0 0 0.878431 0 0 0 0 0.905882 0 0 0 0 0.964706 0 0 0 0.25 0"/>
<feBlend mode="normal" in2="BackgroundImageFix" result="effect1_dropShadow_2004_3228"/>
<feBlend mode="normal" in="SourceGraphic" in2="effect1_dropShadow_2004_3228" result="shape"/>
</filter>
<filter id="filter3_d_2004_3228" x="168.993" y="30.8223" width="33.8716" height="46.2046" filterUnits="userSpaceOnUse" color-interpolation-filters="sRGB">
<feFlood flood-opacity="0" result="BackgroundImageFix"/>
<feColorMatrix in="SourceAlpha" type="matrix" values="0 0 0 0 0 0 0 0 0 0 0 0 0 0 0 0 0 0 127 0" result="hardAlpha"/>
<feOffset dx="-2" dy="2"/>
<feComposite in2="hardAlpha" operator="out"/>
<feColorMatrix type="matrix" values="0 0 0 0 0.211126 0 0 0 0 0.365556 0 0 0 0 0.871745 0 0 0 0.25 0"/>
<feBlend mode="normal" in2="BackgroundImageFix" result="effect1_dropShadow_2004_3228"/>
<feBlend mode="normal" in="SourceGraphic" in2="effect1_dropShadow_2004_3228" result="shape"/>
</filter>
<linearGradient id="paint0_linear_2004_3228" x1="136.967" y1="252.225" x2="422.269" y2="419.629" gradientUnits="userSpaceOnUse">
<stop stop-color="white"/>
<stop offset="0.0001" stop-color="white"/>
</linearGradient>
<linearGradient id="paint1_linear_2004_3228" x1="23.5866" y1="44.4289" x2="146.536" y2="105.628" gradientUnits="userSpaceOnUse">
<stop stop-color="white"/>
<stop offset="0.0001" stop-color="white"/>
</linearGradient>
<linearGradient id="paint2_linear_2004_3228" x1="25.0608" y1="44.4289" x2="152.434" y2="111.793" gradientUnits="userSpaceOnUse">
<stop stop-color="white"/>
<stop offset="0.0001" stop-color="white"/>
</linearGradient>
<linearGradient id="paint3_linear_2004_3228" x1="174.291" y1="39.4349" x2="198.391" y2="94.767" gradientUnits="userSpaceOnUse">
<stop stop-color="#5078FA"/>
<stop offset="1" stop-color="#698CFF"/>
</linearGradient>
<linearGradient id="paint4_linear_2004_3228" x1="144.889" y1="74.0701" x2="193.564" y2="25.883" gradientUnits="userSpaceOnUse">
<stop stop-color="white" stop-opacity="0.81"/>
<stop offset="1" stop-color="white" stop-opacity="0"/>
</linearGradient>
<linearGradient id="paint5_linear_2004_3228" x1="191.25" y1="49.2888" x2="180.226" y2="81.2753" gradientUnits="userSpaceOnUse">
<stop stop-color="white"/>
<stop offset="1" stop-color="#AFCBFF"/>
</linearGradient>
<linearGradient id="paint6_linear_2004_3228" x1="133.163" y1="59.7773" x2="152.323" y2="61.2096" gradientUnits="userSpaceOnUse">
<stop stop-color="#78A5FF"/>
<stop offset="1" stop-color="#EBF5FF"/>
</linearGradient>
<linearGradient id="paint7_linear_2004_3228" x1="163.004" y1="94.7243" x2="221.597" y2="99.1046" gradientUnits="userSpaceOnUse">
<stop stop-color="#78A5FF"/>
<stop offset="1" stop-color="#EBF5FF"/>
</linearGradient>
</defs>
</svg>
