<svg width="540" height="538" viewBox="0 0 540 538" fill="none" xmlns="http://www.w3.org/2000/svg">
<rect opacity="0.5" width="121.348" height="119.016" fill="url(#paint0_linear_2004_3205)"/>
<rect opacity="0.5" x="279.101" width="121.348" height="117.801" fill="url(#paint1_linear_2004_3205)"/>
<rect opacity="0.5" y="416.555" width="121.348" height="121.445" fill="url(#paint2_linear_2004_3205)"/>
<rect opacity="0.5" x="139.551" y="467.562" width="121.348" height="70.4379" fill="url(#paint3_linear_2004_3205)"/>
<rect opacity="0.5" x="279.101" y="415.341" width="121.348" height="121.445" fill="url(#paint4_linear_2004_3205)"/>
<rect opacity="0.5" x="418.652" y="483.35" width="121.348" height="54.6501" fill="url(#paint5_linear_2004_3205)"/>
<rect opacity="0.5" x="418.652" width="121.348" height="46.149" fill="url(#paint6_linear_2004_3205)"/>
<rect opacity="0.5" x="139.551" width="121.348" height="30.3612" fill="url(#paint7_linear_2004_3205)"/>
<rect x="279.101" y="136.018" width="121.348" height="121.445" fill="white"/>
<g clip-path="url(#clip0_2004_3205)">
<path d="M314.447 191.096C311.361 191.096 308.95 193.344 308.95 196.353C308.95 199.362 311.301 201.591 314.447 201.591C317.594 201.591 319.985 199.324 319.985 196.334C319.985 193.363 317.635 191.096 314.447 191.096ZM314.468 199.422C312.711 199.422 311.423 198.113 311.423 196.354C311.423 194.575 312.69 193.266 314.447 193.266C316.225 193.266 317.512 194.595 317.512 196.354C317.512 198.113 316.225 199.422 314.468 199.422ZM320.659 193.383H322.192V201.396H324.644V191.292H320.659V193.383ZM302.779 193.266C304.067 193.266 305.089 194.028 305.477 195.161H308.072C307.602 192.738 305.518 191.096 302.8 191.096C299.714 191.096 297.303 193.344 297.303 196.354C297.303 199.364 299.654 201.591 302.8 201.591C305.457 201.591 307.582 199.95 308.052 197.507H305.477C305.109 198.64 304.087 199.422 302.8 199.422C301.021 199.422 299.775 198.113 299.775 196.354C299.776 194.575 301.002 193.266 302.779 193.266ZM367.248 195.377L365.45 195.123C364.592 195.006 363.979 194.732 363.979 194.087C363.979 193.383 364.776 193.032 365.859 193.032C367.044 193.032 367.8 193.52 367.964 194.322H370.334C370.068 192.289 368.433 191.097 365.921 191.097C363.325 191.097 361.609 192.368 361.609 194.165C361.609 195.885 362.733 196.882 365.001 197.194L366.799 197.448C367.678 197.565 368.168 197.898 368.168 198.523C368.168 199.324 367.31 199.657 366.125 199.657C364.674 199.657 363.856 199.09 363.734 198.23H361.323C361.548 200.204 363.162 201.591 366.104 201.591C368.781 201.591 370.559 200.419 370.559 198.406C370.559 196.608 369.272 195.67 367.248 195.377ZM323.418 187.129C322.519 187.129 321.844 187.754 321.844 188.614C321.844 189.474 322.518 190.099 323.418 190.099C324.317 190.099 324.992 189.474 324.992 188.614C324.992 187.754 324.317 187.129 323.418 187.129ZM359.402 194.751C359.402 192.563 358.013 191.097 355.07 191.097C352.291 191.097 350.738 192.446 350.431 194.518H352.863C352.986 193.716 353.64 193.052 355.029 193.052C356.276 193.052 356.889 193.579 356.889 194.225C356.889 195.065 355.765 195.28 354.375 195.417C352.496 195.612 350.166 196.237 350.166 198.582C350.166 200.4 351.576 201.572 353.824 201.572C355.581 201.572 356.685 200.869 357.237 199.754C357.319 200.751 358.095 201.396 359.178 201.396H360.609V199.305H359.403V194.751H359.402ZM356.991 197.292C356.991 198.641 355.765 199.637 354.273 199.637C353.353 199.637 352.577 199.266 352.577 198.485C352.577 197.488 353.823 197.214 354.968 197.097C356.071 197 356.684 196.765 356.991 196.315V197.292ZM343.974 191.096C342.605 191.096 341.461 191.644 340.643 192.562V187.032H338.191V201.396H340.603V200.067C341.42 201.025 342.585 201.591 343.974 201.591C346.917 201.591 349.144 199.364 349.144 196.354C349.144 193.344 346.876 191.096 343.974 191.096ZM343.607 199.422C341.849 199.422 340.562 198.113 340.562 196.354C340.562 194.595 341.869 193.266 343.627 193.266C345.405 193.266 346.651 194.576 346.651 196.354C346.651 198.113 345.364 199.422 343.607 199.422ZM332.327 191.096C330.733 191.096 329.69 191.722 329.077 192.601V191.292H326.646V201.395H329.098V195.904C329.098 194.36 330.119 193.266 331.631 193.266C333.042 193.266 333.92 194.223 333.92 195.611V201.396H336.372V195.436C336.373 192.894 335.004 191.096 332.327 191.096ZM382.247 196.022C382.247 193.13 380.04 191.097 377.077 191.097C373.93 191.097 371.621 193.364 371.621 196.354C371.621 199.501 374.094 201.591 377.118 201.591C379.673 201.591 381.675 200.145 382.185 198.093H379.631C379.263 198.992 378.364 199.501 377.158 199.501C375.584 199.501 374.399 198.562 374.134 196.921H382.246V196.022H382.247ZM374.277 195.24C374.666 193.832 375.769 193.149 377.036 193.149C378.426 193.149 379.488 193.911 379.733 195.24H374.277Z" fill="#0052FF"/>
</g>
<rect y="137.233" width="121.348" height="121.445" fill="url(#paint8_linear_2004_3205)"/>
<path opacity="0.5" fill-rule="evenodd" clip-rule="evenodd" d="M42.6792 192.655L44.3228 186.191L55.8988 179.303V187.933L42.6792 196.498V192.655Z" fill="#1C60DD"/>
<path opacity="0.7" fill-rule="evenodd" clip-rule="evenodd" d="M48.1583 192.883L61.1938 184.552V191.393C61.1938 191.393 60.9957 193.652 60.0427 194.072C59.3381 194.368 48.1618 201.165 48.1618 201.165L48.1583 192.883Z" fill="#1C60DD"/>
<path opacity="0.9" fill-rule="evenodd" clip-rule="evenodd" d="M55.2574 196.924L66.8455 189.905V196.745C66.8455 196.745 66.8455 198.636 65.6945 199.302C64.9516 199.71 55.2601 205.507 55.2601 205.507L55.2574 196.924Z" fill="#1C60DD"/>
<path opacity="0.5" fill-rule="evenodd" clip-rule="evenodd" d="M60.0594 176.858L66.4308 172.637V181.262L60.0655 185.266L60.0594 176.858Z" fill="#1C60DD"/>
<path opacity="0.7" fill-rule="evenodd" clip-rule="evenodd" d="M65.2476 181.998L71.6502 178.111V187.04L65.245 190.864L65.2476 181.998Z" fill="#1C60DD"/>
<path opacity="0.5" fill-rule="evenodd" clip-rule="evenodd" d="M70.1571 170.336L74.5172 167.594V173.542C74.5172 173.542 74.5172 176.518 73.3662 177.114C73.1447 177.235 70.1805 179.008 70.1805 179.008L70.1571 170.336Z" fill="#1C60DD"/>
<path opacity="0.9" fill-rule="evenodd" clip-rule="evenodd" d="M70.2724 187.755L74.6162 185.076L74.5163 191.911C74.5163 191.911 74.6162 193.714 73.3651 194.59C73.0768 194.854 70.1187 196.334 70.1708 196.363C70.2229 196.393 70.2551 187.513 70.2724 187.755Z" fill="#1C60DD"/>
<path opacity="0.7" fill-rule="evenodd" clip-rule="evenodd" d="M75.3859 175.922L78.8608 173.557C78.8608 173.557 78.8956 177.104 78.8608 179.507C78.8353 180.237 78.6696 180.954 78.3733 181.618C78.0771 182.282 77.6561 182.879 77.1346 183.375C77.1346 183.375 75.3372 184.525 75.392 184.557C75.4466 184.589 75.3859 175.922 75.3859 175.922Z" fill="#1C60DD"/>
<path fill-rule="evenodd" clip-rule="evenodd" d="M55.8987 179.296C55.8449 179.412 45.2715 184.805 43.6687 186.655C44.4861 185.946 42.9737 187.356 42.7999 189.478L43.3029 209.425C43.3029 209.425 42.495 212.877 46.4669 215.223C49.299 216.897 65.68 226.456 67.6911 227.428C69.7022 228.4 70.2208 226.864 70.2208 226.864V207.502C70.1774 207.45 70.8211 204.443 67.374 202.176C66.712 201.585 45.4861 191.648 44.5843 188.519C43.6157 185.159 55.8987 180.165 55.8987 179.296Z" fill="white"/>
<path fill-rule="evenodd" clip-rule="evenodd" d="M69.2331 207.329L70.2669 206.56V227.187C70.2669 227.187 69.7682 228.218 69.2331 228.316C69.1697 228.282 69.2331 207.329 69.2331 207.329Z" fill="#C0C9D7"/>
<path d="M43.857 189.198C44.0039 189.437 44.1723 189.662 44.36 189.87C44.1476 189.629 43.9692 189.359 43.8301 189.066C42.5791 185.75 51.6487 182.021 55.4278 179.53C55.4278 179.53 46.2547 184.212 44.4365 185.845C42.8293 187.288 42.7137 188.16 42.7137 188.16L42.52 189.379C42.56 188.788 42.573 188.26 42.7137 188.16C42.6964 188.263 43.8422 189.043 43.857 189.198Z" fill="#1C60DD"/>
<path d="M66.4073 202.996C65.6618 202.349 56.1492 197.878 49.571 193.835C49.962 194.088 50.3103 194.31 50.584 194.496L66.1657 226.702C66.494 226.881 66.7417 227.024 66.931 227.115L69.2332 228.298V207.61C69.2045 207.586 69.4625 204.73 66.4073 202.996Z" fill="#1C60DD"/>
<path opacity="0.3" d="M43.1826 212.108C42.8263 211.354 42.5866 210.547 42.4719 209.717C42.5069 210.563 42.7515 211.386 43.1826 212.108Z" fill="url(#paint9_linear_2004_3205)"/>
<path d="M49.5711 193.834C47.2429 192.418 45.3143 191.024 44.3587 189.871C44.1712 189.663 44.0031 189.438 43.8566 189.198C43.8392 189.043 42.7272 188.154 42.7567 188.047C42.616 188.148 42.5265 188.774 42.4866 189.369L42.517 209.712C42.6299 211.219 42.7429 211.277 43.132 212.108C43.7011 213.014 43.9825 213.358 44.9972 214.289C47.3793 215.784 62.1288 224.455 66.1867 226.7L50.5841 194.487L49.5711 193.834Z" fill="#1C60DD"/>
<path opacity="0.2" d="M49.5451 193.82C47.2168 192.404 45.2883 191.009 44.3326 189.857C44.1535 189.648 43.9941 189.422 43.8566 189.183C43.8392 189.029 42.7229 188.14 42.7567 188.033C42.6873 188.102 42.5578 188.899 42.5178 189.492L42.4866 209.772C42.543 211.039 42.7837 211.39 43.1381 212.146C43.6455 213.015 44.2979 213.664 45.0337 214.275C47.4167 215.77 62.1036 224.441 66.1614 226.686L50.558 194.473L49.5451 193.82Z" fill="url(#paint10_linear_2004_3205)"/>
<path fill-rule="evenodd" clip-rule="evenodd" d="M65.8781 211.378L62.6404 209.324C62.0653 208.981 61.5111 209.203 61.7951 209.809V215.335C61.9333 215.54 62.2122 216.202 62.0827 216.535C61.6188 216.512 63.9244 218.5 65.2275 219.249C65.6071 219.468 66.3152 219.559 66.2604 218.658V212.093C66.2621 211.95 66.2273 211.809 66.1597 211.684C66.0929 211.559 65.996 211.454 65.8781 211.378Z" fill="#B0B5BE"/>
<path fill-rule="evenodd" clip-rule="evenodd" d="M65.7404 211.71C65.2366 211.065 63.5529 210.075 62.4105 209.227C62.123 209.011 61.6226 209.165 61.6287 209.523C61.7008 213.705 61.7155 215.629 61.9509 216.448C62.1247 217.073 64.0317 218.386 65.1158 219.126C65.4381 219.351 65.8734 219.404 65.8872 218.999C65.9481 217.241 65.8872 213.162 65.8872 212.119C65.8823 211.969 65.8298 211.825 65.7379 211.708L65.7404 211.71Z" fill="white"/>
<rect x="139.551" y="48.5779" width="121.348" height="121.445" fill="white"/>
<g clip-path="url(#clip1_2004_3205)">
<path d="M215.145 98.5896H209.842V119.798H215.145V98.5896Z" fill="#231F20"/>
<path fill-rule="evenodd" clip-rule="evenodd" d="M168.598 93.5125H158.335L157.753 94.0672V103.944H159.092V95.3112L159.632 94.7953H168.598V93.5125Z" fill="#231F20"/>
<path fill-rule="evenodd" clip-rule="evenodd" d="M231.851 124.726H242.117L242.697 124.171V114.295H241.357V122.928L240.817 123.443H231.851V124.726Z" fill="#231F20"/>
<path fill-rule="evenodd" clip-rule="evenodd" d="M175.022 106.523H173.426V108.122V110.264H171.181V108.122H173.426V106.523H169.585V111.893H175.022V110.264V108.122V106.523Z" fill="#231F20"/>
<path fill-rule="evenodd" clip-rule="evenodd" d="M161.323 119.323L161.747 119.8H175.075V119.138V114.655H166.909V99.2511V98.7229H161.747L161.35 99.1585L161.323 119.323Z" fill="#231F20"/>
<path fill-rule="evenodd" clip-rule="evenodd" d="M182.897 98.7222H169.586V99.25V103.984H177.835V125.088H183.324V103.984V99.1577L182.897 98.7222Z" fill="#231F20"/>
<path fill-rule="evenodd" clip-rule="evenodd" d="M185.626 98.5898H207.582V111.5H198.433L207.521 119.798H199.549L190.742 111.288V119.798H185.626V106.709H201.721V103.494H185.626C185.626 103.494 185.656 98.5898 185.626 98.5898Z" fill="#231F20"/>
<path fill-rule="evenodd" clip-rule="evenodd" d="M239.153 103.676V98.644H217.474V111.59H232.06V114.713H217.474V119.748H239.153V106.558H224.57V103.676H239.153Z" fill="#231F20"/>
</g>
<rect x="418.652" y="64.3657" width="121.348" height="121.445" fill="url(#paint11_linear_2004_3205)"/>
<path d="M496.306 141.18C493.926 141.18 491.687 140.252 490.004 138.568L480.903 129.46C480.264 128.819 479.151 128.821 478.512 129.46L469.378 138.601C467.695 140.285 465.456 141.213 463.076 141.213H461.282L472.808 152.748C476.408 156.35 482.244 156.35 485.844 152.748L497.402 141.18H496.306Z" fill="#32BCAD"/>
<path d="M463.075 108.964C465.456 108.964 467.695 109.891 469.378 111.575L478.512 120.717C479.169 121.376 480.243 121.379 480.903 120.717L490.003 111.608C491.687 109.924 493.925 108.997 496.306 108.997H497.402L485.843 97.429C482.243 93.8264 476.407 93.8264 472.808 97.429L461.282 108.964L463.075 108.964Z" fill="#32BCAD"/>
<path d="M506.963 118.565L499.978 111.575C499.824 111.636 499.658 111.675 499.482 111.675H496.306C494.664 111.675 493.057 112.341 491.897 113.503L482.797 122.611C481.945 123.463 480.826 123.889 479.708 123.889C478.589 123.889 477.471 123.463 476.619 122.612L467.485 113.47C466.325 112.308 464.717 111.641 463.076 111.641H459.17C459.004 111.641 458.848 111.602 458.701 111.547L451.689 118.565C448.089 122.168 448.089 128.008 451.689 131.611L458.701 138.629C458.848 138.573 459.004 138.534 459.17 138.534H463.076C464.717 138.534 466.325 137.868 467.485 136.706L476.619 127.565C478.269 125.914 481.147 125.914 482.797 127.566L491.897 136.673C493.057 137.835 494.664 138.501 496.306 138.501H499.482C499.658 138.501 499.824 138.54 499.978 138.601L506.963 131.611C510.563 128.008 510.563 122.168 506.963 118.565Z" fill="#32BCAD"/>
<rect x="418.652" y="204.027" width="121.348" height="121.445" fill="url(#paint12_linear_2004_3205)"/>
<path d="M504.308 248.315L481.028 234.844C480.509 234.545 479.921 234.388 479.323 234.388C478.724 234.388 478.136 234.545 477.617 234.844L454.338 248.315C453.819 248.615 453.388 249.047 453.088 249.568C452.788 250.088 452.63 250.678 452.629 251.279V278.22C452.629 279.437 453.283 280.57 454.338 281.184L477.617 294.655C478.137 294.955 478.726 295.112 479.326 295.111C479.926 295.111 480.516 294.951 481.034 294.655L504.314 281.184C504.833 280.884 505.263 280.452 505.563 279.932C505.863 279.412 506.021 278.822 506.023 278.221V251.279C506.023 250.064 505.368 248.929 504.314 248.315H504.308ZM479.85 263.079C479.69 263.172 479.508 263.22 479.323 263.22C479.138 263.22 478.956 263.172 478.795 263.079L456.164 249.984L478.795 236.895C478.957 236.805 479.138 236.758 479.323 236.758C479.507 236.758 479.689 236.805 479.85 236.895L502.482 249.987L479.85 263.079ZM477.617 265.121C477.782 265.217 477.959 265.298 478.148 265.364V292.221L455.516 279.136C455.356 279.043 455.222 278.91 455.129 278.749C455.036 278.589 454.987 278.407 454.986 278.221V252.029L477.617 265.121Z" fill="black"/>
<rect y="276.894" width="121.348" height="121.445" fill="url(#paint13_linear_2004_3205)"/>
<path d="M74.243 305.302C101.549 301.251 84.0546 324.222 75.5928 330.682C81.407 335.092 87.3771 341.296 89.9208 348.321C94.6449 361.19 83.0164 363.087 74.243 359.857C64.6391 356.524 56.1772 349.397 50.5706 341.04C49.0132 341.04 47.3001 340.783 45.6907 340.322C48.8574 349.141 50.2072 358.165 49.3247 365.549C49.3247 350.679 42.1606 335.912 31.8299 323.607C28.196 319.3 31.9337 316.121 35.2043 320.274C37.4365 323.299 39.4612 326.427 41.2781 329.657C44.8601 317.556 62.303 306.994 74.243 305.302ZM70.3495 327.196C75.6966 323.965 91.9454 306.737 76.7868 308.276C68.0653 309.25 57.475 317.197 53.1143 322.325C59.1882 321.607 65.3659 324.222 70.3495 327.196ZM55.2947 340.578C60.1745 345.962 66.8194 351.192 73.9835 353.089C78.1365 354.166 82.7049 353.704 81.0437 347.859C79.3305 342.475 74.9698 337.758 70.7129 334.169C69.5189 334.989 68.1692 335.861 66.8194 336.425C63.1855 338.425 59.292 339.86 55.2947 340.578Z" fill="#EBA12A"/>
<path d="M52.959 326.119C57.112 325.76 61.5766 327.913 65.0029 330.067C61.7323 331.605 58.0984 332.579 54.3087 332.784C48.754 332.836 47.6119 326.632 52.959 326.119Z" fill="white"/>
<rect x="139.551" y="188.239" width="121.348" height="121.445" fill="white"/>
<path d="M188.446 244.115L200.23 232.327L212.019 244.125L218.872 237.262L200.23 218.6L181.588 237.257L188.446 244.115Z" fill="#F3BA2F"/>
<path d="M169.888 248.962L176.743 242.102L183.598 248.962L176.743 255.823L169.888 248.962Z" fill="#F3BA2F"/>
<path d="M188.445 253.808L200.23 265.601L212.019 253.803L218.876 260.657L218.872 260.662L200.23 279.323L181.588 260.671L181.578 260.662L188.445 253.808Z" fill="#F3BA2F"/>
<path d="M216.85 248.964L223.705 242.104L230.56 248.964L223.705 255.825L216.85 248.964Z" fill="#F3BA2F"/>
<path d="M207.183 248.959L200.23 241.995L195.088 247.141L194.493 247.731L193.276 248.949L193.266 248.959L193.276 248.973L200.23 255.927L207.183 248.963L207.188 248.959H207.183Z" fill="#F3BA2F"/>
<rect x="139.551" y="327.901" width="121.348" height="121.445" fill="white"/>
<g clip-path="url(#clip2_2004_3205)">
<path d="M242.389 383.156C241.619 380.948 239.519 379.362 237.052 379.362H237C235.397 379.362 233.952 380.031 232.923 381.105C231.893 380.031 230.448 379.362 228.846 379.362H228.794C227.385 379.362 226.096 379.88 225.107 380.736V380.3C225.073 379.867 224.717 379.526 224.277 379.526H220.494C220.031 379.526 219.657 379.901 219.657 380.366V400.956C219.657 401.422 220.031 401.796 220.494 401.796H224.277C224.699 401.796 225.046 401.481 225.101 401.072L225.1 386.291C225.1 386.239 225.101 386.191 225.107 386.143C225.167 385.483 225.65 384.941 226.411 384.873H226.552H226.949H227.109C227.427 384.902 227.696 385.014 227.908 385.184C228.237 385.446 228.421 385.849 228.421 386.291L228.435 400.999C228.435 401.465 228.81 401.841 229.271 401.841H233.055C233.501 401.841 233.865 401.484 233.886 401.04L233.884 386.271C233.882 385.786 234.107 385.348 234.5 385.087C234.694 384.962 234.927 384.879 235.196 384.854H235.336H235.733H235.893C236.712 384.925 237.207 385.547 237.205 386.271L237.219 400.96C237.219 401.425 237.595 401.8 238.056 401.8H241.839C242.3 401.8 242.676 401.425 242.676 400.96V385.162C242.676 384.085 242.555 383.627 242.389 383.156Z" fill="#54C1F0"/>
<path d="M216.775 379.58H214.611V376.067C214.611 376.063 214.611 376.06 214.611 376.056C214.611 375.633 214.269 375.291 213.847 375.291C213.798 375.291 213.749 375.298 213.703 375.307C211.304 375.967 211.785 379.297 207.405 379.58H207.307H206.98C206.916 379.58 206.855 379.589 206.796 379.602C206.423 379.685 206.141 380.019 206.141 380.418V384.21C206.141 384.672 206.517 385.048 206.98 385.048H209.263L209.259 401.126C209.259 401.584 209.63 401.955 210.087 401.955H213.828C214.283 401.955 214.654 401.584 214.654 401.126L214.655 385.048H216.775C217.236 385.048 217.611 384.672 217.611 384.21V380.418C217.611 379.957 217.236 379.58 216.775 379.58Z" fill="#54C1F0"/>
<path d="M203.162 379.58H199.378C198.917 379.58 198.544 379.957 198.544 380.418V388.258C198.535 388.743 198.143 389.132 197.657 389.132H196.074C195.582 389.132 195.185 388.736 195.185 388.244L195.171 380.418C195.171 379.957 194.796 379.58 194.335 379.58H190.551C190.088 379.58 189.715 379.957 189.715 380.418V389.011C189.715 392.275 192.037 394.602 195.296 394.602C195.296 394.602 197.741 394.602 197.816 394.616C198.257 394.666 198.601 395.037 198.601 395.494C198.601 395.945 198.264 396.314 197.828 396.369C197.807 396.373 197.787 396.378 197.764 396.382L192.231 396.402C191.768 396.402 191.395 396.778 191.395 397.24V401.03C191.395 401.493 191.768 401.868 192.231 401.868H198.417C201.678 401.868 203.998 399.542 203.998 396.277V380.418C203.998 379.957 203.625 379.58 203.162 379.58Z" fill="#233266"/>
<path d="M166.539 386.528V388.297V388.867C166.539 389.358 166.142 389.757 165.653 389.757L163.252 389.759V385.071H165.653C166.142 385.071 166.539 385.466 166.539 385.959V386.528ZM166.872 379.579H158.602C158.148 379.579 157.781 379.949 157.781 380.402V384.116C157.781 384.124 157.783 384.131 157.783 384.138C157.783 384.156 157.781 384.173 157.781 384.19V396.105V401.004C157.781 401.46 158.123 401.833 158.547 401.844H158.618H162.402C162.862 401.844 163.238 401.469 163.238 401.006L163.252 395.243H166.872C169.901 395.243 172.012 393.137 172.012 390.089V384.741C172.012 381.693 169.901 379.579 166.872 379.579Z" fill="#233266"/>
<path d="M182.238 395.429V396.021C182.238 396.069 182.231 396.116 182.224 396.16C182.215 396.203 182.203 396.244 182.188 396.283C182.071 396.615 181.74 396.856 181.346 396.856H179.771C179.28 396.856 178.88 396.481 178.88 396.021V395.306C178.88 395.297 178.878 395.288 178.878 395.279L178.88 393.376V393.373V393.162V392.781L178.882 392.775C178.883 392.317 179.28 391.946 179.771 391.946H181.346C181.839 391.946 182.238 392.319 182.238 392.781V395.429ZM181.637 379.601H176.387C175.922 379.601 175.547 379.954 175.547 380.388V381.862C175.547 381.871 175.548 381.882 175.548 381.891C175.548 381.902 175.547 381.912 175.547 381.923V383.944C175.547 384.402 175.945 384.777 176.436 384.777H181.435C181.831 384.839 182.144 385.128 182.188 385.579V386.068C182.144 386.498 181.834 386.811 181.457 386.847H178.981C175.689 386.847 173.343 389.039 173.343 392.117V396.413V396.526C173.343 399.586 175.36 401.764 178.629 401.764H185.49C186.721 401.764 187.72 400.829 187.72 399.679V385.292C187.72 381.804 185.926 379.601 181.637 379.601Z" fill="#233266"/>
</g>
<rect x="279.101" y="275.679" width="121.348" height="121.445" fill="white"/>
<path fill-rule="evenodd" clip-rule="evenodd" d="M339.775 306.041C356.53 306.041 370.112 319.634 370.112 336.402C370.112 353.17 356.53 366.763 339.775 366.763C323.021 366.763 309.438 353.17 309.438 336.402C309.438 319.634 323.021 306.041 339.775 306.041Z" fill="#F01010"/>
<path fill-rule="evenodd" clip-rule="evenodd" d="M338.483 326.559H335.913C335.493 326.511 334.979 326.511 334.465 326.465C334.326 326.511 334.277 326.653 334.23 326.839C334.184 327.027 334.23 327.167 334.326 327.307L334.886 327.354C335.585 327.493 336.099 327.634 336.428 327.775C336.754 327.961 336.987 328.289 337.082 328.71C337.175 329.131 337.221 329.692 337.175 330.394C337.127 331.376 337.082 332.544 337.035 333.901C336.987 335.258 336.894 336.661 336.8 338.111C336.708 340.354 336.507 345.818 335.897 347.435C335.756 347.809 335.524 348.044 335.243 348.186C334.915 348.324 334.54 348.465 334.073 348.513L333.323 348.606C333.183 348.699 333.136 348.841 333.183 349.075C333.183 349.216 333.23 349.355 333.37 349.496C333.978 349.45 334.54 349.402 335.148 349.355H338.846C339.547 349.402 340.156 349.45 340.718 349.496C340.859 349.402 340.952 349.262 340.952 349.075C340.952 348.886 340.906 348.747 340.764 348.606L339.455 348.513C339.032 348.465 338.705 348.372 338.472 348.186C338.354 348.091 338.26 347.96 338.19 347.801C337.914 347.137 337.908 346.012 337.922 345.313C337.952 343.863 337.97 342.414 338.016 340.964C338.063 339.514 338.11 338.25 338.155 337.175C338.201 336.193 338.297 335.163 338.342 334.134C338.389 333.107 338.435 332.077 338.483 331.048H338.576C338.95 331.843 339.325 332.638 339.652 333.526C340.026 334.369 340.4 335.211 340.772 336.007L343.904 342.693C344.186 343.256 344.512 343.957 344.885 344.799C345.306 345.687 345.726 346.528 346.101 347.37C346.298 347.816 346.469 348.233 346.614 348.626C346.652 348.626 346.914 349.488 346.943 349.588C347.123 349.771 347.418 349.766 347.598 349.588C347.889 348.891 348.192 348.186 348.53 347.512C349.415 345.523 350.339 343.625 351.381 341.712L354.419 335.679C354.653 335.163 354.886 334.602 355.213 333.995C355.541 333.34 355.867 332.732 356.148 332.218C356.381 331.656 356.568 331.282 356.661 331.142H356.708L356.803 345.595C356.848 346.342 356.803 346.901 356.756 347.323C356.718 347.657 356.624 347.975 356.303 348.139C356.115 348.372 355.741 348.465 355.133 348.513L354.103 348.606C354.009 348.699 353.963 348.841 354.009 349.075C354.009 349.216 354.056 349.355 354.198 349.496C354.898 349.45 355.646 349.402 356.348 349.355H360.375C361.075 349.402 361.777 349.45 362.481 349.496C362.622 349.402 362.667 349.262 362.667 349.075C362.714 348.886 362.667 348.747 362.574 348.606L361.451 348.513C360.936 348.465 360.561 348.324 360.326 348.09C360.095 347.857 359.907 347.575 359.86 347.201C359.812 346.78 359.765 346.263 359.765 345.702C359.67 343.962 359.605 342.194 359.559 340.45C359.512 338.577 359.418 336.801 359.372 335.119V330.674C359.372 329.879 359.418 329.271 359.512 328.803C359.607 328.383 359.84 328.009 360.166 327.775C360.494 327.588 361.054 327.447 361.802 327.354L362.504 327.307C362.598 327.213 362.644 327.073 362.598 326.839C362.598 326.698 362.551 326.559 362.457 326.465C361.896 326.511 361.335 326.511 360.821 326.559H358.298C357.876 326.511 357.408 326.511 356.803 326.465C356.756 327.259 356.475 328.149 356.054 329.178C355.541 330.252 354.934 331.564 354.186 333.107L350.914 339.7C350.065 341.496 349.293 343.204 348.253 344.906H348.16C347.333 343.344 346.57 341.724 345.82 340.122L341.849 332.17C341.335 331.048 340.867 329.973 340.493 328.991C340.166 328.009 340.026 327.167 340.073 326.465C339.512 326.511 338.997 326.511 338.483 326.559ZM319.308 344.337C319.308 345.528 319.261 346.435 319.166 347.056C319.072 348.259 318.279 348.652 317.16 348.729L316.444 348.825C316.214 349.056 316.232 349.558 316.494 349.731C317.971 349.639 319.306 349.587 320.788 349.587C322.367 349.587 323.84 349.657 325.415 349.731C325.51 349.636 325.559 349.493 325.607 349.302C325.607 349.064 325.559 348.919 325.463 348.825L324.509 348.729C323.745 348.68 323.221 348.537 322.935 348.298C322.918 348.286 322.9 348.273 322.884 348.259C322.595 348.02 322.388 347.653 322.302 347.086C322.207 346.466 322.159 345.56 322.207 344.371V341.031C321.158 341.079 320.206 341.031 319.348 340.888L319.308 344.337ZM316.25 326.919C316.204 327.109 316.299 327.252 316.442 327.396L317.681 327.537C318.205 327.586 318.586 327.728 318.824 327.967C319.062 328.157 319.206 328.492 319.253 329.016C319.301 329.54 319.348 330.305 319.348 331.304V338.361C320.301 338.409 321.253 338.409 322.207 338.361V328.634C322.159 328.253 322.207 327.967 322.302 327.728C322.349 327.586 322.54 327.441 322.778 327.396C323.064 327.348 323.541 327.348 324.16 327.348C325.97 327.396 327.352 327.872 328.352 328.873C329.305 329.873 329.781 331.257 329.781 332.975C329.83 334.499 329.448 335.787 328.638 336.835C327.924 337.742 326.876 338.409 325.446 338.742C324.065 339.076 322.112 339.22 319.491 339.171C317.204 339.126 314.727 338.982 312.011 338.696C315.014 339.315 317.252 339.744 318.682 339.886C321.015 340.174 323.302 340.125 325.446 339.793C326.541 339.648 327.542 339.363 328.448 339.03C329.305 338.649 330.163 338.124 331.068 337.503C331.592 337.122 332.068 336.5 332.498 335.691C332.832 334.928 333.022 334.022 333.068 332.925C333.022 331.733 332.736 330.686 332.212 329.779C331.687 328.873 331.068 328.157 330.258 327.635C329.448 327.157 328.448 326.774 327.304 326.536C326.208 326.346 324.922 326.25 323.445 326.25C322.016 326.25 320.729 326.25 319.587 326.298C318.443 326.346 317.395 326.393 316.489 326.489C316.347 326.585 316.25 326.727 316.25 326.919Z" fill="white"/>
<rect x="418.652" y="343.688" width="121.348" height="121.445" fill="url(#paint14_linear_2004_3205)"/>
<path fill-rule="evenodd" clip-rule="evenodd" d="M448.638 405.47H444.407C443.852 405.47 443.349 405.905 443.223 406.502L442.24 411.309C442.064 412.124 442.795 412.912 443.55 412.912H456.245C457.303 412.912 458.235 412.07 458.386 410.929L459.419 404.112L460.225 398.761C460.452 397.322 459.419 396.045 458.084 396.045H445.867C445.263 396.045 444.759 396.507 444.658 397.132L444.558 397.865C444.432 398.653 445.011 399.386 445.767 399.386H449.243C450.704 399.386 451.812 400.826 451.535 402.347L451.384 403.65C451.182 404.845 450.351 405.497 449.218 405.497" fill="#1B7FC1"/>
<path fill-rule="evenodd" clip-rule="evenodd" d="M438.991 410.141H436.875C436.371 410.141 435.918 410.467 435.792 410.902L435.59 411.635C435.414 412.26 435.943 412.885 436.673 412.885H438.789C439.293 412.885 439.746 412.559 439.872 412.124L440.074 411.391C440.25 410.739 439.721 410.141 438.991 410.141Z" fill="#1B7FC1"/>
<path fill-rule="evenodd" clip-rule="evenodd" d="M439.797 405.497H434.532C434.028 405.497 433.575 405.877 433.449 406.393L433.248 407.235C433.071 407.969 433.6 408.675 434.331 408.675H439.595C440.099 408.675 440.552 408.295 440.678 407.779L440.88 406.937C441.056 406.23 440.527 405.497 439.797 405.497Z" fill="#1B7FC1"/>
<path fill-rule="evenodd" clip-rule="evenodd" d="M437.001 399.278H441.056C441.56 399.278 442.014 398.897 442.139 398.354L442.341 397.485C442.517 396.725 441.988 395.991 441.258 395.991H437.203C436.699 395.991 436.245 396.371 436.119 396.915L435.918 397.784C435.767 398.544 436.296 399.278 437.001 399.278Z" fill="#1B7FC1"/>
<path fill-rule="evenodd" clip-rule="evenodd" d="M437.48 401.722L437.278 402.591C437.102 403.352 437.631 404.085 438.361 404.085H446.296C446.799 404.085 447.253 403.705 447.379 403.162L447.58 402.293C447.757 401.532 447.228 400.799 446.497 400.799H438.563C438.059 400.799 437.606 401.179 437.48 401.722Z" fill="#1B7FC1"/>
<path d="M464.809 395.91H470.174C473.927 395.91 476.093 398.001 476.093 401.532C476.093 405.144 473.902 407.208 470.174 407.208H468.184V412.803H464.809V395.91ZM470.098 404.248C471.685 404.248 472.642 403.27 472.642 401.586C472.642 399.902 471.685 398.925 470.098 398.925H468.159V404.275H470.098V404.248Z" fill="#1B7FC1"/>
<path d="M484.909 409.191H478.788L477.705 412.803H474.179L479.771 395.91H484.204L489.796 412.803H486.017L484.909 409.191ZM484.078 406.502L481.912 399.359H481.735L479.569 406.502H484.078Z" fill="#1B7FC1"/>
<path d="M491.484 406.421L485.943 395.937H489.721L493.121 402.999H493.323L496.799 395.937H500.35L494.834 406.421V412.83H491.484V406.421Z" fill="#1B7FC1"/>
<path d="M504.431 398.924H500.048L501.61 395.937H512.189V398.924H507.781V412.83H504.431V398.924Z" fill="#494F57"/>
<path d="M521.76 412.83L518.738 407.236H518.637H516.647V412.83H513.297V395.937H518.663C522.416 395.937 524.581 398.028 524.581 401.559C524.581 404.058 523.549 405.823 521.634 406.665L525.438 412.83H521.76ZM516.647 404.248H518.587C520.173 404.248 521.131 403.243 521.131 401.559C521.131 399.902 520.173 398.924 518.587 398.924H516.647V404.248Z" fill="#494F57"/>
<defs>
<linearGradient id="paint0_linear_2004_3205" x1="60.6742" y1="0" x2="60.6742" y2="119.016" gradientUnits="userSpaceOnUse">
<stop stop-color="white" stop-opacity="0"/>
<stop offset="1" stop-color="white"/>
</linearGradient>
<linearGradient id="paint1_linear_2004_3205" x1="339.775" y1="0" x2="339.775" y2="117.801" gradientUnits="userSpaceOnUse">
<stop stop-color="white" stop-opacity="0"/>
<stop offset="1" stop-color="white"/>
</linearGradient>
<linearGradient id="paint2_linear_2004_3205" x1="60.6742" y1="416.555" x2="60.6742" y2="538" gradientUnits="userSpaceOnUse">
<stop stop-color="white"/>
<stop offset="1" stop-color="white" stop-opacity="0"/>
</linearGradient>
<linearGradient id="paint3_linear_2004_3205" x1="200.225" y1="467.562" x2="200.225" y2="538" gradientUnits="userSpaceOnUse">
<stop stop-color="white"/>
<stop offset="1" stop-color="white" stop-opacity="0"/>
</linearGradient>
<linearGradient id="paint4_linear_2004_3205" x1="339.775" y1="415.341" x2="339.775" y2="536.786" gradientUnits="userSpaceOnUse">
<stop stop-color="white"/>
<stop offset="1" stop-color="white" stop-opacity="0"/>
</linearGradient>
<linearGradient id="paint5_linear_2004_3205" x1="479.326" y1="483.35" x2="479.326" y2="538" gradientUnits="userSpaceOnUse">
<stop stop-color="white"/>
<stop offset="1" stop-color="white" stop-opacity="0"/>
</linearGradient>
<linearGradient id="paint6_linear_2004_3205" x1="479.326" y1="0" x2="479.326" y2="46.149" gradientUnits="userSpaceOnUse">
<stop stop-color="white" stop-opacity="0"/>
<stop offset="1" stop-color="white"/>
</linearGradient>
<linearGradient id="paint7_linear_2004_3205" x1="200.225" y1="0" x2="200.225" y2="30.3612" gradientUnits="userSpaceOnUse">
<stop stop-color="white" stop-opacity="0"/>
<stop offset="1" stop-color="white"/>
</linearGradient>
<linearGradient id="paint8_linear_2004_3205" x1="8.54263" y1="193.284" x2="54.2965" y2="228.271" gradientUnits="userSpaceOnUse">
<stop stop-color="white"/>
<stop offset="1" stop-color="#F6F9FF"/>
</linearGradient>
<linearGradient id="paint9_linear_2004_3205" x1="53.1765" y1="198.667" x2="42.6221" y2="210.488" gradientUnits="userSpaceOnUse">
<stop/>
<stop offset="1" stop-color="#1C60DD" stop-opacity="0"/>
</linearGradient>
<linearGradient id="paint10_linear_2004_3205" x1="58.0952" y1="203.06" x2="47.5409" y2="214.881" gradientUnits="userSpaceOnUse">
<stop offset="0.19"/>
<stop offset="1" stop-color="#1C60DD" stop-opacity="0"/>
</linearGradient>
<linearGradient id="paint11_linear_2004_3205" x1="427.194" y1="120.417" x2="472.948" y2="155.404" gradientUnits="userSpaceOnUse">
<stop stop-color="white"/>
<stop offset="1" stop-color="#F6F9FF"/>
</linearGradient>
<linearGradient id="paint12_linear_2004_3205" x1="427.194" y1="260.078" x2="472.948" y2="295.065" gradientUnits="userSpaceOnUse">
<stop stop-color="white"/>
<stop offset="1" stop-color="#F6F9FF"/>
</linearGradient>
<linearGradient id="paint13_linear_2004_3205" x1="8.54263" y1="332.945" x2="54.2965" y2="367.932" gradientUnits="userSpaceOnUse">
<stop stop-color="white"/>
<stop offset="1" stop-color="#F6F9FF"/>
</linearGradient>
<linearGradient id="paint14_linear_2004_3205" x1="427.194" y1="399.74" x2="472.948" y2="434.727" gradientUnits="userSpaceOnUse">
<stop stop-color="white"/>
<stop offset="1" stop-color="#F6F9FF"/>
</linearGradient>
<clipPath id="clip0_2004_3205">
<rect width="84.9438" height="14.5734" fill="white" transform="translate(297.303 187.025)"/>
</clipPath>
<clipPath id="clip1_2004_3205">
<rect width="84.9438" height="31.5756" fill="white" transform="translate(157.753 93.5125)"/>
</clipPath>
<clipPath id="clip2_2004_3205">
<rect width="84.9438" height="26.7178" fill="white" transform="translate(157.753 375.264)"/>
</clipPath>
</defs>
</svg>
