<?xml version="1.0" encoding="UTF-8"?>
<svg xmlns="http://www.w3.org/2000/svg" width="350" height="336" viewBox="0 0 350 336" fill="none">
  <path d="M75.1422 289.5C60.8885 269.649 52.5 245.332 52.5 219.062C52.5 152.132 106.953 97.875 174.125 97.875C241.297 97.875 295.75 152.132 295.75 219.062C295.75 245.332 287.361 269.649 273.108 289.5M36.8692 289.5C26.1636 268.498 20.125 244.706 20.125 219.5C20.125 134.448 88.8773 65.5 173.688 65.5C258.498 65.5 327.25 134.448 327.25 219.5C327.25 244.706 321.211 268.498 310.506 289.5" stroke="#1B1C1E" stroke-dasharray="2 4"></path>
  <g style="mix-blend-mode:overlay">
    <path d="M130.837 169.551H129.804M101.901 178.079V177.551C101.901 173.133 105.483 169.551 109.901 169.551H127.737" stroke="#DBE8FC" stroke-linecap="round"></path>
  </g>
  <rect x="84.875" y="167.607" width="170.817" height="122.012" rx="6" fill="#1B1C1E" stroke="#1B1C1E"></rect>
  <path d="M86.5771 173.282C86.5771 170.148 89.1179 167.607 92.2521 167.607H252.854C255.988 167.607 258.529 170.148 258.529 173.282V283.944C258.529 287.079 255.988 289.619 252.854 289.619H92.2521C89.1179 289.619 86.5771 287.079 86.5771 283.944V173.282Z" fill="white" stroke="#1B1C1E"></path>
  <path d="M28.5 289.6H321M26 289.6H23" stroke="#1B1C1E" stroke-linecap="round" stroke-linejoin="round"></path>
  <path d="M94.834 281.514L110.572 265.787L117.687 272.895L140.108 250.493L150.025 260.402L174.983 235.443" stroke="#1B1C1E" stroke-linecap="round" stroke-linejoin="round" stroke-dasharray="2 4"></path>
  <path d="M175.494 235.751L167.65 232.731C167.202 232.562 166.887 232.085 167.106 231.657C167.245 231.387 167.431 231.22 167.637 231.145C173.414 229.068 179.193 226.996 184.904 224.95C185.224 224.836 185.594 224.808 185.867 225.012C186.475 225.464 186.156 226.121 185.968 226.696C185.115 229.211 184.203 231.711 183.316 234.218C182.253 237.219 181.187 240.226 180.141 243.224C179.979 243.685 179.842 244.126 179.382 244.354C179.192 244.375 179.001 244.326 178.844 244.216C178.687 244.106 178.576 243.943 178.529 243.756C177.582 241.229 176.46 238.294 175.494 235.751Z" fill="#0F67EA"></path>
  <path d="M183.952 227.35L175.494 235.751M175.494 235.751L167.65 232.731C167.202 232.562 166.887 232.085 167.106 231.657C167.245 231.387 167.431 231.22 167.637 231.145C173.414 229.068 179.193 226.996 184.904 224.95C185.224 224.836 185.594 224.808 185.867 225.012C186.475 225.464 186.156 226.121 185.968 226.696C185.115 229.211 184.203 231.711 183.316 234.218C182.253 237.219 181.187 240.226 180.141 243.224C179.979 243.685 179.842 244.126 179.382 244.354C179.192 244.375 179.001 244.326 178.844 244.216C178.687 244.106 178.576 243.943 178.529 243.756C177.582 241.229 176.46 238.294 175.494 235.751Z" stroke="#1B1C1E" stroke-linecap="round" stroke-linejoin="round"></path>
  <g style="mix-blend-mode:screen">
    <path d="M176.811 229.229L176.449 229.353M169.39 231.776L175.544 229.664" stroke="#0F67EA" stroke-opacity="0.8" stroke-linecap="round" stroke-linejoin="round"></path>
  </g>
  <g style="mix-blend-mode:multiply">
    <path d="M184.622 225.09C185.045 225.487 184.862 226.015 184.692 226.508C184.67 226.571 184.648 226.634 184.628 226.696C184.03 228.459 183.403 230.215 182.776 231.971C182.509 232.72 182.241 233.468 181.976 234.218L181.828 234.635C180.814 237.498 179.799 240.365 178.801 243.224C178.794 243.245 178.787 243.265 178.78 243.286C178.729 243.431 178.679 243.573 178.619 243.707C178.625 243.723 178.632 243.74 178.638 243.756C178.684 243.943 178.796 244.106 178.953 244.216C179.109 244.326 179.3 244.375 179.49 244.354C179.93 244.136 180.075 243.724 180.228 243.286C180.235 243.265 180.242 243.245 180.249 243.224C181.247 240.365 182.262 237.498 183.276 234.635L183.424 234.218C183.689 233.468 183.957 232.72 184.224 231.971C184.851 230.215 185.478 228.459 186.076 226.696C186.096 226.634 186.118 226.571 186.14 226.508C186.322 225.982 186.518 225.415 185.976 225.012C185.702 224.808 185.333 224.836 185.012 224.95C184.882 224.997 184.752 225.044 184.622 225.09Z" fill="#0F67EA" fill-opacity="0.5"></path>
  </g>
  <ellipse cx="110.975" cy="265.886" rx="2.10567" ry="2.10521" fill="#AAE2CB" stroke="#1B1C1E"></ellipse>
  <g style="mix-blend-mode:overlay">
    <path d="M109.516 265.939C109.516 265.39 109.809 264.909 110.247 264.645M111.025 264.43C110.997 264.43 110.969 264.43 110.942 264.432" stroke="#AAE2CB" stroke-linecap="round"></path>
  </g>
  <g style="mix-blend-mode:color-burn">
    <path d="M110.327 267.346C111.49 267.346 112.433 266.404 112.433 265.241C112.433 264.825 112.312 264.438 112.104 264.111C112.69 264.485 113.079 265.141 113.079 265.888C113.079 267.05 112.136 267.993 110.973 267.993C110.226 267.993 109.57 267.604 109.196 267.017C109.523 267.226 109.911 267.346 110.327 267.346Z" fill="#AAE2CB"></path>
  </g>
  <ellipse cx="118.304" cy="273.213" rx="2.10567" ry="2.10521" fill="#AAE2CB" stroke="#1B1C1E"></ellipse>
  <g style="mix-blend-mode:overlay">
    <path d="M116.845 273.265C116.845 272.716 117.138 272.235 117.576 271.971M118.354 271.756C118.326 271.756 118.299 271.757 118.271 271.758" stroke="#AAE2CB" stroke-linecap="round"></path>
  </g>
  <g style="mix-blend-mode:color-burn">
    <path d="M117.656 274.672C118.819 274.672 119.762 273.73 119.762 272.567C119.762 272.151 119.641 271.764 119.433 271.438C120.019 271.811 120.408 272.467 120.408 273.214C120.408 274.377 119.465 275.319 118.303 275.319C117.555 275.319 116.899 274.93 116.525 274.344C116.852 274.552 117.24 274.672 117.656 274.672Z" fill="#AAE2CB"></path>
  </g>
  <ellipse cx="140.29" cy="250.371" rx="2.10567" ry="2.10521" fill="#AAE2CB" stroke="#1B1C1E"></ellipse>
  <g style="mix-blend-mode:overlay">
    <path d="M138.831 250.423C138.831 249.874 139.124 249.394 139.562 249.13M140.34 248.914C140.312 248.914 140.285 248.915 140.258 248.916" stroke="#AAE2CB" stroke-linecap="round"></path>
  </g>
  <g style="mix-blend-mode:color-burn">
    <path d="M139.642 251.831C140.805 251.831 141.748 250.888 141.748 249.725C141.748 249.31 141.627 248.922 141.419 248.596C142.006 248.969 142.395 249.625 142.395 250.372C142.395 251.535 141.452 252.477 140.289 252.477C139.542 252.477 138.885 252.088 138.512 251.502C138.838 251.71 139.226 251.831 139.642 251.831Z" fill="#AAE2CB"></path>
  </g>
  <ellipse cx="150.207" cy="259.851" rx="2.10567" ry="2.10521" fill="#AAE2CB" stroke="#1B1C1E"></ellipse>
  <g style="mix-blend-mode:overlay">
    <path d="M148.748 259.901C148.748 259.353 149.041 258.872 149.479 258.608M150.257 258.393C150.229 258.393 150.202 258.393 150.175 258.395" stroke="#AAE2CB" stroke-linecap="round"></path>
  </g>
  <g style="mix-blend-mode:color-burn">
    <path d="M149.559 261.311C150.722 261.311 151.665 260.369 151.665 259.206C151.665 258.79 151.544 258.403 151.336 258.076C151.923 258.45 152.312 259.106 152.312 259.853C152.312 261.015 151.369 261.958 150.206 261.958C149.459 261.958 148.802 261.569 148.429 260.982C148.755 261.19 149.143 261.311 149.559 261.311Z" fill="#AAE2CB"></path>
  </g>
  <path d="M95.1445 281.812H145.56" stroke="#1B1C1E" stroke-linecap="round"></path>
  <rect x="171.391" y="271.625" width="11.4938" height="10.2036" fill="#FFC5C3" stroke="#1B1C1E" stroke-linejoin="round"></rect>
  <g style="mix-blend-mode:overlay">
    <path d="M176.278 273.27H175.703M173.117 277.843V273.27H174.841" stroke="#FFC5C3" stroke-linecap="round" stroke-linejoin="round"></path>
  </g>
  <g style="mix-blend-mode:multiply">
    <rect x="179.437" y="271.625" width="3.44815" height="10.2036" fill="#FFC5C3" fill-opacity="0.5"></rect>
  </g>
  <rect x="191.506" y="264.258" width="11.4938" height="17.5729" fill="#FFDAA1" stroke="#1B1C1E" stroke-linejoin="round"></rect>
  <g style="mix-blend-mode:overlay">
    <path d="M196.389 266.391H195.815M193.229 270.964V266.391H194.953" stroke="#FFDAA1" stroke-linecap="round" stroke-linejoin="round"></path>
  </g>
  <g style="mix-blend-mode:multiply">
    <rect x="199.55" y="264.258" width="3.44815" height="17.5729" fill="#FFDAA1" fill-opacity="0.5"></rect>
  </g>
  <rect x="211.619" y="249.518" width="11.4938" height="32.3114" fill="#9FC2F7" stroke="#1B1C1E" stroke-linejoin="round"></rect>
  <g style="mix-blend-mode:overlay">
    <path d="M216.507 251.35H215.932M213.346 255.923V251.35H215.07" stroke="#9FC2F7" stroke-linecap="round" stroke-linejoin="round"></path>
  </g>
  <g style="mix-blend-mode:multiply">
    <rect x="219.665" y="249.518" width="3.44815" height="32.3114" fill="#9FC2F7" fill-opacity="0.5"></rect>
  </g>
  <rect x="231.734" y="237.047" width="11.4938" height="44.771" fill="#AAE2CB" stroke="#1B1C1E" stroke-linejoin="round"></rect>
  <g style="mix-blend-mode:multiply">
    <rect x="239.777" y="237.047" width="3.44815" height="44.771" fill="#AAE2CB" fill-opacity="0.5"></rect>
  </g>
  <g style="mix-blend-mode:overlay">
    <path d="M236.328 238.49H235.753M233.167 243.064V238.49H234.891" stroke="#AAE2CB" stroke-linecap="round" stroke-linejoin="round"></path>
  </g>
  <path d="M86.5771 174.607C86.5771 170.741 89.7112 167.607 93.5771 167.607H251.529C255.395 167.607 258.529 170.741 258.529 174.607V186.902H86.5771V174.607Z" fill="#DBE8FC" stroke="#1B1C1E"></path>
  <g style="mix-blend-mode:multiply">
    <path d="M246.044 289.621H254.35C256.644 289.621 258.503 287.757 258.503 285.459V171.762C258.503 169.463 256.644 167.6 254.35 167.6H246.044C248.338 167.6 250.197 169.463 250.197 171.762V285.459C250.197 287.757 248.338 289.621 246.044 289.621Z" fill="#DBE8FC" fill-opacity="0.5"></path>
  </g>
  <path d="M96.0791 205.256H151.163M96.0791 213.036H151.163M96.0791 221.439H151.163M96.0791 229.841H113.818M118.486 229.841H125.333" stroke="#1B1C1E" stroke-linecap="round"></path>
  <ellipse cx="97.0583" cy="177.706" rx="3.69405" ry="3.70186" fill="#FFC5C3" stroke="#1B1C1E"></ellipse>
  <g style="mix-blend-mode:overlay">
    <path d="M94.499 177.793C94.499 176.828 95.0132 175.984 95.7819 175.52M97.1461 175.141C97.0977 175.141 97.0495 175.142 97.0018 175.145" stroke="#FFC5C3" stroke-linecap="round"></path>
  </g>
  <g style="mix-blend-mode:color-burn">
    <path d="M95.9239 180.27C97.964 180.27 99.6179 178.613 99.6179 176.569C99.6179 175.838 99.4065 175.156 99.0416 174.582C100.07 175.239 100.752 176.393 100.752 177.706C100.752 179.75 99.0983 181.407 97.0581 181.407C95.7474 181.407 94.5961 180.723 93.9404 179.692C94.5134 180.058 95.1939 180.27 95.9239 180.27Z" fill="#FFC5C3"></path>
  </g>
  <ellipse cx="108.481" cy="177.706" rx="3.69405" ry="3.70186" fill="#FFDAA1" stroke="#1B1C1E"></ellipse>
  <g style="mix-blend-mode:overlay">
    <path d="M105.922 177.793C105.922 176.828 106.436 175.984 107.205 175.52M108.569 175.141C108.521 175.141 108.472 175.142 108.425 175.145" stroke="#FFDAA1" stroke-linecap="round"></path>
  </g>
  <g style="mix-blend-mode:color-burn">
    <path d="M107.347 180.27C109.387 180.27 111.041 178.613 111.041 176.569C111.041 175.838 110.829 175.156 110.464 174.582C111.493 175.239 112.175 176.393 112.175 177.706C112.175 179.75 110.521 181.407 108.481 181.407C107.17 181.407 106.019 180.723 105.363 179.692C105.936 180.058 106.617 180.27 107.347 180.27Z" fill="#FFDAA1"></path>
  </g>
  <ellipse cx="119.9" cy="177.706" rx="3.69405" ry="3.70186" fill="#AAE2CB" stroke="#1B1C1E"></ellipse>
  <g style="mix-blend-mode:overlay">
    <path d="M117.341 177.793C117.341 176.828 117.855 175.984 118.624 175.52M119.988 175.141C119.939 175.141 119.891 175.142 119.844 175.145" stroke="#AAE2CB" stroke-linecap="round"></path>
  </g>
  <g style="mix-blend-mode:color-burn">
    <path d="M118.766 180.27C120.806 180.27 122.46 178.613 122.46 176.569C122.46 175.838 122.248 175.156 121.883 174.582C122.912 175.239 123.594 176.393 123.594 177.706C123.594 179.75 121.94 181.407 119.9 181.407C118.589 181.407 117.438 180.723 116.782 179.692C117.355 180.058 118.036 180.27 118.766 180.27Z" fill="#AAE2CB"></path>
  </g>
  <ellipse rx="6.4237" ry="6.42488" transform="matrix(0.865946 -0.500138 0.499862 0.866105 196.958 156.475)" fill="#1B1C1E" stroke="#1B1C1E"></ellipse>
  <path d="M205.023 151.817L210.308 148.765M211.42 148.123L212.533 147.48M214.33 161.132L213.19 160.827M212.052 160.522L205.954 158.887M201.505 139.499L201.612 139.098M199.368 147.476L201.19 140.677" stroke="#1B1C1E" stroke-linecap="round"></path>
  <path d="M171.844 194.176L164.401 183.071L157.17 187.248L169.537 196.381C170.182 196.857 171.078 196.79 171.644 196.223C172.191 195.676 172.275 194.818 171.844 194.176Z" fill="#1B1C1E" stroke="#1B1C1E" stroke-linecap="round"></path>
  <path d="M146.178 178.569C144.798 176.177 145.617 173.119 148.008 171.738L158.601 165.62L167.593 181.201L157.001 187.319C154.61 188.7 151.552 187.88 150.172 185.489L146.178 178.569Z" fill="#1B1C1E" stroke="#1B1C1E"></path>
  <path d="M155.375 167.492L180.199 138.009L202.643 176.897L164.368 183.073L155.375 167.492Z" fill="#1B1C1E" stroke="#1B1C1E"></path>
  <path d="M148.149 178.569C146.768 176.177 147.588 173.119 149.979 171.738L157.331 167.492L166.323 183.072L158.971 187.319C156.58 188.7 153.523 187.88 152.142 185.489L148.149 178.569Z" fill="#FFF1DD" stroke="#1B1C1E"></path>
  <g style="mix-blend-mode:multiply">
    <path d="M152.072 185.367L153.036 187.037C153.923 188.573 155.887 189.1 157.423 188.213L166.323 183.072L165.359 181.403L156.459 186.543C154.923 187.43 152.959 186.904 152.072 185.367Z" fill="#FFF1DD"></path>
  </g>
  <g style="mix-blend-mode:overlay">
    <path d="M149.813 178.884L149.064 177.587C148.236 176.152 148.728 174.317 150.162 173.488L152.015 172.418M154.796 170.812L153.405 171.615" stroke="#FFDAA1" stroke-linecap="round"></path>
  </g>
  <path d="M143.359 182.607C142.118 180.457 142.855 177.706 145.005 176.464L151.428 187.593C149.278 188.835 146.528 188.098 145.287 185.948L143.359 182.607Z" fill="#1B1C1E" stroke="#1B1C1E"></path>
  <path d="M145.287 182.607C144.045 180.457 144.782 177.706 146.933 176.464L153.356 187.593C151.205 188.835 148.456 188.098 147.214 185.948L145.287 182.607Z" fill="#FFDAA1" stroke="#1B1C1E"></path>
  <g style="mix-blend-mode:overlay">
    <path d="M147 182.361L146.839 182.083M146.346 178.658C145.731 179.013 145.521 179.799 145.876 180.414L146.438 181.388" stroke="#FFDAA1" stroke-linecap="round"></path>
  </g>
  <rect width="7.03117" height="54.6368" rx="3.51558" transform="matrix(0.865946 -0.500138 0.499862 0.866105 177.08 134.428)" fill="#1B1C1E" stroke="#1B1C1E"></rect>
  <g style="mix-blend-mode:multiply">
    <path d="M146.571 184.832L147.856 187.058C148.743 188.595 150.707 189.121 152.243 188.234L153.355 187.591L152.071 185.365L150.958 186.008C149.422 186.895 147.458 186.369 146.571 184.832Z" fill="#FFDAA1"></path>
  </g>
  <path d="M157.329 167.492L182.153 138.009L204.597 176.897L166.322 183.073L157.329 167.492Z" fill="#FFE8C5" stroke="#1B1C1E"></path>
  <g style="mix-blend-mode:multiply">
    <path d="M186.864 155.011L181.266 139.569L203.105 177.409L166.483 183.35L176.067 179.414C185.622 175.489 190.385 164.725 186.864 155.011Z" fill="#FFE8C5"></path>
  </g>
  <path d="M172.862 194.898L165.882 183.326L159.091 187.248L170.743 196.739C171.202 197.112 171.843 197.163 172.355 196.867C173.045 196.469 173.274 195.581 172.862 194.898Z" fill="#FFF1DD" stroke="#1B1C1E" stroke-linecap="round"></path>
  <path d="M172.945 194.547L166.322 183.071L159.091 187.248L170.67 196.504C171.161 196.897 171.842 196.948 172.386 196.634C173.117 196.212 173.367 195.278 172.945 194.547Z" fill="#FFF1DD" stroke="#1B1C1E" stroke-linecap="round"></path>
  <g style="mix-blend-mode:multiply">
    <path d="M165.663 183.893L166.322 183.071L159.091 187.248L165.287 192.202C163.591 189.646 163.743 186.286 165.663 183.893Z" fill="#FFF1DD"></path>
  </g>
  <rect width="7.03117" height="54.6368" rx="3.51558" transform="matrix(0.865946 -0.500138 0.499862 0.866105 178.607 134.428)" fill="#FFDAA1" stroke="#1B1C1E"></rect>
  <g style="mix-blend-mode:overlay">
    <path d="M181.971 136.938L186.467 144.728M187.27 146.119L188.233 147.789" stroke="#FFDAA1" stroke-linecap="round"></path>
  </g>
  <g style="mix-blend-mode:multiply">
    <path d="M207.925 180.389C208.28 180.314 208.63 180.183 208.962 179.991C210.643 179.02 211.22 176.869 210.249 175.187L186.453 133.957C185.482 132.275 183.333 131.699 181.651 132.67C181.319 132.862 181.031 133.099 180.788 133.37C182.235 133.067 183.774 133.705 184.553 135.055L208.349 176.285C209.128 177.635 208.91 179.287 207.925 180.389Z" fill="#FFDAA1"></path>
  </g>
  <g style="mix-blend-mode:overlay">
    <path d="M164.754 161.72L164.313 162.242M162.939 174.64L159.246 168.24L163.212 163.546" stroke="#FFE8C5" stroke-linecap="round"></path>
  </g>
  <ellipse cx="239.751" cy="82.9988" rx="13.1264" ry="13.1238" fill="#BD081C" stroke="#1B1C1E"></ellipse>
  <g style="mix-blend-mode:multiply">
    <path d="M238.036 94.4171C245.285 94.4171 251.162 88.5414 251.162 81.2933C251.162 78.1049 250.025 75.1821 248.134 72.9082C251.028 75.3155 252.87 78.9435 252.87 83.0016C252.87 90.2497 246.993 96.1254 239.744 96.1254C235.683 96.1254 232.053 94.2821 229.646 91.3868C231.92 93.279 234.845 94.4171 238.036 94.4171Z" fill="#BD081C" fill-opacity="0.5"></path>
  </g>
  <path d="M228.336 82.9999C228.336 78.4828 230.961 74.5787 234.769 72.7291M239.75 71.5879C238.557 71.5879 237.407 71.7709 236.326 72.1103" stroke="white" stroke-opacity="0.27" stroke-linecap="round" stroke-linejoin="round"></path>
  <path d="M234.427 86.6758L234.466 86.7913C234.461 86.7779 234.445 86.7376 234.427 86.6758Z" fill="#69C9D0"></path>
  <path d="M237.558 89.0265C237.539 89.0081 237.06 89.8388 237.06 89.8388C237.06 89.8388 236.977 88.8616 236.989 88.8664C236.923 88.2391 236.865 87.2744 237.032 86.5895C237.182 85.9707 238.003 82.6485 238.003 82.6485C238.003 82.6485 237.764 82.1736 237.769 81.4714C237.776 80.3689 238.431 79.5459 239.241 79.5459C239.93 79.5459 240.259 80.0537 240.255 80.6627C240.252 81.0968 240.069 81.6682 239.876 82.2697C239.767 82.6108 239.655 82.9615 239.57 83.3025C239.375 84.0917 239.964 84.7352 240.756 84.7352C242.191 84.7352 243.302 83.2494 243.316 81.1046C243.328 79.2062 241.948 77.8789 239.965 77.8789C237.669 77.8789 236.311 79.571 236.3 81.3197C236.295 82.0011 236.558 82.7319 236.889 83.1291C236.954 83.2076 236.964 83.2764 236.943 83.3565C236.908 83.4976 236.848 83.7303 236.798 83.9263L236.798 83.9268C236.759 84.0782 236.726 84.2076 236.714 84.2557C236.678 84.4008 236.596 84.4316 236.443 84.3617C235.438 83.9007 234.817 82.453 234.824 81.2901C234.84 78.7891 236.704 76.4922 240.187 76.4922C242.986 76.4922 245.149 78.4521 245.133 81.0714C245.116 83.8038 243.348 86.0029 240.914 86.0029C240.097 86.0029 239.33 85.5855 239.07 85.0925C239.07 85.0925 238.656 86.6063 238.556 86.9773C238.373 87.6533 237.89 88.4976 237.558 89.0265Z" fill="white"></path>
  <circle cx="274.75" cy="146.875" r="13.125" fill="url(#paint0_linear_6072_3991)" stroke="#1B1C1E"></circle>
  <g style="mix-blend-mode:multiply">
    <path d="M273.04 158.29C280.288 158.29 286.165 152.414 286.165 145.165C286.165 141.977 285.027 139.053 283.137 136.779C286.03 139.187 287.872 142.815 287.872 146.874C287.872 154.122 281.996 159.999 274.747 159.999C270.687 159.999 267.058 158.155 264.65 155.26C266.925 157.152 269.849 158.29 273.04 158.29Z" fill="url(#paint1_linear_6072_3991)" fill-opacity="0.5"></path>
  </g>
  <path d="M263.337 146.876C263.337 142.358 265.962 138.454 269.769 136.604M274.75 135.463C273.557 135.463 272.407 135.646 271.326 135.985" stroke="white" stroke-opacity="0.27" stroke-linecap="round" stroke-linejoin="round"></path>
  <path d="M269.431 150.551L269.47 150.666C269.465 150.653 269.449 150.613 269.431 150.551Z" fill="#69C9D0"></path>
  <path fill-rule="evenodd" clip-rule="evenodd" d="M271.417 140.884C269.895 141.088 268.701 142.258 268.496 143.745C268.445 144.109 268.445 149.645 268.496 150.009C268.597 150.745 268.931 151.403 269.469 151.926C270.006 152.447 270.686 152.774 271.441 152.872C271.816 152.921 277.513 152.921 277.888 152.872C279.428 152.671 280.627 151.506 280.833 150.009C280.884 149.645 280.884 144.109 280.833 143.745C280.627 142.247 279.428 141.083 277.888 140.882C277.528 140.835 271.767 140.837 271.417 140.884ZM277.626 141.932C278.218 141.986 278.704 142.208 279.102 142.606C279.49 142.995 279.699 143.441 279.753 143.999C279.786 144.337 279.786 149.417 279.753 149.755C279.699 150.313 279.49 150.759 279.102 151.147C278.704 151.546 278.218 151.768 277.626 151.822C277.278 151.854 272.051 151.854 271.703 151.822C271.111 151.768 270.625 151.546 270.227 151.147C269.839 150.759 269.63 150.313 269.576 149.755C269.543 149.417 269.543 144.337 269.576 143.999C269.632 143.423 269.861 142.951 270.27 142.565C270.656 142.2 271.135 141.983 271.66 141.933C271.966 141.905 277.314 141.903 277.626 141.932ZM277.701 142.923C277.52 142.991 277.352 143.146 277.269 143.325C277.034 143.825 277.391 144.393 277.959 144.423C278.232 144.438 278.511 144.302 278.662 144.081C278.759 143.937 278.794 143.816 278.792 143.621C278.787 143.096 278.216 142.73 277.701 142.923ZM274.228 143.804C273.526 143.9 272.914 144.197 272.41 144.686C271.868 145.213 271.568 145.835 271.486 146.6C271.408 147.335 271.648 148.152 272.117 148.749C272.259 148.93 272.552 149.215 272.738 149.353C273.353 149.809 274.193 150.041 274.949 149.965C275.737 149.886 276.377 149.594 276.919 149.068C277.461 148.541 277.761 147.919 277.843 147.154C277.907 146.551 277.756 145.876 277.435 145.334C276.785 144.237 275.513 143.63 274.228 143.804ZM275.149 144.9C275.903 145.074 276.519 145.674 276.699 146.406C276.766 146.679 276.766 147.075 276.699 147.348C276.556 147.931 276.136 148.439 275.577 148.702C275.273 148.845 275.014 148.902 274.665 148.902C274.315 148.902 274.056 148.845 273.752 148.702C273.193 148.439 272.773 147.931 272.63 147.348C272.563 147.075 272.563 146.679 272.63 146.406C272.808 145.679 273.422 145.078 274.168 144.901C274.44 144.836 274.873 144.836 275.149 144.9Z" fill="white"></path>
  <circle cx="327.25" cy="212.5" r="13.125" fill="#006699" stroke="#1B1C1E"></circle>
  <g style="mix-blend-mode:multiply">
    <path d="M325.542 223.913C332.792 223.913 338.669 218.037 338.669 210.788C338.669 207.609 337.538 204.693 335.657 202.422C338.54 204.829 340.374 208.451 340.374 212.5C340.374 219.749 334.497 225.625 327.247 225.625C323.177 225.625 319.54 223.773 317.132 220.866C319.41 222.769 322.342 223.913 325.542 223.913Z" fill="#006699" fill-opacity="0.5"></path>
  </g>
  <path d="M315.837 212.501C315.837 207.983 318.462 204.079 322.27 202.229M327.252 201.088C326.059 201.088 324.909 201.271 323.828 201.61" stroke="white" stroke-opacity="0.27" stroke-linecap="round" stroke-linejoin="round"></path>
  <path d="M324.525 217.196V209.18H321.808V217.196H324.525ZM323.167 208.086C324.113 208.086 324.704 207.47 324.704 206.703C324.685 205.916 324.113 205.316 323.184 205.316C322.255 205.316 321.648 205.915 321.648 206.703C321.648 207.49 322.238 208.086 323.15 208.086H323.167ZM326.028 217.196H328.745V212.72C328.745 212.481 328.762 212.241 328.834 212.071C329.03 211.591 329.478 211.096 330.228 211.096C331.211 211.096 331.604 211.831 331.604 212.908V217.196H334.32V212.599C334.32 210.138 332.981 208.992 331.192 208.992C329.727 208.992 329.084 209.795 328.726 210.342H328.743V209.18H326.027C326.063 209.933 326.027 217.196 326.027 217.196H326.028Z" fill="white"></path>
  <circle cx="168.875" cy="100.5" r="13.125" fill="#6AC0FF" stroke="#1B1C1E"></circle>
  <g style="mix-blend-mode:multiply">
    <path d="M167.16 111.915C174.408 111.915 180.285 106.039 180.285 98.7902C180.285 95.6015 179.148 92.6784 177.257 90.4043C180.15 92.8118 181.993 96.4401 181.993 100.499C181.993 107.747 176.116 113.624 168.868 113.624C164.808 113.624 161.178 111.78 158.771 108.885C161.045 110.777 163.969 111.915 167.16 111.915Z" fill="#6AC0FF" fill-opacity="0.5"></path>
  </g>
  <path d="M157.462 100.501C157.462 95.9834 160.087 92.0789 163.894 90.2292M168.875 89.0879C167.682 89.0879 166.532 89.2709 165.451 89.6104" stroke="white" stroke-opacity="0.27" stroke-linecap="round" stroke-linejoin="round"></path>
  <path d="M163.555 104.18L163.594 104.295C163.589 104.282 163.573 104.241 163.555 104.18Z" fill="#69C9D0"></path>
  <path d="M175.693 96.2617C175.28 96.4436 174.846 96.5709 174.401 96.639C174.609 96.6026 174.915 96.2192 175.038 96.0636C175.223 95.8291 175.364 95.5616 175.454 95.2746C175.455 95.2537 175.476 95.2234 175.455 95.2079C175.445 95.2018 175.433 95.1991 175.421 95.1991C175.409 95.1991 175.397 95.2018 175.386 95.2079C174.904 95.476 174.39 95.6809 173.857 95.817C173.838 95.823 173.818 95.823 173.8 95.8183C173.781 95.8136 173.764 95.8035 173.75 95.7893C173.709 95.7388 173.664 95.691 173.617 95.6465C173.4 95.4471 173.155 95.2833 172.889 95.1621C172.529 95.0105 172.141 94.9451 171.753 94.97C171.376 94.9949 171.009 95.0987 170.672 95.2746C170.342 95.4612 170.05 95.7139 169.816 96.0178C169.57 96.3311 169.392 96.6949 169.294 97.0837C169.213 97.4543 169.203 97.837 169.264 98.2109C169.264 98.275 169.264 98.2837 169.211 98.2749C167.096 97.9549 165.362 97.1841 163.948 95.5299C163.886 95.4572 163.854 95.4572 163.803 95.5299C163.184 96.4921 163.479 98.0155 164.248 98.7682C164.352 98.8686 164.458 98.9662 164.571 99.0572C164.217 99.0316 163.873 98.9332 163.557 98.7682C163.498 98.7284 163.465 98.75 163.462 98.8227C163.454 98.9245 163.453 99.0262 163.462 99.1273C163.522 99.6131 163.707 100.073 163.998 100.461C164.288 100.849 164.675 101.149 165.117 101.333C165.224 101.38 165.336 101.416 165.452 101.44C165.124 101.506 164.788 101.516 164.457 101.47C164.387 101.455 164.36 101.494 164.386 101.564C164.819 102.783 165.765 103.155 166.459 103.362C166.553 103.377 166.648 103.377 166.755 103.402L166.737 103.42C166.532 103.803 165.703 104.062 165.322 104.196C164.629 104.452 163.889 104.549 163.156 104.483C163.04 104.464 163.013 104.467 162.984 104.483C162.954 104.498 162.984 104.531 163.016 104.562C163.164 104.662 163.312 104.751 163.466 104.836C163.925 105.093 164.41 105.297 164.913 105.445C167.515 106.182 170.449 105.64 172.41 103.644C173.951 102.078 174.497 99.9183 174.503 97.7555C174.503 97.6733 174.601 97.6247 174.657 97.5823C175.047 97.271 175.39 96.9038 175.678 96.4914C175.727 96.4301 175.753 96.352 175.749 96.2725C175.749 96.2266 175.749 96.2361 175.693 96.2603L175.693 96.2617Z" fill="#FBFBFB"></path>
  <circle cx="85.75" cy="96.125" r="13.125" fill="#337FFF" stroke="#1B1C1E"></circle>
  <path d="M89.2391 97.0529L89.6295 94.3692H87.2245V92.6244C87.2245 91.8908 87.5607 91.1731 88.6343 91.1731H89.7437V88.8873C89.0981 88.7761 88.4449 88.7153 87.7916 88.707C85.8121 88.707 84.519 89.9946 84.519 92.3218V94.3685H82.3252V97.0522H84.519V103.544H87.2251V97.0522H89.2403L89.2391 97.0529Z" fill="#FBFBFB"></path>
  <g style="mix-blend-mode:multiply">
    <path d="M84.0378 107.539C91.2865 107.539 97.1628 101.663 97.1628 94.4139C97.1628 91.2249 96.0255 88.3016 94.1343 86.0273C97.0285 88.4349 98.871 92.0635 98.871 96.1224C98.871 103.371 92.9947 109.247 85.746 109.247C81.6862 109.247 78.0569 107.404 75.6494 104.509C77.9239 106.401 80.848 107.539 84.0378 107.539Z" fill="#337FFF" fill-opacity="0.5"></path>
  </g>
  <path d="M74.3369 96.1259C74.3369 91.6084 76.9616 87.7039 80.7692 85.8542M85.75 84.7129C84.5571 84.7129 83.4069 84.8959 82.326 85.2354" stroke="white" stroke-opacity="0.27" stroke-linecap="round" stroke-linejoin="round"></path>
  <path d="M80.4258 99.8008L80.4653 99.9163C80.4601 99.9029 80.4442 99.8626 80.4258 99.8008Z" fill="#69C9D0"></path>
  <ellipse cx="59.4993" cy="175.747" rx="13.1243" ry="13.1217" fill="#DBE8FC" stroke="#1B1C1E"></ellipse>
  <mask id="mask0_6072_3991" style="mask-type:alpha" maskUnits="userSpaceOnUse" x="46" y="162" width="27" height="27">
    <circle cx="59.487" cy="175.736" r="12.3337" fill="#D9D9D9" stroke="black"></circle>
  </mask>
  <g mask="url(#mask0_6072_3991)">
    <path d="M71.301 170.205H47.6672C47.1056 170.205 46.6504 170.68 46.6504 171.265V188.219C46.6504 188.804 47.1056 189.279 47.6672 189.279H71.301C71.8625 189.279 72.3177 188.804 72.3177 188.219V171.265C72.3177 170.68 71.8625 170.205 71.301 170.205Z" fill="#4989F5"></path>
    <path d="M71.0169 169.732L47.9225 169.025C47.2071 169.025 46.6504 174.817 46.6504 175.566L59.2976 189.277H71.0169C71.7345 189.275 72.3158 188.667 72.3177 187.916V171.092C72.3156 170.342 71.7344 169.734 71.0169 169.732Z" fill="url(#paint2_linear_6072_3991)"></path>
    <path d="M67.8354 181.056C67.8259 180.93 67.8101 180.815 67.7876 180.669H64.8493C64.8493 181.072 64.8493 181.511 64.8477 181.914H66.5499C66.5137 182.102 66.44 182.281 66.3331 182.441C66.2262 182.601 66.0881 182.738 65.9267 182.846C65.9267 182.846 65.9267 182.839 65.9255 182.839C65.7172 182.973 65.4825 183.063 65.2365 183.102C64.99 183.147 64.7372 183.145 64.491 183.099C64.2411 183.048 64.0044 182.948 63.7957 182.804C63.4878 182.59 63.2502 182.292 63.1122 181.948C63.1017 181.921 63.092 181.894 63.082 181.866V181.863L63.0847 181.861C62.9507 181.476 62.9504 181.058 63.0836 180.673C63.1775 180.402 63.332 180.156 63.5357 179.951C64.0137 179.467 64.7279 179.284 65.3863 179.479C65.6388 179.555 65.8694 179.688 66.0597 179.868L66.634 179.305C66.7353 179.204 66.8405 179.107 66.9379 179.003C66.6467 178.737 66.3049 178.53 65.932 178.393C65.2533 178.151 64.5109 178.145 63.828 178.375C63.8042 178.383 63.7805 178.391 63.757 178.399C63.0203 178.671 62.4142 179.204 62.0585 179.892C61.9329 180.135 61.8414 180.395 61.7865 180.662C61.4612 182.247 62.4476 183.807 64.0401 184.226C64.5607 184.363 65.1141 184.359 65.6388 184.243C66.1155 184.137 66.5562 183.913 66.9183 183.591C67.296 183.25 67.5667 182.796 67.7086 182.314C67.8272 181.905 67.8701 181.479 67.8354 181.056Z" fill="white"></path>
    <path d="M52.6895 172.352H59.4252V162.199H53.698L52.6895 172.352Z" fill="#3C4BA6"></path>
    <path d="M66.144 172.352H59.4082V162.199H65.1354L66.144 172.352ZM70.8646 164.887L70.8729 164.919C70.8709 164.908 70.8669 164.897 70.8646 164.887Z" fill="#7BABF7"></path>
    <path d="M70.887 164.92L70.8786 164.889C70.6651 163.87 69.7995 163.143 68.7986 163.143H65.1494L66.1572 172.354H72.893L70.887 164.92Z" fill="#3F51B5"></path>
    <path d="M47.9536 164.92L47.962 164.889C48.1755 163.87 49.041 163.143 50.0419 163.143H53.6914L52.6821 172.354H45.9463L47.9536 164.92Z" fill="#7BABF7"></path>
    <path fill-rule="evenodd" clip-rule="evenodd" d="M52.6821 172.354C52.6821 174.288 51.1742 175.857 49.3142 175.857C47.4542 175.857 45.9463 174.288 45.9463 172.354H52.6821Z" fill="#709BE0"></path>
    <path fill-rule="evenodd" clip-rule="evenodd" d="M59.4252 172.354C59.4252 174.288 57.9174 175.857 56.0573 175.857C54.1973 175.857 52.6895 174.288 52.6895 172.354H59.4252Z" fill="#3C4BA6"></path>
    <path fill-rule="evenodd" clip-rule="evenodd" d="M66.144 172.354C66.144 174.288 64.6361 175.857 62.7761 175.857C60.9161 175.857 59.4082 174.288 59.4082 172.354H66.144Z" fill="#709BE0"></path>
    <path fill-rule="evenodd" clip-rule="evenodd" d="M72.9115 172.354C72.9115 174.288 71.4037 175.857 69.5437 175.857C67.6836 175.857 66.1758 174.288 66.1758 172.354H72.9115Z" fill="#3C4BA6"></path>
  </g>
  <g style="mix-blend-mode:multiply">
    <path d="M57.7953 187.157C65.0436 187.157 70.9196 181.282 70.9196 174.035C70.9196 170.861 69.792 167.949 67.9153 165.68C70.7941 168.087 72.6252 171.705 72.6252 175.75C72.6252 182.997 66.7492 188.872 59.5009 188.872C55.4278 188.872 51.7881 187.017 49.3809 184.106C51.659 186.01 54.5932 187.157 57.7953 187.157Z" fill="#4887F1" fill-opacity="0.5"></path>
  </g>
  <path d="M48.0869 175.747C48.0869 171.23 50.7116 167.326 54.5193 165.477M59.5002 164.336C58.3073 164.336 57.1571 164.519 56.0762 164.858" stroke="white" stroke-opacity="0.27" stroke-linecap="round" stroke-linejoin="round"></path>
  <circle cx="22.125" cy="241.125" r="13.125" fill="#1B1C1E" stroke="#1B1C1E"></circle>
  <path d="M24.6254 239.596C25.3885 240.155 26.3232 240.484 27.3328 240.484V238.492C27.1418 238.492 26.9512 238.471 26.7643 238.431V239.999C25.7547 239.999 24.8201 239.67 24.0568 239.11V243.177C24.0568 245.211 22.4491 246.86 20.4659 246.86C19.7259 246.86 19.0381 246.63 18.4668 246.237C19.1189 246.921 20.0283 247.345 21.0343 247.345C23.0176 247.345 24.6255 245.696 24.6255 243.662V239.596H24.6254ZM25.3268 237.585C24.9369 237.148 24.6808 236.584 24.6254 235.959V235.703H24.0866C24.2222 236.497 24.6848 237.174 25.3268 237.585ZM19.7212 244.676C19.5033 244.383 19.3855 244.024 19.3861 243.656C19.3861 242.726 20.1215 241.971 21.0287 241.971C21.1978 241.971 21.3659 241.998 21.527 242.05V240.013C21.3387 239.987 21.1487 239.975 20.9587 239.98V241.565C20.7974 241.513 20.6293 241.486 20.4602 241.486C19.5529 241.486 18.8175 242.24 18.8175 243.171C18.8175 243.829 19.1851 244.398 19.7212 244.676Z" fill="#FF004F"></path>
  <path d="M24.0578 239.11C24.8211 239.67 25.7557 239.999 26.7653 239.999V238.431C26.2018 238.307 25.7029 238.005 25.3278 237.585C24.6858 237.174 24.2232 236.497 24.0876 235.703H22.6723V243.662C22.6691 244.589 21.935 245.341 21.0297 245.341C20.4962 245.341 20.0222 245.08 19.722 244.676C19.186 244.398 18.8185 243.829 18.8185 243.171C18.8185 242.241 19.5538 241.486 20.4611 241.486C20.6349 241.486 20.8025 241.514 20.9596 241.565V239.98C19.0113 240.021 17.4443 241.654 17.4443 243.662C17.4443 244.664 17.8345 245.573 18.4678 246.237C19.0392 246.63 19.727 246.86 20.4669 246.86C22.4501 246.86 24.0579 245.211 24.0579 243.177V239.11H24.0578Z" fill="white"></path>
  <path d="M26.7645 238.431V238.007C26.2563 238.008 25.7582 237.862 25.327 237.586C25.7087 238.015 26.2112 238.31 26.7645 238.431ZM24.0868 235.704C24.0739 235.628 24.0639 235.552 24.057 235.475V235.219H22.1029V243.177C22.0998 244.105 21.3657 244.856 20.4603 244.856C20.1945 244.856 19.9435 244.792 19.7212 244.677C20.0214 245.081 20.4954 245.341 21.0289 245.341C21.9341 245.341 22.6684 244.59 22.6715 243.662V235.704H24.0868ZM20.9589 239.98V239.529C20.7956 239.506 20.631 239.494 20.4662 239.494C18.4828 239.494 16.875 241.143 16.875 243.177C16.875 244.453 17.5069 245.576 18.4671 246.237C17.8338 245.573 17.4436 244.665 17.4436 243.662C17.4436 241.654 19.0105 240.022 20.9589 239.98Z" fill="#00F2EA"></path>
  <g style="mix-blend-mode:multiply">
    <path d="M20.4138 252.541C27.6625 252.541 33.5388 246.665 33.5388 239.416C33.5388 236.227 32.4015 233.304 30.5103 231.029C33.4045 233.437 35.2469 237.065 35.2469 241.124C35.2469 248.373 29.3707 254.249 22.1219 254.249C18.0622 254.249 14.4329 252.406 12.0254 249.511C14.2999 251.403 17.2239 252.541 20.4138 252.541Z" fill="#1B1C1E"></path>
  </g>
  <path d="M10.7109 241.126C10.7109 236.608 13.3356 232.704 17.1432 230.854M22.124 229.713C20.9311 229.713 19.7809 229.896 18.7001 230.235" stroke="white" stroke-opacity="0.27" stroke-linecap="round" stroke-linejoin="round"></path>
  <path d="M16.8047 244.801L16.8442 244.916C16.839 244.903 16.8231 244.863 16.8047 244.801Z" fill="#69C9D0"></path>
  <path d="M327.548 50.625C332.216 50.625 336 46.8877 336 42.278C336 38.2349 333.089 34.8628 329.224 34.0953C329.234 33.9303 329.239 33.764 329.239 33.597C329.239 28.9873 325.455 25.25 320.787 25.25C317.461 25.25 314.584 27.147 313.205 29.9054C312 29.0753 310.535 28.5888 308.955 28.5888C305.472 28.5888 302.548 30.9534 301.739 34.1455C301.125 34.0053 300.484 33.9309 299.827 33.9309C295.159 33.9309 291.375 37.6682 291.375 42.278C291.375 46.8877 295.159 50.625 299.827 50.625H327.548Z" fill="white"></path>
  <path d="M318.52 100.5C320.442 100.5 322 98.9535 322 97.0461C322 95.373 320.801 93.9777 319.21 93.6601C319.214 93.5918 319.216 93.523 319.216 93.4539C319.216 91.5465 317.658 90 315.736 90C314.366 90 313.182 90.785 312.614 91.9264C312.118 91.5829 311.514 91.3816 310.864 91.3816C309.429 91.3816 308.226 92.36 307.893 93.6809C307.64 93.6229 307.376 93.5921 307.105 93.5921C305.183 93.5921 303.625 95.1386 303.625 97.0461C303.625 98.9535 305.183 100.5 307.105 100.5H318.52Z" fill="white"></path>
  <path d="M14.411 111C9.83476 111 6.125 107.392 6.125 102.941C6.125 99.0371 8.97897 95.7813 12.7684 95.0402C12.7588 94.8809 12.7538 94.7204 12.7538 94.5592C12.7538 90.1084 16.4635 86.5 21.0398 86.5C24.3003 86.5 27.1209 88.3316 28.4734 90.9949C29.6544 90.1934 31.0909 89.7237 32.6402 89.7237C36.0549 89.7237 38.9213 92.0067 39.7141 95.0887C40.3167 94.9534 40.9443 94.8816 41.589 94.8816C46.1652 94.8816 49.875 98.49 49.875 102.941C49.875 107.392 46.1652 111 41.589 111H14.411Z" fill="white"></path>
  <path d="M123.189 55C121.359 55 119.875 53.5824 119.875 51.8339C119.875 50.3003 121.017 49.0212 122.532 48.7301C122.529 48.6675 122.527 48.6044 122.527 48.5411C122.527 46.7926 124.01 45.375 125.841 45.375C127.145 45.375 128.273 46.0945 128.814 47.1409C129.287 46.826 129.861 46.6414 130.481 46.6414C131.847 46.6414 132.994 47.5383 133.311 48.7491C133.552 48.696 133.803 48.6678 134.061 48.6678C135.891 48.6678 137.375 50.0853 137.375 51.8339C137.375 53.5824 135.891 55 134.061 55H123.189Z" fill="white"></path>
  <path d="M31.6856 34.875C33.5161 34.875 35 33.4574 35 31.7089C35 30.1753 33.8584 28.8962 32.3427 28.6051C32.3465 28.5425 32.3485 28.4794 32.3485 28.4161C32.3485 26.6676 30.8646 25.25 29.0341 25.25C27.7299 25.25 26.6016 25.9695 26.0607 27.0159C25.5882 26.701 25.0136 26.5164 24.3939 26.5164C23.028 26.5164 21.8815 27.4133 21.5643 28.6241C21.3233 28.571 21.0723 28.5428 20.8144 28.5428C18.9839 28.5428 17.5 29.9603 17.5 31.7089C17.5 33.4574 18.9839 34.875 20.8144 34.875H31.6856Z" fill="white"></path>
  <circle cx="32" cy="161" r="3" fill="#1B1C1E"></circle>
  <circle cx="54" cy="236" r="3" fill="#1B1C1E"></circle>
  <circle cx="106" cy="118" r="3" fill="#1B1C1E"></circle>
  <circle cx="162" cy="66" r="3" fill="#1B1C1E"></circle>
  <circle cx="226" cy="109" r="3" fill="#1B1C1E"></circle>
  <circle cx="295" cy="208" r="3" fill="#1B1C1E"></circle>
  <circle cx="298" cy="130" r="3" fill="#1B1C1E"></circle>
  <defs>
    <linearGradient id="paint0_linear_6072_3991" x1="287.875" y1="133.75" x2="261.625" y2="162.461" gradientUnits="userSpaceOnUse">
      <stop stop-color="#9143C6"></stop>
      <stop offset="0.270833" stop-color="#D8408F"></stop>
      <stop offset="0.666667" stop-color="#F77169"></stop>
      <stop offset="1" stop-color="#FBA66A"></stop>
    </linearGradient>
    <linearGradient id="paint1_linear_6072_3991" x1="287.872" y1="136.779" x2="264.653" y2="162.178" gradientUnits="userSpaceOnUse">
      <stop stop-color="#9143C6"></stop>
      <stop offset="0.270833" stop-color="#D8408F"></stop>
      <stop offset="0.666667" stop-color="#F77169"></stop>
      <stop offset="1" stop-color="#FBA66A"></stop>
    </linearGradient>
    <linearGradient id="paint2_linear_6072_3991" x1="46.6504" y1="179.151" x2="72.3175" y2="179.151" gradientUnits="userSpaceOnUse">
      <stop offset="0.03" stop-color="#4079D8"></stop>
      <stop offset="1" stop-color="#4989F5"></stop>
    </linearGradient>
  </defs>
</svg>
