<svg width="540" height="440" viewBox="0 0 540 440" fill="none" xmlns="http://www.w3.org/2000/svg">
<rect x="100" width="440" height="296" fill="url(#paint0_linear_2004_3208)"/>
<mask id="path-2-inside-1_2004_3208" fill="white">
<path d="M100 0H540V54H100V0Z"/>
</mask>
<path d="M100 0H540V54H100V0Z" fill="white"/>
<path d="M540 53H100V55H540V53Z" fill="#E0E7F6" mask="url(#path-2-inside-1_2004_3208)"/>
<path d="M116.68 26.456C117.768 26.2533 118.312 25.6933 118.312 24.776C118.312 24.3707 118.259 23.6773 118.152 22.696C118.045 21.6507 117.992 20.8933 117.992 20.424C117.992 19.656 118.205 19.0693 118.632 18.664C119.069 18.2587 119.651 18.056 120.376 18.056H121.304V19.32H120.648C120.232 19.32 119.923 19.416 119.72 19.608C119.517 19.7893 119.416 20.0933 119.416 20.52C119.416 20.8293 119.437 21.2133 119.48 21.672C119.523 22.12 119.549 22.424 119.56 22.584C119.667 23.608 119.72 24.3547 119.72 24.824C119.72 25.3893 119.576 25.864 119.288 26.248C119.011 26.6213 118.579 26.872 117.992 27V27.032C118.579 27.16 119.011 27.416 119.288 27.8C119.576 28.184 119.72 28.6587 119.72 29.224C119.72 29.6933 119.667 30.44 119.56 31.464C119.549 31.624 119.523 31.9333 119.48 32.392C119.437 32.84 119.416 33.2187 119.416 33.528C119.416 33.9547 119.517 34.2587 119.72 34.44C119.923 34.632 120.232 34.728 120.648 34.728H121.304V35.992H120.376C119.651 35.992 119.069 35.7893 118.632 35.384C118.205 34.9787 117.992 34.392 117.992 33.624C117.992 33.1547 118.045 32.3973 118.152 31.352C118.259 30.3707 118.312 29.6773 118.312 29.272C118.312 28.3547 117.768 27.7947 116.68 27.592V26.456ZM124.087 33.096C123.809 33.096 123.575 33 123.383 32.808C123.191 32.616 123.095 32.3813 123.095 32.104C123.095 31.8267 123.191 31.592 123.383 31.4C123.575 31.208 123.809 31.112 124.087 31.112C124.353 31.112 124.577 31.208 124.759 31.4C124.951 31.592 125.047 31.8267 125.047 32.104C125.047 32.3813 124.951 32.616 124.759 32.808C124.577 33 124.353 33.096 124.087 33.096ZM127.446 33.096C127.169 33.096 126.934 33 126.742 32.808C126.55 32.616 126.454 32.3813 126.454 32.104C126.454 31.8267 126.55 31.592 126.742 31.4C126.934 31.208 127.169 31.112 127.446 31.112C127.713 31.112 127.937 31.208 128.118 31.4C128.31 31.592 128.406 31.8267 128.406 32.104C128.406 32.3813 128.31 32.616 128.118 32.808C127.937 33 127.713 33.096 127.446 33.096ZM130.805 33.096C130.528 33.096 130.293 33 130.101 32.808C129.909 32.616 129.813 32.3813 129.813 32.104C129.813 31.8267 129.909 31.592 130.101 31.4C130.293 31.208 130.528 31.112 130.805 31.112C131.072 31.112 131.296 31.208 131.477 31.4C131.669 31.592 131.765 31.8267 131.765 32.104C131.765 32.3813 131.669 32.616 131.477 32.808C131.296 33 131.072 33.096 130.805 33.096ZM138.181 27.592C137.093 27.7947 136.549 28.3547 136.549 29.272C136.549 29.6773 136.602 30.3707 136.709 31.352C136.815 32.3973 136.869 33.1547 136.869 33.624C136.869 34.392 136.65 34.9787 136.213 35.384C135.786 35.7893 135.21 35.992 134.485 35.992H133.557V34.728H134.213C134.629 34.728 134.938 34.632 135.141 34.44C135.343 34.2587 135.445 33.9547 135.445 33.528C135.445 33.2187 135.423 32.84 135.381 32.392C135.338 31.9333 135.311 31.624 135.301 31.464C135.194 30.44 135.141 29.6933 135.141 29.224C135.141 28.6587 135.279 28.184 135.557 27.8C135.845 27.416 136.282 27.16 136.869 27.032V27C136.282 26.872 135.845 26.6213 135.557 26.248C135.279 25.864 135.141 25.3893 135.141 24.824C135.141 24.3547 135.194 23.608 135.301 22.584C135.311 22.424 135.338 22.12 135.381 21.672C135.423 21.2133 135.445 20.8293 135.445 20.52C135.445 20.0933 135.343 19.7893 135.141 19.608C134.938 19.416 134.629 19.32 134.213 19.32H133.557V18.056H134.485C135.21 18.056 135.786 18.2587 136.213 18.664C136.65 19.0693 136.869 19.656 136.869 20.424C136.869 20.8933 136.815 21.6507 136.709 22.696C136.602 23.6773 136.549 24.3707 136.549 24.776C136.549 25.6933 137.093 26.2533 138.181 26.456V27.592Z" fill="#5078FA"/>
<path d="M144.813 28.6C144.813 27.6933 144.994 26.904 145.357 26.232C145.72 25.5493 146.221 25.0213 146.861 24.648C147.512 24.2747 148.253 24.088 149.085 24.088C150.162 24.088 151.048 24.3493 151.741 24.872C152.445 25.3947 152.909 26.12 153.133 27.048H151.565C151.416 26.5147 151.122 26.0933 150.685 25.784C150.258 25.4747 149.725 25.32 149.085 25.32C148.253 25.32 147.581 25.608 147.069 26.184C146.557 26.7493 146.301 27.5547 146.301 28.6C146.301 29.656 146.557 30.472 147.069 31.048C147.581 31.624 148.253 31.912 149.085 31.912C149.725 31.912 150.258 31.7627 150.685 31.464C151.112 31.1653 151.405 30.7387 151.565 30.184H153.133C152.898 31.08 152.429 31.8 151.725 32.344C151.021 32.8773 150.141 33.144 149.085 33.144C148.253 33.144 147.512 32.9573 146.861 32.584C146.221 32.2107 145.72 31.6827 145.357 31C144.994 30.3173 144.813 29.5173 144.813 28.6ZM156.532 25.656C156.788 25.1547 157.15 24.7653 157.62 24.488C158.1 24.2107 158.681 24.072 159.364 24.072V25.576H158.98C157.348 25.576 156.532 26.4613 156.532 28.232V33H155.076V24.232H156.532V25.656ZM169.045 28.28C169.045 28.5573 169.029 28.8507 168.997 29.16H161.989C162.042 30.024 162.335 30.7013 162.869 31.192C163.413 31.672 164.069 31.912 164.837 31.912C165.466 31.912 165.989 31.768 166.405 31.48C166.831 31.1813 167.13 30.7867 167.301 30.296H168.869C168.634 31.1387 168.165 31.8267 167.461 32.36C166.757 32.8827 165.882 33.144 164.837 33.144C164.005 33.144 163.258 32.9573 162.597 32.584C161.946 32.2107 161.434 31.6827 161.061 31C160.687 30.3067 160.501 29.5067 160.501 28.6C160.501 27.6933 160.682 26.8987 161.045 26.216C161.407 25.5333 161.914 25.0107 162.565 24.648C163.226 24.2747 163.983 24.088 164.837 24.088C165.669 24.088 166.405 24.2693 167.045 24.632C167.685 24.9947 168.175 25.496 168.517 26.136C168.869 26.7653 169.045 27.48 169.045 28.28ZM167.541 27.976C167.541 27.4213 167.418 26.9467 167.173 26.552C166.927 26.1467 166.591 25.8427 166.165 25.64C165.749 25.4267 165.285 25.32 164.773 25.32C164.037 25.32 163.407 25.5547 162.885 26.024C162.373 26.4933 162.079 27.144 162.005 27.976H167.541ZM170.422 28.584C170.422 27.688 170.604 26.904 170.966 26.232C171.329 25.5493 171.825 25.0213 172.454 24.648C173.094 24.2747 173.804 24.088 174.582 24.088C175.35 24.088 176.017 24.2533 176.582 24.584C177.148 24.9147 177.569 25.3307 177.846 25.832V24.232H179.318V33H177.846V31.368C177.558 31.88 177.126 32.3067 176.55 32.648C175.985 32.9787 175.324 33.144 174.566 33.144C173.788 33.144 173.084 32.952 172.454 32.568C171.825 32.184 171.329 31.6453 170.966 30.952C170.604 30.2587 170.422 29.4693 170.422 28.584ZM177.846 28.6C177.846 27.9387 177.713 27.3627 177.446 26.872C177.18 26.3813 176.817 26.008 176.358 25.752C175.91 25.4853 175.414 25.352 174.87 25.352C174.326 25.352 173.83 25.48 173.382 25.736C172.934 25.992 172.577 26.3653 172.31 26.856C172.044 27.3467 171.91 27.9227 171.91 28.584C171.91 29.256 172.044 29.8427 172.31 30.344C172.577 30.8347 172.934 31.2133 173.382 31.48C173.83 31.736 174.326 31.864 174.87 31.864C175.414 31.864 175.91 31.736 176.358 31.48C176.817 31.2133 177.18 30.8347 177.446 30.344C177.713 29.8427 177.846 29.2613 177.846 28.6ZM183.555 25.432V30.6C183.555 31.0267 183.646 31.3307 183.827 31.512C184.008 31.6827 184.323 31.768 184.771 31.768H185.843V33H184.531C183.72 33 183.112 32.8133 182.707 32.44C182.302 32.0667 182.099 31.4533 182.099 30.6V25.432H180.963V24.232H182.099V22.024H183.555V24.232H185.843V25.432H183.555ZM195.607 28.28C195.607 28.5573 195.591 28.8507 195.559 29.16H188.551C188.604 30.024 188.898 30.7013 189.431 31.192C189.975 31.672 190.631 31.912 191.399 31.912C192.028 31.912 192.551 31.768 192.967 31.48C193.394 31.1813 193.692 30.7867 193.863 30.296H195.431C195.196 31.1387 194.727 31.8267 194.023 32.36C193.319 32.8827 192.444 33.144 191.399 33.144C190.567 33.144 189.82 32.9573 189.159 32.584C188.508 32.2107 187.996 31.6827 187.623 31C187.25 30.3067 187.063 29.5067 187.063 28.6C187.063 27.6933 187.244 26.8987 187.607 26.216C187.97 25.5333 188.476 25.0107 189.127 24.648C189.788 24.2747 190.546 24.088 191.399 24.088C192.231 24.088 192.967 24.2693 193.607 24.632C194.247 24.9947 194.738 25.496 195.079 26.136C195.431 26.7653 195.607 27.48 195.607 28.28ZM194.103 27.976C194.103 27.4213 193.98 26.9467 193.735 26.552C193.49 26.1467 193.154 25.8427 192.727 25.64C192.311 25.4267 191.847 25.32 191.335 25.32C190.599 25.32 189.97 25.5547 189.447 26.024C188.935 26.4933 188.642 27.144 188.567 27.976H194.103ZM203.401 33L200.745 28.44H198.985V33H197.529V21.848H201.129C201.972 21.848 202.681 21.992 203.257 22.28C203.844 22.568 204.281 22.9573 204.569 23.448C204.857 23.9387 205.001 24.4987 205.001 25.128C205.001 25.896 204.777 26.5733 204.329 27.16C203.892 27.7467 203.23 28.136 202.345 28.328L205.145 33H203.401ZM198.985 27.272H201.129C201.918 27.272 202.51 27.08 202.905 26.696C203.3 26.3013 203.497 25.7787 203.497 25.128C203.497 24.4667 203.3 23.9547 202.905 23.592C202.521 23.2293 201.929 23.048 201.129 23.048H198.985V27.272ZM215.263 28.28C215.263 28.5573 215.247 28.8507 215.215 29.16H208.207C208.261 30.024 208.554 30.7013 209.087 31.192C209.631 31.672 210.287 31.912 211.055 31.912C211.685 31.912 212.207 31.768 212.623 31.48C213.05 31.1813 213.349 30.7867 213.519 30.296H215.087C214.853 31.1387 214.383 31.8267 213.679 32.36C212.975 32.8827 212.101 33.144 211.055 33.144C210.223 33.144 209.477 32.9573 208.815 32.584C208.165 32.2107 207.653 31.6827 207.279 31C206.906 30.3067 206.719 29.5067 206.719 28.6C206.719 27.6933 206.901 26.8987 207.263 26.216C207.626 25.5333 208.133 25.0107 208.783 24.648C209.445 24.2747 210.202 24.088 211.055 24.088C211.887 24.088 212.623 24.2693 213.263 24.632C213.903 24.9947 214.394 25.496 214.735 26.136C215.087 26.7653 215.263 27.48 215.263 28.28ZM213.759 27.976C213.759 27.4213 213.637 26.9467 213.391 26.552C213.146 26.1467 212.81 25.8427 212.383 25.64C211.967 25.4267 211.503 25.32 210.991 25.32C210.255 25.32 209.626 25.5547 209.103 26.024C208.591 26.4933 208.298 27.144 208.223 27.976H213.759ZM220.753 25.432H218.913V33H217.457V25.432H216.321V24.232H217.457V23.608C217.457 22.6267 217.708 21.912 218.209 21.464C218.721 21.0053 219.537 20.776 220.657 20.776V21.992C220.017 21.992 219.564 22.12 219.297 22.376C219.041 22.6213 218.913 23.032 218.913 23.608V24.232H220.753V25.432ZM223.203 22.808C222.925 22.808 222.691 22.712 222.499 22.52C222.307 22.328 222.211 22.0933 222.211 21.816C222.211 21.5387 222.307 21.304 222.499 21.112C222.691 20.92 222.925 20.824 223.203 20.824C223.469 20.824 223.693 20.92 223.875 21.112C224.067 21.304 224.163 21.5387 224.163 21.816C224.163 22.0933 224.067 22.328 223.875 22.52C223.693 22.712 223.469 22.808 223.203 22.808ZM223.907 24.232V33H222.451V24.232H223.907ZM227.844 21.16V33H226.388V21.16H227.844ZM231.782 21.16V33H230.326V21.16H231.782ZM234.727 33.096C234.45 33.096 234.215 33 234.023 32.808C233.831 32.616 233.735 32.3813 233.735 32.104C233.735 31.8267 233.831 31.592 234.023 31.4C234.215 31.208 234.45 31.112 234.727 31.112C234.994 31.112 235.218 31.208 235.399 31.4C235.591 31.592 235.687 31.8267 235.687 32.104C235.687 32.3813 235.591 32.616 235.399 32.808C235.218 33 234.994 33.096 234.727 33.096ZM238.407 22.808C238.129 22.808 237.895 22.712 237.703 22.52C237.521 22.328 237.431 22.0933 237.431 21.816C237.431 21.5387 237.521 21.304 237.703 21.112C237.895 20.92 238.129 20.824 238.407 20.824C238.684 20.824 238.913 20.92 239.095 21.112C239.287 21.304 239.383 21.5387 239.383 21.816C239.383 22.0933 239.287 22.328 239.095 22.52C238.913 22.712 238.684 22.808 238.407 22.808ZM239.127 34.904C239.127 35.6827 238.929 36.2533 238.535 36.616C238.14 36.9787 237.564 37.16 236.807 37.16H235.959V35.928H236.567C236.972 35.928 237.255 35.848 237.415 35.688C237.585 35.528 237.671 35.256 237.671 34.872V24.232H239.127V34.904ZM244.695 33.144C244.023 33.144 243.421 33.032 242.887 32.808C242.354 32.5733 241.933 32.2533 241.623 31.848C241.314 31.432 241.143 30.9573 241.111 30.424H242.615C242.658 30.8613 242.861 31.2187 243.223 31.496C243.597 31.7733 244.082 31.912 244.679 31.912C245.234 31.912 245.671 31.7893 245.991 31.544C246.311 31.2987 246.471 30.9893 246.471 30.616C246.471 30.232 246.301 29.9493 245.959 29.768C245.618 29.576 245.09 29.3893 244.375 29.208C243.725 29.0373 243.191 28.8667 242.775 28.696C242.37 28.5147 242.018 28.2533 241.719 27.912C241.431 27.56 241.287 27.1013 241.287 26.536C241.287 26.088 241.421 25.6773 241.687 25.304C241.954 24.9307 242.333 24.6373 242.823 24.424C243.314 24.2 243.874 24.088 244.503 24.088C245.474 24.088 246.258 24.3333 246.855 24.824C247.453 25.3147 247.773 25.9867 247.815 26.84H246.359C246.327 26.3813 246.141 26.0133 245.799 25.736C245.469 25.4587 245.021 25.32 244.455 25.32C243.933 25.32 243.517 25.432 243.207 25.656C242.898 25.88 242.743 26.1733 242.743 26.536C242.743 26.824 242.834 27.064 243.015 27.256C243.207 27.4373 243.442 27.5867 243.719 27.704C244.007 27.8107 244.402 27.9333 244.903 28.072C245.533 28.2427 246.045 28.4133 246.439 28.584C246.834 28.744 247.17 28.9893 247.447 29.32C247.735 29.6507 247.885 30.0827 247.895 30.616C247.895 31.096 247.762 31.528 247.495 31.912C247.229 32.296 246.85 32.6 246.359 32.824C245.879 33.0373 245.325 33.144 244.695 33.144ZM253.775 33.144C252.953 33.144 252.207 32.9573 251.535 32.584C250.873 32.2107 250.351 31.6827 249.967 31C249.593 30.3067 249.407 29.5067 249.407 28.6C249.407 27.704 249.599 26.9147 249.983 26.232C250.377 25.5387 250.911 25.0107 251.583 24.648C252.255 24.2747 253.007 24.088 253.839 24.088C254.671 24.088 255.423 24.2747 256.095 24.648C256.767 25.0107 257.295 25.5333 257.679 26.216C258.073 26.8987 258.271 27.6933 258.271 28.6C258.271 29.5067 258.068 30.3067 257.663 31C257.268 31.6827 256.729 32.2107 256.047 32.584C255.364 32.9573 254.607 33.144 253.775 33.144ZM253.775 31.864C254.297 31.864 254.788 31.7413 255.247 31.496C255.705 31.2507 256.073 30.8827 256.351 30.392C256.639 29.9013 256.783 29.304 256.783 28.6C256.783 27.896 256.644 27.2987 256.367 26.808C256.089 26.3173 255.727 25.9547 255.279 25.72C254.831 25.4747 254.345 25.352 253.823 25.352C253.289 25.352 252.799 25.4747 252.351 25.72C251.913 25.9547 251.561 26.3173 251.295 26.808C251.028 27.2987 250.895 27.896 250.895 28.6C250.895 29.3147 251.023 29.9173 251.279 30.408C251.545 30.8987 251.897 31.2667 252.335 31.512C252.772 31.7467 253.252 31.864 253.775 31.864ZM264.457 24.072C265.524 24.072 266.388 24.3973 267.049 25.048C267.71 25.688 268.041 26.616 268.041 27.832V33H266.601V28.04C266.601 27.1653 266.382 26.4987 265.945 26.04C265.508 25.5707 264.91 25.336 264.153 25.336C263.385 25.336 262.772 25.576 262.313 26.056C261.865 26.536 261.641 27.2347 261.641 28.152V33H260.185V24.232H261.641V25.48C261.929 25.032 262.318 24.6853 262.809 24.44C263.31 24.1947 263.86 24.072 264.457 24.072Z" fill="#18202B"/>
<rect x="50" y="79" width="490" height="296" fill="url(#paint1_linear_2004_3208)"/>
<mask id="path-6-inside-2_2004_3208" fill="white">
<path d="M50 79H540V133H50V79Z"/>
</mask>
<path d="M50 79H540V133H50V79Z" fill="white"/>
<path d="M540 132H50V134H540V132Z" fill="#E0E7F6" mask="url(#path-6-inside-2_2004_3208)"/>
<path d="M66.68 105.456C67.768 105.253 68.312 104.693 68.312 103.776C68.312 103.371 68.2587 102.677 68.152 101.696C68.0453 100.651 67.992 99.8933 67.992 99.424C67.992 98.656 68.2053 98.0693 68.632 97.664C69.0693 97.2587 69.6507 97.056 70.376 97.056H71.304V98.32H70.648C70.232 98.32 69.9227 98.416 69.72 98.608C69.5173 98.7893 69.416 99.0933 69.416 99.52C69.416 99.8293 69.4373 100.213 69.48 100.672C69.5227 101.12 69.5493 101.424 69.56 101.584C69.6667 102.608 69.72 103.355 69.72 103.824C69.72 104.389 69.576 104.864 69.288 105.248C69.0107 105.621 68.5787 105.872 67.992 106V106.032C68.5787 106.16 69.0107 106.416 69.288 106.8C69.576 107.184 69.72 107.659 69.72 108.224C69.72 108.693 69.6667 109.44 69.56 110.464C69.5493 110.624 69.5227 110.933 69.48 111.392C69.4373 111.84 69.416 112.219 69.416 112.528C69.416 112.955 69.5173 113.259 69.72 113.44C69.9227 113.632 70.232 113.728 70.648 113.728H71.304V114.992H70.376C69.6507 114.992 69.0693 114.789 68.632 114.384C68.2053 113.979 67.992 113.392 67.992 112.624C67.992 112.155 68.0453 111.397 68.152 110.352C68.2587 109.371 68.312 108.677 68.312 108.272C68.312 107.355 67.768 106.795 66.68 106.592V105.456ZM74.0866 112.096C73.8093 112.096 73.5746 112 73.3826 111.808C73.1906 111.616 73.0946 111.381 73.0946 111.104C73.0946 110.827 73.1906 110.592 73.3826 110.4C73.5746 110.208 73.8093 110.112 74.0866 110.112C74.3533 110.112 74.5773 110.208 74.7586 110.4C74.9506 110.592 75.0466 110.827 75.0466 111.104C75.0466 111.381 74.9506 111.616 74.7586 111.808C74.5773 112 74.3533 112.096 74.0866 112.096ZM77.446 112.096C77.1687 112.096 76.934 112 76.742 111.808C76.55 111.616 76.454 111.381 76.454 111.104C76.454 110.827 76.55 110.592 76.742 110.4C76.934 110.208 77.1687 110.112 77.446 110.112C77.7127 110.112 77.9367 110.208 78.118 110.4C78.31 110.592 78.406 110.827 78.406 111.104C78.406 111.381 78.31 111.616 78.118 111.808C77.9367 112 77.7127 112.096 77.446 112.096ZM80.8054 112.096C80.528 112.096 80.2934 112 80.1014 111.808C79.9094 111.616 79.8134 111.381 79.8134 111.104C79.8134 110.827 79.9094 110.592 80.1014 110.4C80.2934 110.208 80.528 110.112 80.8054 110.112C81.072 110.112 81.296 110.208 81.4774 110.4C81.6694 110.592 81.7654 110.827 81.7654 111.104C81.7654 111.381 81.6694 111.616 81.4774 111.808C81.296 112 81.072 112.096 80.8054 112.096ZM88.1808 106.592C87.0928 106.795 86.5488 107.355 86.5488 108.272C86.5488 108.677 86.6021 109.371 86.7088 110.352C86.8154 111.397 86.8688 112.155 86.8688 112.624C86.8688 113.392 86.6501 113.979 86.2128 114.384C85.7861 114.789 85.2101 114.992 84.4848 114.992H83.5568V113.728H84.2128C84.6288 113.728 84.9381 113.632 85.1408 113.44C85.3434 113.259 85.4448 112.955 85.4448 112.528C85.4448 112.219 85.4234 111.84 85.3808 111.392C85.3381 110.933 85.3114 110.624 85.3008 110.464C85.1941 109.44 85.1408 108.693 85.1408 108.224C85.1408 107.659 85.2794 107.184 85.5568 106.8C85.8448 106.416 86.2821 106.16 86.8688 106.032V106C86.2821 105.872 85.8448 105.621 85.5568 105.248C85.2794 104.864 85.1408 104.389 85.1408 103.824C85.1408 103.355 85.1941 102.608 85.3008 101.584C85.3114 101.424 85.3381 101.12 85.3808 100.672C85.4234 100.213 85.4448 99.8293 85.4448 99.52C85.4448 99.0933 85.3434 98.7893 85.1408 98.608C84.9381 98.416 84.6288 98.32 84.2128 98.32H83.5568V97.056H84.4848C85.2101 97.056 85.7861 97.2587 86.2128 97.664C86.6501 98.0693 86.8688 98.656 86.8688 99.424C86.8688 99.8933 86.8154 100.651 86.7088 101.696C86.6021 102.677 86.5488 103.371 86.5488 103.776C86.5488 104.693 87.0928 105.253 88.1808 105.456V106.592Z" fill="#5078FA"/>
<path d="M98.973 103.088C99.7303 103.088 100.392 103.253 100.957 103.584C101.533 103.915 101.96 104.331 102.237 104.832V103.232H103.709V112.192C103.709 112.992 103.538 113.701 103.197 114.32C102.856 114.949 102.365 115.44 101.725 115.792C101.096 116.144 100.36 116.32 99.517 116.32C98.365 116.32 97.405 116.048 96.637 115.504C95.869 114.96 95.4157 114.219 95.277 113.28H96.717C96.877 113.813 97.2077 114.24 97.709 114.56C98.2103 114.891 98.813 115.056 99.517 115.056C100.317 115.056 100.968 114.805 101.469 114.304C101.981 113.803 102.237 113.099 102.237 112.192V110.352C101.949 110.864 101.522 111.291 100.957 111.632C100.392 111.973 99.7303 112.144 98.973 112.144C98.1943 112.144 97.485 111.952 96.845 111.568C96.2157 111.184 95.7197 110.645 95.357 109.952C94.9943 109.259 94.813 108.469 94.813 107.584C94.813 106.688 94.9943 105.904 95.357 105.232C95.7197 104.549 96.2157 104.021 96.845 103.648C97.485 103.275 98.1943 103.088 98.973 103.088ZM102.237 107.6C102.237 106.939 102.104 106.363 101.837 105.872C101.57 105.381 101.208 105.008 100.749 104.752C100.301 104.485 99.805 104.352 99.261 104.352C98.717 104.352 98.221 104.48 97.773 104.736C97.325 104.992 96.9677 105.365 96.701 105.856C96.4343 106.347 96.301 106.923 96.301 107.584C96.301 108.256 96.4343 108.843 96.701 109.344C96.9677 109.835 97.325 110.213 97.773 110.48C98.221 110.736 98.717 110.864 99.261 110.864C99.805 110.864 100.301 110.736 100.749 110.48C101.208 110.213 101.57 109.835 101.837 109.344C102.104 108.843 102.237 108.261 102.237 107.6ZM114.17 107.28C114.17 107.557 114.154 107.851 114.122 108.16H107.114C107.167 109.024 107.46 109.701 107.994 110.192C108.538 110.672 109.194 110.912 109.962 110.912C110.591 110.912 111.114 110.768 111.53 110.48C111.956 110.181 112.255 109.787 112.426 109.296H113.994C113.759 110.139 113.29 110.827 112.586 111.36C111.882 111.883 111.007 112.144 109.962 112.144C109.13 112.144 108.383 111.957 107.722 111.584C107.071 111.211 106.559 110.683 106.186 110C105.812 109.307 105.626 108.507 105.626 107.6C105.626 106.693 105.807 105.899 106.17 105.216C106.532 104.533 107.039 104.011 107.69 103.648C108.351 103.275 109.108 103.088 109.962 103.088C110.794 103.088 111.53 103.269 112.17 103.632C112.81 103.995 113.3 104.496 113.642 105.136C113.994 105.765 114.17 106.48 114.17 107.28ZM112.666 106.976C112.666 106.421 112.543 105.947 112.298 105.552C112.052 105.147 111.716 104.843 111.29 104.64C110.874 104.427 110.41 104.32 109.898 104.32C109.162 104.32 108.532 104.555 108.01 105.024C107.498 105.493 107.204 106.144 107.13 106.976H112.666ZM117.867 104.432V109.6C117.867 110.027 117.958 110.331 118.139 110.512C118.321 110.683 118.635 110.768 119.083 110.768H120.155V112H118.843C118.033 112 117.425 111.813 117.019 111.44C116.614 111.067 116.411 110.453 116.411 109.6V104.432H115.275V103.232H116.411V101.024H117.867V103.232H120.155V104.432H117.867ZM125.456 112.112C124.72 112.112 124.058 111.984 123.472 111.728C122.896 111.461 122.442 111.099 122.112 110.64C121.781 110.171 121.61 109.632 121.6 109.024H123.152C123.205 109.547 123.418 109.989 123.792 110.352C124.176 110.704 124.73 110.88 125.456 110.88C126.149 110.88 126.693 110.709 127.088 110.368C127.493 110.016 127.696 109.568 127.696 109.024C127.696 108.597 127.578 108.251 127.344 107.984C127.109 107.717 126.816 107.515 126.464 107.376C126.112 107.237 125.637 107.088 125.04 106.928C124.304 106.736 123.712 106.544 123.264 106.352C122.826 106.16 122.448 105.861 122.128 105.456C121.818 105.04 121.664 104.485 121.664 103.792C121.664 103.184 121.818 102.645 122.128 102.176C122.437 101.707 122.869 101.344 123.424 101.088C123.989 100.832 124.634 100.704 125.36 100.704C126.405 100.704 127.258 100.965 127.92 101.488C128.592 102.011 128.97 102.704 129.056 103.568H127.456C127.402 103.141 127.178 102.768 126.784 102.448C126.389 102.117 125.866 101.952 125.216 101.952C124.608 101.952 124.112 102.112 123.728 102.432C123.344 102.741 123.152 103.179 123.152 103.744C123.152 104.149 123.264 104.48 123.488 104.736C123.722 104.992 124.005 105.189 124.336 105.328C124.677 105.456 125.152 105.605 125.76 105.776C126.496 105.979 127.088 106.181 127.536 106.384C127.984 106.576 128.368 106.88 128.688 107.296C129.008 107.701 129.168 108.256 129.168 108.96C129.168 109.504 129.024 110.016 128.736 110.496C128.448 110.976 128.021 111.365 127.456 111.664C126.89 111.963 126.224 112.112 125.456 112.112ZM133.086 104.432V109.6C133.086 110.027 133.177 110.331 133.358 110.512C133.539 110.683 133.854 110.768 134.302 110.768H135.374V112H134.062C133.251 112 132.643 111.813 132.238 111.44C131.833 111.067 131.63 110.453 131.63 109.6V104.432H130.494V103.232H131.63V101.024H133.086V103.232H135.374V104.432H133.086ZM136.594 107.584C136.594 106.688 136.776 105.904 137.138 105.232C137.501 104.549 137.997 104.021 138.626 103.648C139.266 103.275 139.976 103.088 140.754 103.088C141.522 103.088 142.189 103.253 142.754 103.584C143.32 103.915 143.741 104.331 144.018 104.832V103.232H145.49V112H144.018V110.368C143.73 110.88 143.298 111.307 142.722 111.648C142.157 111.979 141.496 112.144 140.738 112.144C139.96 112.144 139.256 111.952 138.626 111.568C137.997 111.184 137.501 110.645 137.138 109.952C136.776 109.259 136.594 108.469 136.594 107.584ZM144.018 107.6C144.018 106.939 143.885 106.363 143.618 105.872C143.352 105.381 142.989 105.008 142.53 104.752C142.082 104.485 141.586 104.352 141.042 104.352C140.498 104.352 140.002 104.48 139.554 104.736C139.106 104.992 138.749 105.365 138.482 105.856C138.216 106.347 138.082 106.923 138.082 107.584C138.082 108.256 138.216 108.843 138.482 109.344C138.749 109.835 139.106 110.213 139.554 110.48C140.002 110.736 140.498 110.864 141.042 110.864C141.586 110.864 142.082 110.736 142.53 110.48C142.989 110.213 143.352 109.835 143.618 109.344C143.885 108.843 144.018 108.261 144.018 107.6ZM149.727 104.432V109.6C149.727 110.027 149.817 110.331 149.999 110.512C150.18 110.683 150.495 110.768 150.943 110.768H152.015V112H150.703C149.892 112 149.284 111.813 148.879 111.44C148.473 111.067 148.271 110.453 148.271 109.6V104.432H147.135V103.232H148.271V101.024H149.727V103.232H152.015V104.432H149.727ZM161.555 103.232V112H160.099V110.704C159.822 111.152 159.432 111.504 158.931 111.76C158.44 112.005 157.896 112.128 157.299 112.128C156.616 112.128 156.003 111.989 155.459 111.712C154.915 111.424 154.483 110.997 154.163 110.432C153.854 109.867 153.699 109.179 153.699 108.368V103.232H155.139V108.176C155.139 109.04 155.358 109.707 155.795 110.176C156.232 110.635 156.83 110.864 157.587 110.864C158.366 110.864 158.979 110.624 159.427 110.144C159.875 109.664 160.099 108.965 160.099 108.048V103.232H161.555ZM167.117 112.144C166.445 112.144 165.843 112.032 165.309 111.808C164.776 111.573 164.355 111.253 164.045 110.848C163.736 110.432 163.565 109.957 163.533 109.424H165.037C165.08 109.861 165.283 110.219 165.645 110.496C166.019 110.773 166.504 110.912 167.101 110.912C167.656 110.912 168.093 110.789 168.413 110.544C168.733 110.299 168.893 109.989 168.893 109.616C168.893 109.232 168.723 108.949 168.381 108.768C168.04 108.576 167.512 108.389 166.797 108.208C166.147 108.037 165.613 107.867 165.197 107.696C164.792 107.515 164.44 107.253 164.141 106.912C163.853 106.56 163.709 106.101 163.709 105.536C163.709 105.088 163.843 104.677 164.109 104.304C164.376 103.931 164.755 103.637 165.245 103.424C165.736 103.2 166.296 103.088 166.925 103.088C167.896 103.088 168.68 103.333 169.277 103.824C169.875 104.315 170.195 104.987 170.237 105.84H168.781C168.749 105.381 168.563 105.013 168.221 104.736C167.891 104.459 167.443 104.32 166.877 104.32C166.355 104.32 165.939 104.432 165.629 104.656C165.32 104.88 165.165 105.173 165.165 105.536C165.165 105.824 165.256 106.064 165.437 106.256C165.629 106.437 165.864 106.587 166.141 106.704C166.429 106.811 166.824 106.933 167.325 107.072C167.955 107.243 168.467 107.413 168.861 107.584C169.256 107.744 169.592 107.989 169.869 108.32C170.157 108.651 170.307 109.083 170.317 109.616C170.317 110.096 170.184 110.528 169.917 110.912C169.651 111.296 169.272 111.6 168.781 111.824C168.301 112.037 167.747 112.144 167.117 112.144ZM172.837 112.096C172.559 112.096 172.325 112 172.133 111.808C171.941 111.616 171.845 111.381 171.845 111.104C171.845 110.827 171.941 110.592 172.133 110.4C172.325 110.208 172.559 110.112 172.837 110.112C173.103 110.112 173.327 110.208 173.509 110.4C173.701 110.592 173.797 110.827 173.797 111.104C173.797 111.381 173.701 111.616 173.509 111.808C173.327 112 173.103 112.096 172.837 112.096ZM176.516 101.808C176.239 101.808 176.004 101.712 175.812 101.52C175.631 101.328 175.54 101.093 175.54 100.816C175.54 100.539 175.631 100.304 175.812 100.112C176.004 99.92 176.239 99.824 176.516 99.824C176.793 99.824 177.023 99.92 177.204 100.112C177.396 100.304 177.492 100.539 177.492 100.816C177.492 101.093 177.396 101.328 177.204 101.52C177.023 101.712 176.793 101.808 176.516 101.808ZM177.236 113.904C177.236 114.683 177.039 115.253 176.644 115.616C176.249 115.979 175.673 116.16 174.916 116.16H174.068V114.928H174.676C175.081 114.928 175.364 114.848 175.524 114.688C175.695 114.528 175.78 114.256 175.78 113.872V103.232H177.236V113.904ZM182.805 112.144C182.133 112.144 181.53 112.032 180.997 111.808C180.463 111.573 180.042 111.253 179.733 110.848C179.423 110.432 179.253 109.957 179.221 109.424H180.725C180.767 109.861 180.97 110.219 181.333 110.496C181.706 110.773 182.191 110.912 182.789 110.912C183.343 110.912 183.781 110.789 184.101 110.544C184.421 110.299 184.581 109.989 184.581 109.616C184.581 109.232 184.41 108.949 184.069 108.768C183.727 108.576 183.199 108.389 182.485 108.208C181.834 108.037 181.301 107.867 180.885 107.696C180.479 107.515 180.127 107.253 179.829 106.912C179.541 106.56 179.397 106.101 179.397 105.536C179.397 105.088 179.53 104.677 179.797 104.304C180.063 103.931 180.442 103.637 180.933 103.424C181.423 103.2 181.983 103.088 182.613 103.088C183.583 103.088 184.367 103.333 184.965 103.824C185.562 104.315 185.882 104.987 185.925 105.84H184.469C184.437 105.381 184.25 105.013 183.909 104.736C183.578 104.459 183.13 104.32 182.565 104.32C182.042 104.32 181.626 104.432 181.317 104.656C181.007 104.88 180.853 105.173 180.853 105.536C180.853 105.824 180.943 106.064 181.125 106.256C181.317 106.437 181.551 106.587 181.829 106.704C182.117 106.811 182.511 106.933 183.013 107.072C183.642 107.243 184.154 107.413 184.549 107.584C184.943 107.744 185.279 107.989 185.557 108.32C185.845 108.651 185.994 109.083 186.005 109.616C186.005 110.096 185.871 110.528 185.605 110.912C185.338 111.296 184.959 111.6 184.469 111.824C183.989 112.037 183.434 112.144 182.805 112.144ZM191.884 112.144C191.063 112.144 190.316 111.957 189.644 111.584C188.983 111.211 188.46 110.683 188.076 110C187.703 109.307 187.516 108.507 187.516 107.6C187.516 106.704 187.708 105.915 188.092 105.232C188.487 104.539 189.02 104.011 189.692 103.648C190.364 103.275 191.116 103.088 191.948 103.088C192.78 103.088 193.532 103.275 194.204 103.648C194.876 104.011 195.404 104.533 195.788 105.216C196.183 105.899 196.38 106.693 196.38 107.6C196.38 108.507 196.177 109.307 195.772 110C195.377 110.683 194.839 111.211 194.156 111.584C193.473 111.957 192.716 112.144 191.884 112.144ZM191.884 110.864C192.407 110.864 192.897 110.741 193.356 110.496C193.815 110.251 194.183 109.883 194.46 109.392C194.748 108.901 194.892 108.304 194.892 107.6C194.892 106.896 194.753 106.299 194.476 105.808C194.199 105.317 193.836 104.955 193.388 104.72C192.94 104.475 192.455 104.352 191.932 104.352C191.399 104.352 190.908 104.475 190.46 104.72C190.023 104.955 189.671 105.317 189.404 105.808C189.137 106.299 189.004 106.896 189.004 107.6C189.004 108.315 189.132 108.917 189.388 109.408C189.655 109.899 190.007 110.267 190.444 110.512C190.881 110.747 191.361 110.864 191.884 110.864ZM202.567 103.072C203.633 103.072 204.497 103.397 205.159 104.048C205.82 104.688 206.151 105.616 206.151 106.832V112H204.711V107.04C204.711 106.165 204.492 105.499 204.055 105.04C203.617 104.571 203.02 104.336 202.263 104.336C201.495 104.336 200.881 104.576 200.423 105.056C199.975 105.536 199.751 106.235 199.751 107.152V112H198.295V103.232H199.751V104.48C200.039 104.032 200.428 103.685 200.919 103.44C201.42 103.195 201.969 103.072 202.567 103.072Z" fill="#18202B"/>
<rect y="158" width="540" height="282" fill="url(#paint2_linear_2004_3208)"/>
<path d="M16.68 238.456C17.768 238.253 18.312 237.693 18.312 236.776C18.312 236.371 18.2587 235.677 18.152 234.696C18.0453 233.651 17.992 232.893 17.992 232.424C17.992 231.656 18.2053 231.069 18.632 230.664C19.0693 230.259 19.6507 230.056 20.376 230.056H21.304V231.32H20.648C20.232 231.32 19.9227 231.416 19.72 231.608C19.5173 231.789 19.416 232.093 19.416 232.52C19.416 232.829 19.4373 233.213 19.48 233.672C19.5227 234.12 19.5493 234.424 19.56 234.584C19.6667 235.608 19.72 236.355 19.72 236.824C19.72 237.389 19.576 237.864 19.288 238.248C19.0107 238.621 18.5787 238.872 17.992 239V239.032C18.5787 239.16 19.0107 239.416 19.288 239.8C19.576 240.184 19.72 240.659 19.72 241.224C19.72 241.693 19.6667 242.44 19.56 243.464C19.5493 243.624 19.5227 243.933 19.48 244.392C19.4373 244.84 19.416 245.219 19.416 245.528C19.416 245.955 19.5173 246.259 19.72 246.44C19.9227 246.632 20.232 246.728 20.648 246.728H21.304V247.992H20.376C19.6507 247.992 19.0693 247.789 18.632 247.384C18.2053 246.979 17.992 246.392 17.992 245.624C17.992 245.155 18.0453 244.397 18.152 243.352C18.2587 242.371 18.312 241.677 18.312 241.272C18.312 240.355 17.768 239.795 16.68 239.592V238.456ZM91.9048 280.264L91.7288 283.448H90.7208L90.5288 280.264H91.9048ZM94.0648 280.264L93.8888 283.448H92.8808L92.6888 280.264H94.0648ZM98.9766 293.144C98.3046 293.144 97.702 293.032 97.1686 292.808C96.6353 292.573 96.214 292.253 95.9046 291.848C95.5953 291.432 95.4246 290.957 95.3926 290.424H96.8966C96.9393 290.861 97.142 291.219 97.5046 291.496C97.878 291.773 98.3633 291.912 98.9606 291.912C99.5153 291.912 99.9526 291.789 100.273 291.544C100.593 291.299 100.753 290.989 100.753 290.616C100.753 290.232 100.582 289.949 100.241 289.768C99.8993 289.576 99.3713 289.389 98.6566 289.208C98.006 289.037 97.4726 288.867 97.0566 288.696C96.6513 288.515 96.2993 288.253 96.0006 287.912C95.7126 287.56 95.5686 287.101 95.5686 286.536C95.5686 286.088 95.702 285.677 95.9686 285.304C96.2353 284.931 96.614 284.637 97.1046 284.424C97.5953 284.2 98.1553 284.088 98.7846 284.088C99.7553 284.088 100.539 284.333 101.137 284.824C101.734 285.315 102.054 285.987 102.097 286.84H100.641C100.609 286.381 100.422 286.013 100.081 285.736C99.75 285.459 99.302 285.32 98.7366 285.32C98.214 285.32 97.798 285.432 97.4886 285.656C97.1793 285.88 97.0246 286.173 97.0246 286.536C97.0246 286.824 97.1153 287.064 97.2966 287.256C97.4886 287.437 97.7233 287.587 98.0006 287.704C98.2886 287.811 98.6833 287.933 99.1846 288.072C99.814 288.243 100.326 288.413 100.721 288.584C101.115 288.744 101.451 288.989 101.729 289.32C102.017 289.651 102.166 290.083 102.177 290.616C102.177 291.096 102.043 291.528 101.777 291.912C101.51 292.296 101.131 292.6 100.641 292.824C100.161 293.037 99.606 293.144 98.9766 293.144ZM112.008 284.232V293H110.552V291.704C110.275 292.152 109.885 292.504 109.384 292.76C108.893 293.005 108.349 293.128 107.752 293.128C107.069 293.128 106.456 292.989 105.912 292.712C105.368 292.424 104.936 291.997 104.616 291.432C104.307 290.867 104.152 290.179 104.152 289.368V284.232H105.592V289.176C105.592 290.04 105.811 290.707 106.248 291.176C106.685 291.635 107.283 291.864 108.04 291.864C108.819 291.864 109.432 291.624 109.88 291.144C110.328 290.664 110.552 289.965 110.552 289.048V284.232H112.008ZM113.922 288.6C113.922 287.693 114.104 286.904 114.466 286.232C114.829 285.549 115.33 285.021 115.97 284.648C116.621 284.275 117.362 284.088 118.194 284.088C119.272 284.088 120.157 284.349 120.85 284.872C121.554 285.395 122.018 286.12 122.242 287.048H120.674C120.525 286.515 120.232 286.093 119.794 285.784C119.368 285.475 118.834 285.32 118.194 285.32C117.362 285.32 116.69 285.608 116.178 286.184C115.666 286.749 115.41 287.555 115.41 288.6C115.41 289.656 115.666 290.472 116.178 291.048C116.69 291.624 117.362 291.912 118.194 291.912C118.834 291.912 119.368 291.763 119.794 291.464C120.221 291.165 120.514 290.739 120.674 290.184H122.242C122.008 291.08 121.538 291.8 120.834 292.344C120.13 292.877 119.25 293.144 118.194 293.144C117.362 293.144 116.621 292.957 115.97 292.584C115.33 292.211 114.829 291.683 114.466 291C114.104 290.317 113.922 289.517 113.922 288.6ZM123.641 288.6C123.641 287.693 123.822 286.904 124.185 286.232C124.548 285.549 125.049 285.021 125.689 284.648C126.34 284.275 127.081 284.088 127.913 284.088C128.99 284.088 129.876 284.349 130.569 284.872C131.273 285.395 131.737 286.12 131.961 287.048H130.393C130.244 286.515 129.95 286.093 129.513 285.784C129.086 285.475 128.553 285.32 127.913 285.32C127.081 285.32 126.409 285.608 125.897 286.184C125.385 286.749 125.129 287.555 125.129 288.6C125.129 289.656 125.385 290.472 125.897 291.048C126.409 291.624 127.081 291.912 127.913 291.912C128.553 291.912 129.086 291.763 129.513 291.464C129.94 291.165 130.233 290.739 130.393 290.184H131.961C131.726 291.08 131.257 291.8 130.553 292.344C129.849 292.877 128.969 293.144 127.913 293.144C127.081 293.144 126.34 292.957 125.689 292.584C125.049 292.211 124.548 291.683 124.185 291C123.822 290.317 123.641 289.517 123.641 288.6ZM141.904 288.28C141.904 288.557 141.888 288.851 141.856 289.16H134.848C134.901 290.024 135.195 290.701 135.728 291.192C136.272 291.672 136.928 291.912 137.696 291.912C138.325 291.912 138.848 291.768 139.264 291.48C139.691 291.181 139.989 290.787 140.16 290.296H141.728C141.493 291.139 141.024 291.827 140.32 292.36C139.616 292.883 138.741 293.144 137.696 293.144C136.864 293.144 136.117 292.957 135.456 292.584C134.805 292.211 134.293 291.683 133.92 291C133.547 290.307 133.36 289.507 133.36 288.6C133.36 287.693 133.541 286.899 133.904 286.216C134.267 285.533 134.773 285.011 135.424 284.648C136.085 284.275 136.843 284.088 137.696 284.088C138.528 284.088 139.264 284.269 139.904 284.632C140.544 284.995 141.035 285.496 141.376 286.136C141.728 286.765 141.904 287.48 141.904 288.28ZM140.4 287.976C140.4 287.421 140.277 286.947 140.032 286.552C139.787 286.147 139.451 285.843 139.024 285.64C138.608 285.427 138.144 285.32 137.632 285.32C136.896 285.32 136.267 285.555 135.744 286.024C135.232 286.493 134.939 287.144 134.864 287.976H140.4ZM146.93 293.144C146.258 293.144 145.655 293.032 145.122 292.808C144.588 292.573 144.167 292.253 143.858 291.848C143.548 291.432 143.378 290.957 143.346 290.424H144.85C144.892 290.861 145.095 291.219 145.458 291.496C145.831 291.773 146.316 291.912 146.914 291.912C147.468 291.912 147.906 291.789 148.226 291.544C148.546 291.299 148.706 290.989 148.706 290.616C148.706 290.232 148.535 289.949 148.194 289.768C147.852 289.576 147.324 289.389 146.61 289.208C145.959 289.037 145.426 288.867 145.01 288.696C144.604 288.515 144.252 288.253 143.954 287.912C143.666 287.56 143.522 287.101 143.522 286.536C143.522 286.088 143.655 285.677 143.922 285.304C144.188 284.931 144.567 284.637 145.058 284.424C145.548 284.2 146.108 284.088 146.738 284.088C147.708 284.088 148.492 284.333 149.09 284.824C149.687 285.315 150.007 285.987 150.05 286.84H148.594C148.562 286.381 148.375 286.013 148.034 285.736C147.703 285.459 147.255 285.32 146.69 285.32C146.167 285.32 145.751 285.432 145.442 285.656C145.132 285.88 144.978 286.173 144.978 286.536C144.978 286.824 145.068 287.064 145.25 287.256C145.442 287.437 145.676 287.587 145.954 287.704C146.242 287.811 146.636 287.933 147.138 288.072C147.767 288.243 148.279 288.413 148.674 288.584C149.068 288.744 149.404 288.989 149.682 289.32C149.97 289.651 150.119 290.083 150.13 290.616C150.13 291.096 149.996 291.528 149.73 291.912C149.463 292.296 149.084 292.6 148.594 292.824C148.114 293.037 147.559 293.144 146.93 293.144ZM155.289 293.144C154.617 293.144 154.014 293.032 153.481 292.808C152.948 292.573 152.526 292.253 152.217 291.848C151.908 291.432 151.737 290.957 151.705 290.424H153.209C153.252 290.861 153.454 291.219 153.817 291.496C154.19 291.773 154.676 291.912 155.273 291.912C155.828 291.912 156.265 291.789 156.585 291.544C156.905 291.299 157.065 290.989 157.065 290.616C157.065 290.232 156.894 289.949 156.553 289.768C156.212 289.576 155.684 289.389 154.969 289.208C154.318 289.037 153.785 288.867 153.369 288.696C152.964 288.515 152.612 288.253 152.313 287.912C152.025 287.56 151.881 287.101 151.881 286.536C151.881 286.088 152.014 285.677 152.281 285.304C152.548 284.931 152.926 284.637 153.417 284.424C153.908 284.2 154.468 284.088 155.097 284.088C156.068 284.088 156.852 284.333 157.449 284.824C158.046 285.315 158.366 285.987 158.409 286.84H156.953C156.921 286.381 156.734 286.013 156.393 285.736C156.062 285.459 155.614 285.32 155.049 285.32C154.526 285.32 154.11 285.432 153.801 285.656C153.492 285.88 153.337 286.173 153.337 286.536C153.337 286.824 153.428 287.064 153.609 287.256C153.801 287.437 154.036 287.587 154.313 287.704C154.601 287.811 154.996 287.933 155.497 288.072C156.126 288.243 156.638 288.413 157.033 288.584C157.428 288.744 157.764 288.989 158.041 289.32C158.329 289.651 158.478 290.083 158.489 290.616C158.489 291.096 158.356 291.528 158.089 291.912C157.822 292.296 157.444 292.6 156.953 292.824C156.473 293.037 155.918 293.144 155.289 293.144ZM161.249 280.264L161.073 283.448H160.065L159.873 280.264H161.249ZM163.409 280.264L163.233 283.448H162.225L162.033 280.264H163.409ZM57.2329 304.264L57.0569 307.448H56.0489L55.8569 304.264H57.2329ZM59.3929 304.264L59.2169 307.448H58.2089L58.0169 304.264H59.3929ZM68.3368 306.696H62.7208V310.344C62.9661 310.003 63.3288 309.725 63.8088 309.512C64.2888 309.288 64.8061 309.176 65.3608 309.176C66.2461 309.176 66.9661 309.363 67.5208 309.736C68.0754 310.099 68.4701 310.573 68.7048 311.16C68.9501 311.736 69.0728 312.349 69.0728 313C69.0728 313.768 68.9288 314.456 68.6408 315.064C68.3528 315.672 67.9101 316.152 67.3128 316.504C66.7261 316.856 65.9954 317.032 65.1208 317.032C64.0008 317.032 63.0941 316.744 62.4008 316.168C61.7074 315.592 61.2861 314.824 61.1368 313.864H62.5608C62.6994 314.472 62.9928 314.947 63.4408 315.288C63.8888 315.629 64.4541 315.8 65.1368 315.8C65.9794 315.8 66.6141 315.549 67.0408 315.048C67.4674 314.536 67.6808 313.864 67.6808 313.032C67.6808 312.2 67.4674 311.56 67.0408 311.112C66.6141 310.653 65.9848 310.424 65.1528 310.424C64.5874 310.424 64.0914 310.563 63.6648 310.84C63.2488 311.107 62.9448 311.475 62.7528 311.944H61.3768V305.416H68.3368V306.696ZM72.8796 313.896C72.9863 314.504 73.2316 314.973 73.6156 315.304C74.0103 315.635 74.5383 315.8 75.1996 315.8C76.085 315.8 76.7356 315.453 77.1516 314.76C77.5783 314.067 77.781 312.899 77.7596 311.256C77.5356 311.736 77.1623 312.115 76.6396 312.392C76.117 312.659 75.5356 312.792 74.8956 312.792C74.181 312.792 73.541 312.648 72.9756 312.36C72.421 312.061 71.9836 311.629 71.6636 311.064C71.3436 310.499 71.1836 309.816 71.1836 309.016C71.1836 307.875 71.5143 306.957 72.1756 306.264C72.837 305.56 73.7756 305.208 74.9916 305.208C76.485 305.208 77.5303 305.693 78.1276 306.664C78.7356 307.635 79.0396 309.08 79.0396 311C79.0396 312.344 78.917 313.453 78.6716 314.328C78.437 315.203 78.0316 315.869 77.4556 316.328C76.8903 316.787 76.1116 317.016 75.1196 317.016C74.0316 317.016 73.1836 316.723 72.5756 316.136C71.9676 315.549 71.621 314.803 71.5356 313.896H72.8796ZM75.1356 311.56C75.8503 311.56 76.437 311.341 76.8956 310.904C77.3543 310.456 77.5836 309.853 77.5836 309.096C77.5836 308.296 77.3596 307.651 76.9116 307.16C76.4636 306.669 75.8343 306.424 75.0236 306.424C74.277 306.424 73.6796 306.659 73.2316 307.128C72.7943 307.597 72.5756 308.216 72.5756 308.984C72.5756 309.763 72.7943 310.387 73.2316 310.856C73.669 311.325 74.3036 311.56 75.1356 311.56ZM80.7018 306.76V305.432H83.7098V317H82.2378V306.76H80.7018ZM86.2108 311.096C86.2108 309.261 86.5094 307.832 87.1068 306.808C87.7041 305.773 88.7494 305.256 90.2428 305.256C91.7254 305.256 92.7654 305.773 93.3628 306.808C93.9601 307.832 94.2587 309.261 94.2587 311.096C94.2587 312.963 93.9601 314.413 93.3628 315.448C92.7654 316.483 91.7254 317 90.2428 317C88.7494 317 87.7041 316.483 87.1068 315.448C86.5094 314.413 86.2108 312.963 86.2108 311.096ZM92.8188 311.096C92.8188 310.168 92.7548 309.384 92.6268 308.744C92.5094 308.093 92.2588 307.571 91.8748 307.176C91.5014 306.781 90.9574 306.584 90.2428 306.584C89.5174 306.584 88.9628 306.781 88.5788 307.176C88.2054 307.571 87.9548 308.093 87.8268 308.744C87.7094 309.384 87.6508 310.168 87.6508 311.096C87.6508 312.056 87.7094 312.861 87.8268 313.512C87.9548 314.163 88.2054 314.685 88.5788 315.08C88.9628 315.475 89.5174 315.672 90.2428 315.672C90.9574 315.672 91.5014 315.475 91.8748 315.08C92.2588 314.685 92.5094 314.163 92.6268 313.512C92.7548 312.861 92.8188 312.056 92.8188 311.096ZM97.2016 304.264L97.0256 307.448H96.0176L95.8256 304.264H97.2016ZM99.3616 304.264L99.1856 307.448H98.1776L97.9856 304.264H99.3616ZM68.8266 328.264L68.6506 331.448H67.6426L67.4506 328.264H68.8266ZM70.9866 328.264L70.8106 331.448H69.8026L69.6106 328.264H70.9866ZM77.1465 332.072C77.8078 332.072 78.4052 332.216 78.9385 332.504C79.4718 332.781 79.8878 333.203 80.1865 333.768C80.4958 334.333 80.6505 335.021 80.6505 335.832V341H79.2105V336.04C79.2105 335.165 78.9918 334.499 78.5545 334.04C78.1172 333.571 77.5198 333.336 76.7625 333.336C75.9945 333.336 75.3812 333.576 74.9225 334.056C74.4745 334.536 74.2505 335.235 74.2505 336.152V341H72.7945V329.16H74.2505V333.48C74.5385 333.032 74.9332 332.685 75.4345 332.44C75.9465 332.195 76.5172 332.072 77.1465 332.072ZM84.8049 333.432V338.6C84.8049 339.027 84.8955 339.331 85.0769 339.512C85.2582 339.683 85.5729 339.768 86.0209 339.768H87.0929V341H85.7809C84.9702 341 84.3622 340.813 83.9569 340.44C83.5515 340.067 83.3489 339.453 83.3489 338.6V333.432H82.2129V332.232H83.3489V330.024H84.8049V332.232H87.0929V333.432H84.8049ZM90.633 333.432V338.6C90.633 339.027 90.7237 339.331 90.905 339.512C91.0863 339.683 91.401 339.768 91.849 339.768H92.921V341H91.609C90.7983 341 90.1903 340.813 89.785 340.44C89.3797 340.067 89.177 339.453 89.177 338.6V333.432H88.041V332.232H89.177V330.024H90.633V332.232H92.921V333.432H90.633ZM96.1411 333.848C96.4291 333.347 96.8558 332.931 97.4211 332.6C97.9971 332.259 98.6638 332.088 99.4211 332.088C100.2 332.088 100.904 332.275 101.533 332.648C102.173 333.021 102.674 333.549 103.037 334.232C103.4 334.904 103.581 335.688 103.581 336.584C103.581 337.469 103.4 338.259 103.037 338.952C102.674 339.645 102.173 340.184 101.533 340.568C100.904 340.952 100.2 341.144 99.4211 341.144C98.6745 341.144 98.0131 340.979 97.4371 340.648C96.8718 340.307 96.4398 339.885 96.1411 339.384V345.16H94.6851V332.232H96.1411V333.848ZM102.093 336.584C102.093 335.923 101.96 335.347 101.693 334.856C101.426 334.365 101.064 333.992 100.605 333.736C100.157 333.48 99.6611 333.352 99.1171 333.352C98.5838 333.352 98.0878 333.485 97.6291 333.752C97.1811 334.008 96.8185 334.387 96.5411 334.888C96.2745 335.379 96.1411 335.949 96.1411 336.6C96.1411 337.261 96.2745 337.843 96.5411 338.344C96.8185 338.835 97.1811 339.213 97.6291 339.48C98.0878 339.736 98.5838 339.864 99.1171 339.864C99.6611 339.864 100.157 339.736 100.605 339.48C101.064 339.213 101.426 338.835 101.693 338.344C101.96 337.843 102.093 337.256 102.093 336.584ZM108.602 341.144C107.93 341.144 107.327 341.032 106.794 340.808C106.26 340.573 105.839 340.253 105.53 339.848C105.22 339.432 105.05 338.957 105.018 338.424H106.522C106.564 338.861 106.767 339.219 107.13 339.496C107.503 339.773 107.988 339.912 108.586 339.912C109.14 339.912 109.578 339.789 109.898 339.544C110.218 339.299 110.378 338.989 110.378 338.616C110.378 338.232 110.207 337.949 109.866 337.768C109.524 337.576 108.996 337.389 108.282 337.208C107.631 337.037 107.098 336.867 106.682 336.696C106.276 336.515 105.924 336.253 105.626 335.912C105.338 335.56 105.194 335.101 105.194 334.536C105.194 334.088 105.327 333.677 105.594 333.304C105.86 332.931 106.239 332.637 106.73 332.424C107.22 332.2 107.78 332.088 108.41 332.088C109.38 332.088 110.164 332.333 110.762 332.824C111.359 333.315 111.679 333.987 111.722 334.84H110.266C110.234 334.381 110.047 334.013 109.706 333.736C109.375 333.459 108.927 333.32 108.362 333.32C107.839 333.32 107.423 333.432 107.114 333.656C106.804 333.88 106.65 334.173 106.65 334.536C106.65 334.824 106.74 335.064 106.922 335.256C107.114 335.437 107.348 335.587 107.626 335.704C107.914 335.811 108.308 335.933 108.81 336.072C109.439 336.243 109.951 336.413 110.346 336.584C110.74 336.744 111.076 336.989 111.354 337.32C111.642 337.651 111.791 338.083 111.802 338.616C111.802 339.096 111.668 339.528 111.402 339.912C111.135 340.296 110.756 340.6 110.266 340.824C109.786 341.037 109.231 341.144 108.602 341.144ZM114.321 341.096C114.044 341.096 113.809 341 113.617 340.808C113.425 340.616 113.329 340.381 113.329 340.104C113.329 339.827 113.425 339.592 113.617 339.4C113.809 339.208 114.044 339.112 114.321 339.112C114.588 339.112 114.812 339.208 114.993 339.4C115.185 339.592 115.281 339.827 115.281 340.104C115.281 340.381 115.185 340.616 114.993 340.808C114.812 341 114.588 341.096 114.321 341.096ZM114.321 334.248C114.044 334.248 113.809 334.152 113.617 333.96C113.425 333.768 113.329 333.533 113.329 333.256C113.329 332.979 113.425 332.744 113.617 332.552C113.809 332.36 114.044 332.264 114.321 332.264C114.588 332.264 114.812 332.36 114.993 332.552C115.185 332.744 115.281 332.979 115.281 333.256C115.281 333.533 115.185 333.768 114.993 333.96C114.812 334.152 114.588 334.248 114.321 334.248ZM122.703 325.928L118.319 343.72H116.879L121.247 325.928H122.703ZM130.313 325.928L125.929 343.72H124.489L128.857 325.928H130.313ZM140.482 336.28C140.482 336.557 140.466 336.851 140.434 337.16H133.426C133.479 338.024 133.773 338.701 134.306 339.192C134.85 339.672 135.506 339.912 136.274 339.912C136.903 339.912 137.426 339.768 137.842 339.48C138.269 339.181 138.567 338.787 138.738 338.296H140.306C140.071 339.139 139.602 339.827 138.898 340.36C138.194 340.883 137.319 341.144 136.274 341.144C135.442 341.144 134.695 340.957 134.034 340.584C133.383 340.211 132.871 339.683 132.498 339C132.125 338.307 131.938 337.507 131.938 336.6C131.938 335.693 132.119 334.899 132.482 334.216C132.845 333.533 133.351 333.011 134.002 332.648C134.663 332.275 135.421 332.088 136.274 332.088C137.106 332.088 137.842 332.269 138.482 332.632C139.122 332.995 139.613 333.496 139.954 334.136C140.306 334.765 140.482 335.48 140.482 336.28ZM138.978 335.976C138.978 335.421 138.855 334.947 138.61 334.552C138.365 334.147 138.029 333.843 137.602 333.64C137.186 333.427 136.722 333.32 136.21 333.32C135.474 333.32 134.845 333.555 134.322 334.024C133.81 334.493 133.517 335.144 133.442 335.976H138.978ZM143.86 329.16V341H142.404V329.16H143.86ZM150.165 341.144C149.344 341.144 148.597 340.957 147.925 340.584C147.264 340.211 146.741 339.683 146.357 339C145.984 338.307 145.797 337.507 145.797 336.6C145.797 335.704 145.989 334.915 146.373 334.232C146.768 333.539 147.301 333.011 147.973 332.648C148.645 332.275 149.397 332.088 150.229 332.088C151.061 332.088 151.813 332.275 152.485 332.648C153.157 333.011 153.685 333.533 154.069 334.216C154.464 334.899 154.661 335.693 154.661 336.6C154.661 337.507 154.459 338.307 154.053 339C153.659 339.683 153.12 340.211 152.437 340.584C151.755 340.957 150.997 341.144 150.165 341.144ZM150.165 339.864C150.688 339.864 151.179 339.741 151.637 339.496C152.096 339.251 152.464 338.883 152.741 338.392C153.029 337.901 153.173 337.304 153.173 336.6C153.173 335.896 153.035 335.299 152.757 334.808C152.48 334.317 152.117 333.955 151.669 333.72C151.221 333.475 150.736 333.352 150.213 333.352C149.68 333.352 149.189 333.475 148.741 333.72C148.304 333.955 147.952 334.317 147.685 334.808C147.419 335.299 147.285 335.896 147.285 336.6C147.285 337.315 147.413 337.917 147.669 338.408C147.936 338.899 148.288 339.267 148.725 339.512C149.163 339.747 149.643 339.864 150.165 339.864ZM160.848 332.072C161.914 332.072 162.778 332.397 163.44 333.048C164.101 333.688 164.432 334.616 164.432 335.832V341H162.992V336.04C162.992 335.165 162.773 334.499 162.336 334.04C161.898 333.571 161.301 333.336 160.544 333.336C159.776 333.336 159.162 333.576 158.704 334.056C158.256 334.536 158.032 335.235 158.032 336.152V341H156.576V332.232H158.032V333.48C158.32 333.032 158.709 332.685 159.2 332.44C159.701 332.195 160.25 332.072 160.848 332.072ZM177.354 332.072C178.037 332.072 178.645 332.216 179.178 332.504C179.711 332.781 180.133 333.203 180.442 333.768C180.751 334.333 180.906 335.021 180.906 335.832V341H179.466V336.04C179.466 335.165 179.247 334.499 178.81 334.04C178.383 333.571 177.802 333.336 177.066 333.336C176.309 333.336 175.706 333.581 175.258 334.072C174.81 334.552 174.586 335.251 174.586 336.168V341H173.146V336.04C173.146 335.165 172.927 334.499 172.49 334.04C172.063 333.571 171.482 333.336 170.746 333.336C169.989 333.336 169.386 333.581 168.938 334.072C168.49 334.552 168.266 335.251 168.266 336.168V341H166.81V332.232H168.266V333.496C168.554 333.037 168.938 332.685 169.418 332.44C169.909 332.195 170.447 332.072 171.034 332.072C171.77 332.072 172.421 332.237 172.986 332.568C173.551 332.899 173.973 333.384 174.25 334.024C174.495 333.405 174.901 332.925 175.466 332.584C176.031 332.243 176.661 332.072 177.354 332.072ZM182.751 336.584C182.751 335.688 182.932 334.904 183.295 334.232C183.657 333.549 184.153 333.021 184.783 332.648C185.423 332.275 186.132 332.088 186.911 332.088C187.679 332.088 188.345 332.253 188.911 332.584C189.476 332.915 189.897 333.331 190.175 333.832V332.232H191.647V341H190.175V339.368C189.887 339.88 189.455 340.307 188.879 340.648C188.313 340.979 187.652 341.144 186.895 341.144C186.116 341.144 185.412 340.952 184.783 340.568C184.153 340.184 183.657 339.645 183.295 338.952C182.932 338.259 182.751 337.469 182.751 336.584ZM190.175 336.6C190.175 335.939 190.041 335.363 189.775 334.872C189.508 334.381 189.145 334.008 188.687 333.752C188.239 333.485 187.743 333.352 187.199 333.352C186.655 333.352 186.159 333.48 185.711 333.736C185.263 333.992 184.905 334.365 184.639 334.856C184.372 335.347 184.239 335.923 184.239 336.584C184.239 337.256 184.372 337.843 184.639 338.344C184.905 338.835 185.263 339.213 185.711 339.48C186.159 339.736 186.655 339.864 187.199 339.864C187.743 339.864 188.239 339.736 188.687 339.48C189.145 339.213 189.508 338.835 189.775 338.344C190.041 337.843 190.175 337.261 190.175 336.6ZM197.211 341.144C196.539 341.144 195.936 341.032 195.403 340.808C194.87 340.573 194.448 340.253 194.139 339.848C193.83 339.432 193.659 338.957 193.627 338.424H195.131C195.174 338.861 195.376 339.219 195.739 339.496C196.112 339.773 196.598 339.912 197.195 339.912C197.75 339.912 198.187 339.789 198.507 339.544C198.827 339.299 198.987 338.989 198.987 338.616C198.987 338.232 198.816 337.949 198.475 337.768C198.134 337.576 197.606 337.389 196.891 337.208C196.24 337.037 195.707 336.867 195.291 336.696C194.886 336.515 194.534 336.253 194.235 335.912C193.947 335.56 193.803 335.101 193.803 334.536C193.803 334.088 193.936 333.677 194.203 333.304C194.47 332.931 194.848 332.637 195.339 332.424C195.83 332.2 196.39 332.088 197.019 332.088C197.99 332.088 198.774 332.333 199.371 332.824C199.968 333.315 200.288 333.987 200.331 334.84H198.875C198.843 334.381 198.656 334.013 198.315 333.736C197.984 333.459 197.536 333.32 196.971 333.32C196.448 333.32 196.032 333.432 195.723 333.656C195.414 333.88 195.259 334.173 195.259 334.536C195.259 334.824 195.35 335.064 195.531 335.256C195.723 335.437 195.958 335.587 196.235 335.704C196.523 335.811 196.918 335.933 197.419 336.072C198.048 336.243 198.56 336.413 198.955 336.584C199.35 336.744 199.686 336.989 199.963 337.32C200.251 337.651 200.4 338.083 200.411 338.616C200.411 339.096 200.278 339.528 200.011 339.912C199.744 340.296 199.366 340.6 198.875 340.824C198.395 341.037 197.84 341.144 197.211 341.144ZM207.362 341L203.922 337.128V341H202.466V329.16H203.922V336.12L207.298 332.232H209.33L205.202 336.6L209.346 341H207.362ZM216.141 325.928L211.757 343.72H210.317L214.685 325.928H216.141ZM220.086 333.432V338.6C220.086 339.027 220.177 339.331 220.358 339.512C220.539 339.683 220.854 339.768 221.302 339.768H222.374V341H221.062C220.251 341 219.643 340.813 219.238 340.44C218.833 340.067 218.63 339.453 218.63 338.6V333.432H217.494V332.232H218.63V330.024H220.086V332.232H222.374V333.432H220.086ZM232.138 336.28C232.138 336.557 232.122 336.851 232.09 337.16H225.082C225.136 338.024 225.429 338.701 225.962 339.192C226.506 339.672 227.162 339.912 227.93 339.912C228.56 339.912 229.082 339.768 229.498 339.48C229.925 339.181 230.224 338.787 230.394 338.296H231.962C231.728 339.139 231.258 339.827 230.554 340.36C229.85 340.883 228.976 341.144 227.93 341.144C227.098 341.144 226.352 340.957 225.69 340.584C225.04 340.211 224.528 339.683 224.154 339C223.781 338.307 223.594 337.507 223.594 336.6C223.594 335.693 223.776 334.899 224.138 334.216C224.501 333.533 225.008 333.011 225.658 332.648C226.32 332.275 227.077 332.088 227.93 332.088C228.762 332.088 229.498 332.269 230.138 332.632C230.778 332.995 231.269 333.496 231.61 334.136C231.962 334.765 232.138 335.48 232.138 336.28ZM230.634 335.976C230.634 335.421 230.512 334.947 230.266 334.552C230.021 334.147 229.685 333.843 229.258 333.64C228.842 333.427 228.378 333.32 227.866 333.32C227.13 333.32 226.501 333.555 225.978 334.024C225.466 334.493 225.173 335.144 225.098 335.976H230.634ZM237.164 341.144C236.492 341.144 235.889 341.032 235.356 340.808C234.823 340.573 234.401 340.253 234.092 339.848C233.783 339.432 233.612 338.957 233.58 338.424H235.084C235.127 338.861 235.329 339.219 235.692 339.496C236.065 339.773 236.551 339.912 237.148 339.912C237.703 339.912 238.14 339.789 238.46 339.544C238.78 339.299 238.94 338.989 238.94 338.616C238.94 338.232 238.769 337.949 238.428 337.768C238.087 337.576 237.559 337.389 236.844 337.208C236.193 337.037 235.66 336.867 235.244 336.696C234.839 336.515 234.487 336.253 234.188 335.912C233.9 335.56 233.756 335.101 233.756 334.536C233.756 334.088 233.889 333.677 234.156 333.304C234.423 332.931 234.801 332.637 235.292 332.424C235.783 332.2 236.343 332.088 236.972 332.088C237.943 332.088 238.727 332.333 239.324 332.824C239.921 333.315 240.241 333.987 240.284 334.84H238.828C238.796 334.381 238.609 334.013 238.268 333.736C237.937 333.459 237.489 333.32 236.924 333.32C236.401 333.32 235.985 333.432 235.676 333.656C235.367 333.88 235.212 334.173 235.212 334.536C235.212 334.824 235.303 335.064 235.484 335.256C235.676 335.437 235.911 335.587 236.188 335.704C236.476 335.811 236.871 335.933 237.372 336.072C238.001 336.243 238.513 336.413 238.908 336.584C239.303 336.744 239.639 336.989 239.916 337.32C240.204 337.651 240.353 338.083 240.364 338.616C240.364 339.096 240.231 339.528 239.964 339.912C239.697 340.296 239.319 340.6 238.828 340.824C238.348 341.037 237.793 341.144 237.164 341.144ZM244.196 333.432V338.6C244.196 339.027 244.286 339.331 244.468 339.512C244.649 339.683 244.964 339.768 245.411 339.768H246.484V341H245.172C244.361 341 243.753 340.813 243.348 340.44C242.942 340.067 242.74 339.453 242.74 338.6V333.432H241.604V332.232H242.74V330.024H244.196V332.232H246.484V333.432H244.196ZM248.952 328.264L248.776 331.448H247.768L247.576 328.264H248.952ZM251.112 328.264L250.936 331.448H249.928L249.736 328.264H251.112ZM109.186 352.264L109.01 355.448H108.002L107.81 352.264H109.186ZM111.346 352.264L111.17 355.448H110.162L109.97 352.264H111.346ZM112.53 354.76V353.432H115.538V365H114.066V354.76H112.53ZM118.039 359.096C118.039 357.261 118.338 355.832 118.935 354.808C119.532 353.773 120.578 353.256 122.071 353.256C123.554 353.256 124.594 353.773 125.191 354.808C125.788 355.832 126.087 357.261 126.087 359.096C126.087 360.963 125.788 362.413 125.191 363.448C124.594 364.483 123.554 365 122.071 365C120.578 365 119.532 364.483 118.935 363.448C118.338 362.413 118.039 360.963 118.039 359.096ZM124.647 359.096C124.647 358.168 124.583 357.384 124.455 356.744C124.338 356.093 124.087 355.571 123.703 355.176C123.33 354.781 122.786 354.584 122.071 354.584C121.346 354.584 120.791 354.781 120.407 355.176C120.034 355.571 119.783 356.093 119.655 356.744C119.538 357.384 119.479 358.168 119.479 359.096C119.479 360.056 119.538 360.861 119.655 361.512C119.783 362.163 120.034 362.685 120.407 363.08C120.791 363.475 121.346 363.672 122.071 363.672C122.786 363.672 123.33 363.475 123.703 363.08C124.087 362.685 124.338 362.163 124.455 361.512C124.583 360.861 124.647 360.056 124.647 359.096ZM128.086 359.096C128.086 357.261 128.384 355.832 128.982 354.808C129.579 353.773 130.624 353.256 132.118 353.256C133.6 353.256 134.64 353.773 135.238 354.808C135.835 355.832 136.134 357.261 136.134 359.096C136.134 360.963 135.835 362.413 135.238 363.448C134.64 364.483 133.6 365 132.118 365C130.624 365 129.579 364.483 128.982 363.448C128.384 362.413 128.086 360.963 128.086 359.096ZM134.694 359.096C134.694 358.168 134.63 357.384 134.502 356.744C134.384 356.093 134.134 355.571 133.75 355.176C133.376 354.781 132.832 354.584 132.118 354.584C131.392 354.584 130.838 354.781 130.454 355.176C130.08 355.571 129.83 356.093 129.702 356.744C129.584 357.384 129.526 358.168 129.526 359.096C129.526 360.056 129.584 360.861 129.702 361.512C129.83 362.163 130.08 362.685 130.454 363.08C130.838 363.475 131.392 363.672 132.118 363.672C132.832 363.672 133.376 363.475 133.75 363.08C134.134 362.685 134.384 362.163 134.502 361.512C134.63 360.861 134.694 360.056 134.694 359.096ZM138.133 359.096C138.133 357.261 138.431 355.832 139.029 354.808C139.626 353.773 140.671 353.256 142.165 353.256C143.647 353.256 144.687 353.773 145.285 354.808C145.882 355.832 146.181 357.261 146.181 359.096C146.181 360.963 145.882 362.413 145.285 363.448C144.687 364.483 143.647 365 142.165 365C140.671 365 139.626 364.483 139.029 363.448C138.431 362.413 138.133 360.963 138.133 359.096ZM144.741 359.096C144.741 358.168 144.677 357.384 144.549 356.744C144.431 356.093 144.181 355.571 143.797 355.176C143.423 354.781 142.879 354.584 142.165 354.584C141.439 354.584 140.885 354.781 140.501 355.176C140.127 355.571 139.877 356.093 139.749 356.744C139.631 357.384 139.573 358.168 139.573 359.096C139.573 360.056 139.631 360.861 139.749 361.512C139.877 362.163 140.127 362.685 140.501 363.08C140.885 363.475 141.439 363.672 142.165 363.672C142.879 363.672 143.423 363.475 143.797 363.08C144.181 362.685 144.431 362.163 144.549 361.512C144.677 360.861 144.741 360.056 144.741 359.096ZM148.18 359.096C148.18 357.261 148.478 355.832 149.076 354.808C149.673 353.773 150.718 353.256 152.212 353.256C153.694 353.256 154.734 353.773 155.332 354.808C155.929 355.832 156.227 357.261 156.227 359.096C156.227 360.963 155.929 362.413 155.332 363.448C154.734 364.483 153.694 365 152.212 365C150.718 365 149.673 364.483 149.076 363.448C148.478 362.413 148.18 360.963 148.18 359.096ZM154.788 359.096C154.788 358.168 154.724 357.384 154.596 356.744C154.478 356.093 154.228 355.571 153.844 355.176C153.47 354.781 152.926 354.584 152.212 354.584C151.486 354.584 150.932 354.781 150.548 355.176C150.174 355.571 149.924 356.093 149.796 356.744C149.678 357.384 149.62 358.168 149.62 359.096C149.62 360.056 149.678 360.861 149.796 361.512C149.924 362.163 150.174 362.685 150.548 363.08C150.932 363.475 151.486 363.672 152.212 363.672C152.926 363.672 153.47 363.475 153.844 363.08C154.228 362.685 154.478 362.163 154.596 361.512C154.724 360.861 154.788 360.056 154.788 359.096ZM158.226 359.096C158.226 357.261 158.525 355.832 159.122 354.808C159.72 353.773 160.765 353.256 162.258 353.256C163.741 353.256 164.781 353.773 165.378 354.808C165.976 355.832 166.274 357.261 166.274 359.096C166.274 360.963 165.976 362.413 165.378 363.448C164.781 364.483 163.741 365 162.258 365C160.765 365 159.72 364.483 159.122 363.448C158.525 362.413 158.226 360.963 158.226 359.096ZM164.834 359.096C164.834 358.168 164.77 357.384 164.642 356.744C164.525 356.093 164.274 355.571 163.89 355.176C163.517 354.781 162.973 354.584 162.258 354.584C161.533 354.584 160.978 354.781 160.594 355.176C160.221 355.571 159.97 356.093 159.842 356.744C159.725 357.384 159.666 358.168 159.666 359.096C159.666 360.056 159.725 360.861 159.842 361.512C159.97 362.163 160.221 362.685 160.594 363.08C160.978 363.475 161.533 363.672 162.258 363.672C162.973 363.672 163.517 363.475 163.89 363.08C164.274 362.685 164.525 362.163 164.642 361.512C164.77 360.861 164.834 360.056 164.834 359.096ZM168.273 359.096C168.273 357.261 168.572 355.832 169.169 354.808C169.767 353.773 170.812 353.256 172.305 353.256C173.788 353.256 174.828 353.773 175.425 354.808C176.023 355.832 176.321 357.261 176.321 359.096C176.321 360.963 176.023 362.413 175.425 363.448C174.828 364.483 173.788 365 172.305 365C170.812 365 169.767 364.483 169.169 363.448C168.572 362.413 168.273 360.963 168.273 359.096ZM174.881 359.096C174.881 358.168 174.817 357.384 174.689 356.744C174.572 356.093 174.321 355.571 173.937 355.176C173.564 354.781 173.02 354.584 172.305 354.584C171.58 354.584 171.025 354.781 170.641 355.176C170.268 355.571 170.017 356.093 169.889 356.744C169.772 357.384 169.713 358.168 169.713 359.096C169.713 360.056 169.772 360.861 169.889 361.512C170.017 362.163 170.268 362.685 170.641 363.08C171.025 363.475 171.58 363.672 172.305 363.672C173.02 363.672 173.564 363.475 173.937 363.08C174.321 362.685 174.572 362.163 174.689 361.512C174.817 360.861 174.881 360.056 174.881 359.096ZM179.264 352.264L179.088 355.448H178.08L177.888 352.264H179.264ZM181.424 352.264L181.248 355.448H180.24L180.048 352.264H181.424ZM20.712 407.592C19.624 407.795 19.08 408.355 19.08 409.272C19.08 409.677 19.1333 410.371 19.24 411.352C19.3467 412.397 19.4 413.155 19.4 413.624C19.4 414.392 19.1813 414.979 18.744 415.384C18.3173 415.789 17.7413 415.992 17.016 415.992H16.088V414.728H16.744C17.16 414.728 17.4693 414.632 17.672 414.44C17.8747 414.259 17.976 413.955 17.976 413.528C17.976 413.219 17.9547 412.84 17.912 412.392C17.8693 411.933 17.8427 411.624 17.832 411.464C17.7253 410.44 17.672 409.693 17.672 409.224C17.672 408.659 17.8107 408.184 18.088 407.8C18.376 407.416 18.8133 407.16 19.4 407.032V407C18.8133 406.872 18.376 406.621 18.088 406.248C17.8107 405.864 17.672 405.389 17.672 404.824C17.672 404.355 17.7253 403.608 17.832 402.584C17.8427 402.424 17.8693 402.12 17.912 401.672C17.9547 401.213 17.976 400.829 17.976 400.52C17.976 400.093 17.8747 399.789 17.672 399.608C17.4693 399.416 17.16 399.32 16.744 399.32H16.088V398.056H17.016C17.7413 398.056 18.3173 398.259 18.744 398.664C19.1813 399.069 19.4 399.656 19.4 400.424C19.4 400.893 19.3467 401.651 19.24 402.696C19.1333 403.677 19.08 404.371 19.08 404.776C19.08 405.693 19.624 406.253 20.712 406.456V407.592Z" fill="#18202B"/>
<path d="M75.4616 293.096C75.1843 293.096 74.9496 293 74.7576 292.808C74.5656 292.616 74.4696 292.381 74.4696 292.104C74.4696 291.827 74.5656 291.592 74.7576 291.4C74.9496 291.208 75.1843 291.112 75.4616 291.112C75.7283 291.112 75.9523 291.208 76.1336 291.4C76.3256 291.592 76.4216 291.827 76.4216 292.104C76.4216 292.381 76.3256 292.616 76.1336 292.808C75.9523 293 75.7283 293.096 75.4616 293.096ZM75.4616 286.248C75.1843 286.248 74.9496 286.152 74.7576 285.96C74.5656 285.768 74.4696 285.533 74.4696 285.256C74.4696 284.979 74.5656 284.744 74.7576 284.552C74.9496 284.36 75.1843 284.264 75.4616 284.264C75.7283 284.264 75.9523 284.36 76.1336 284.552C76.3256 284.744 76.4216 284.979 76.4216 285.256C76.4216 285.533 76.3256 285.768 76.1336 285.96C75.9523 286.152 75.7283 286.248 75.4616 286.248ZM166.72 290.984L164.928 295.288H163.952L165.12 290.984H166.72ZM40.7898 317.096C40.5124 317.096 40.2778 317 40.0858 316.808C39.8938 316.616 39.7978 316.381 39.7978 316.104C39.7978 315.827 39.8938 315.592 40.0858 315.4C40.2778 315.208 40.5124 315.112 40.7898 315.112C41.0564 315.112 41.2804 315.208 41.4618 315.4C41.6538 315.592 41.7498 315.827 41.7498 316.104C41.7498 316.381 41.6538 316.616 41.4618 316.808C41.2804 317 41.0564 317.096 40.7898 317.096ZM40.7898 310.248C40.5124 310.248 40.2778 310.152 40.0858 309.96C39.8938 309.768 39.7978 309.533 39.7978 309.256C39.7978 308.979 39.8938 308.744 40.0858 308.552C40.2778 308.36 40.5124 308.264 40.7898 308.264C41.0564 308.264 41.2804 308.36 41.4618 308.552C41.6538 308.744 41.7498 308.979 41.7498 309.256C41.7498 309.533 41.6538 309.768 41.4618 309.96C41.2804 310.152 41.0564 310.248 40.7898 310.248ZM102.674 314.984L100.882 319.288H99.9055L101.074 314.984H102.674ZM52.3835 341.096C52.1062 341.096 51.8715 341 51.6795 340.808C51.4875 340.616 51.3915 340.381 51.3915 340.104C51.3915 339.827 51.4875 339.592 51.6795 339.4C51.8715 339.208 52.1062 339.112 52.3835 339.112C52.6502 339.112 52.8742 339.208 53.0555 339.4C53.2475 339.592 53.3435 339.827 53.3435 340.104C53.3435 340.381 53.2475 340.616 53.0555 340.808C52.8742 341 52.6502 341.096 52.3835 341.096ZM52.3835 334.248C52.1062 334.248 51.8715 334.152 51.6795 333.96C51.4875 333.768 51.3915 333.533 51.3915 333.256C51.3915 332.979 51.4875 332.744 51.6795 332.552C51.8715 332.36 52.1062 332.264 52.3835 332.264C52.6502 332.264 52.8742 332.36 53.0555 332.552C53.2475 332.744 53.3435 332.979 53.3435 333.256C53.3435 333.533 53.2475 333.768 53.0555 333.96C52.8742 334.152 52.6502 334.248 52.3835 334.248ZM254.424 338.984L252.632 343.288H251.655L252.824 338.984H254.424ZM92.7429 365.096C92.4655 365.096 92.2309 365 92.0389 364.808C91.8469 364.616 91.7509 364.381 91.7509 364.104C91.7509 363.827 91.8469 363.592 92.0389 363.4C92.2309 363.208 92.4655 363.112 92.7429 363.112C93.0095 363.112 93.2335 363.208 93.4149 363.4C93.6069 363.592 93.7029 363.827 93.7029 364.104C93.7029 364.381 93.6069 364.616 93.4149 364.808C93.2335 365 93.0095 365.096 92.7429 365.096ZM92.7429 358.248C92.4655 358.248 92.2309 358.152 92.0389 357.96C91.8469 357.768 91.7509 357.533 91.7509 357.256C91.7509 356.979 91.8469 356.744 92.0389 356.552C92.2309 356.36 92.4655 356.264 92.7429 356.264C93.0095 356.264 93.2335 356.36 93.4149 356.552C93.6069 356.744 93.7029 356.979 93.7029 357.256C93.7029 357.533 93.6069 357.768 93.4149 357.96C93.2335 358.152 93.0095 358.248 92.7429 358.248Z" fill="white"/>
<path d="M16.936 280.264L16.76 283.448H15.752L15.56 280.264H16.936ZM19.096 280.264L18.92 283.448H17.912L17.72 280.264H19.096ZM24.0079 293.144C23.3359 293.144 22.7332 293.032 22.1999 292.808C21.6665 292.573 21.2452 292.253 20.9359 291.848C20.6265 291.432 20.4559 290.957 20.4239 290.424H21.9279C21.9705 290.861 22.1732 291.219 22.5359 291.496C22.9092 291.773 23.3945 291.912 23.9919 291.912C24.5465 291.912 24.9839 291.789 25.3039 291.544C25.6239 291.299 25.7839 290.989 25.7839 290.616C25.7839 290.232 25.6132 289.949 25.2719 289.768C24.9305 289.576 24.4025 289.389 23.6879 289.208C23.0372 289.037 22.5039 288.867 22.0879 288.696C21.6825 288.515 21.3305 288.253 21.0319 287.912C20.7439 287.56 20.5999 287.101 20.5999 286.536C20.5999 286.088 20.7332 285.677 20.9999 285.304C21.2665 284.931 21.6452 284.637 22.1359 284.424C22.6265 284.2 23.1865 284.088 23.8159 284.088C24.7865 284.088 25.5705 284.333 26.1679 284.824C26.7652 285.315 27.0852 285.987 27.1279 286.84H25.6719C25.6399 286.381 25.4532 286.013 25.1119 285.736C24.7812 285.459 24.3332 285.32 23.7679 285.32C23.2452 285.32 22.8292 285.432 22.5199 285.656C22.2105 285.88 22.0559 286.173 22.0559 286.536C22.0559 286.824 22.1465 287.064 22.3279 287.256C22.5199 287.437 22.7545 287.587 23.0319 287.704C23.3199 287.811 23.7145 287.933 24.2159 288.072C24.8452 288.243 25.3572 288.413 25.7519 288.584C26.1465 288.744 26.4825 288.989 26.7599 289.32C27.0479 289.651 27.1972 290.083 27.2079 290.616C27.2079 291.096 27.0745 291.528 26.8079 291.912C26.5412 292.296 26.1625 292.6 25.6719 292.824C25.1919 293.037 24.6372 293.144 24.0079 293.144ZM31.0393 285.432V290.6C31.0393 291.027 31.1299 291.331 31.3113 291.512C31.4926 291.683 31.8073 291.768 32.2552 291.768H33.3273V293H32.0153C31.2046 293 30.5966 292.813 30.1913 292.44C29.7859 292.067 29.5833 291.453 29.5833 290.6V285.432H28.4473V284.232H29.5833V282.024H31.0393V284.232H33.3273V285.432H31.0393ZM34.5474 288.584C34.5474 287.688 34.7287 286.904 35.0914 286.232C35.454 285.549 35.95 285.021 36.5794 284.648C37.2194 284.275 37.9287 284.088 38.7074 284.088C39.4754 284.088 40.142 284.253 40.7074 284.584C41.2727 284.915 41.694 285.331 41.9714 285.832V284.232H43.4434V293H41.9714V291.368C41.6834 291.88 41.2514 292.307 40.6754 292.648C40.11 292.979 39.4487 293.144 38.6914 293.144C37.9127 293.144 37.2087 292.952 36.5794 292.568C35.95 292.184 35.454 291.645 35.0914 290.952C34.7287 290.259 34.5474 289.469 34.5474 288.584ZM41.9714 288.6C41.9714 287.939 41.838 287.363 41.5714 286.872C41.3047 286.381 40.942 286.008 40.4834 285.752C40.0354 285.485 39.5394 285.352 38.9954 285.352C38.4514 285.352 37.9554 285.48 37.5074 285.736C37.0594 285.992 36.702 286.365 36.4354 286.856C36.1687 287.347 36.0354 287.923 36.0354 288.584C36.0354 289.256 36.1687 289.843 36.4354 290.344C36.702 290.835 37.0594 291.213 37.5074 291.48C37.9554 291.736 38.4514 291.864 38.9954 291.864C39.5394 291.864 40.0354 291.736 40.4834 291.48C40.942 291.213 41.3047 290.835 41.5714 290.344C41.838 289.843 41.9714 289.261 41.9714 288.6ZM47.6799 285.432V290.6C47.6799 291.027 47.7705 291.331 47.9519 291.512C48.1332 291.683 48.4479 291.768 48.8959 291.768H49.9679V293H48.6559C47.8452 293 47.2372 292.813 46.8319 292.44C46.4265 292.067 46.2239 291.453 46.2239 290.6V285.432H45.0879V284.232H46.2239V282.024H47.6799V284.232H49.9679V285.432H47.6799ZM59.508 284.232V293H58.052V291.704C57.7747 292.152 57.3853 292.504 56.884 292.76C56.3933 293.005 55.8493 293.128 55.252 293.128C54.5693 293.128 53.956 292.989 53.412 292.712C52.868 292.424 52.436 291.997 52.116 291.432C51.8067 290.867 51.652 290.179 51.652 289.368V284.232H53.092V289.176C53.092 290.04 53.3107 290.707 53.748 291.176C54.1853 291.635 54.7827 291.864 55.54 291.864C56.3187 291.864 56.932 291.624 57.38 291.144C57.828 290.664 58.052 289.965 58.052 289.048V284.232H59.508ZM65.0704 293.144C64.3984 293.144 63.7957 293.032 63.2624 292.808C62.729 292.573 62.3077 292.253 61.9984 291.848C61.689 291.432 61.5184 290.957 61.4864 290.424H62.9904C63.033 290.861 63.2357 291.219 63.5984 291.496C63.9717 291.773 64.457 291.912 65.0544 291.912C65.609 291.912 66.0464 291.789 66.3664 291.544C66.6864 291.299 66.8464 290.989 66.8464 290.616C66.8464 290.232 66.6757 289.949 66.3344 289.768C65.993 289.576 65.465 289.389 64.7504 289.208C64.0997 289.037 63.5664 288.867 63.1504 288.696C62.745 288.515 62.393 288.253 62.0944 287.912C61.8064 287.56 61.6624 287.101 61.6624 286.536C61.6624 286.088 61.7957 285.677 62.0624 285.304C62.329 284.931 62.7077 284.637 63.1984 284.424C63.689 284.2 64.249 284.088 64.8784 284.088C65.849 284.088 66.633 284.333 67.2304 284.824C67.8277 285.315 68.1477 285.987 68.1904 286.84H66.7344C66.7024 286.381 66.5157 286.013 66.1744 285.736C65.8437 285.459 65.3957 285.32 64.8304 285.32C64.3077 285.32 63.8917 285.432 63.5824 285.656C63.273 285.88 63.1184 286.173 63.1184 286.536C63.1184 286.824 63.209 287.064 63.3904 287.256C63.5824 287.437 63.817 287.587 64.0944 287.704C64.3824 287.811 64.777 287.933 65.2784 288.072C65.9077 288.243 66.4197 288.413 66.8144 288.584C67.209 288.744 67.545 288.989 67.8224 289.32C68.1104 289.651 68.2597 290.083 68.2704 290.616C68.2704 291.096 68.137 291.528 67.8704 291.912C67.6037 292.296 67.225 292.6 66.7344 292.824C66.2544 293.037 65.6997 293.144 65.0704 293.144ZM71.0298 280.264L70.8538 283.448H69.8458L69.6538 280.264H71.0298ZM73.1898 280.264L73.0138 283.448H72.0058L71.8138 280.264H73.1898ZM16.936 304.264L16.76 307.448H15.752L15.56 304.264H16.936ZM19.096 304.264L18.92 307.448H17.912L17.72 304.264H19.096ZM21.6559 306.808C21.3785 306.808 21.1439 306.712 20.9519 306.52C20.7599 306.328 20.6639 306.093 20.6639 305.816C20.6639 305.539 20.7599 305.304 20.9519 305.112C21.1439 304.92 21.3785 304.824 21.6559 304.824C21.9225 304.824 22.1465 304.92 22.3279 305.112C22.5199 305.304 22.6159 305.539 22.6159 305.816C22.6159 306.093 22.5199 306.328 22.3279 306.52C22.1465 306.712 21.9225 306.808 21.6559 306.808ZM22.3599 308.232V317H20.9039V308.232H22.3599ZM24.2974 312.584C24.2974 311.688 24.4787 310.904 24.8414 310.232C25.204 309.549 25.7 309.021 26.3294 308.648C26.9694 308.275 27.684 308.088 28.4734 308.088C29.156 308.088 29.7907 308.248 30.3774 308.568C30.964 308.877 31.412 309.288 31.7214 309.8V305.16H33.1934V317H31.7214V315.352C31.4334 315.875 31.0067 316.307 30.4414 316.648C29.876 316.979 29.2147 317.144 28.4574 317.144C27.6787 317.144 26.9694 316.952 26.3294 316.568C25.7 316.184 25.204 315.645 24.8414 314.952C24.4787 314.259 24.2974 313.469 24.2974 312.584ZM31.7214 312.6C31.7214 311.939 31.588 311.363 31.3214 310.872C31.0547 310.381 30.692 310.008 30.2334 309.752C29.7854 309.485 29.2894 309.352 28.7454 309.352C28.2014 309.352 27.7054 309.48 27.2574 309.736C26.8094 309.992 26.452 310.365 26.1854 310.856C25.9187 311.347 25.7854 311.923 25.7854 312.584C25.7854 313.256 25.9187 313.843 26.1854 314.344C26.452 314.835 26.8094 315.213 27.2574 315.48C27.7054 315.736 28.2014 315.864 28.7454 315.864C29.2894 315.864 29.7854 315.736 30.2334 315.48C30.692 315.213 31.0547 314.835 31.3214 314.344C31.588 313.843 31.7214 313.261 31.7214 312.6ZM36.3579 304.264L36.1819 307.448H35.1739L34.9819 304.264H36.3579ZM38.5179 304.264L38.3419 307.448H37.3339L37.1419 304.264H38.5179ZM16.936 328.264L16.76 331.448H15.752L15.56 328.264H16.936ZM19.096 328.264L18.92 331.448H17.912L17.72 328.264H19.096ZM22.3599 329.16V341H20.9039V329.16H22.3599ZM25.5934 330.808C25.316 330.808 25.0814 330.712 24.8894 330.52C24.6974 330.328 24.6014 330.093 24.6014 329.816C24.6014 329.539 24.6974 329.304 24.8894 329.112C25.0814 328.92 25.316 328.824 25.5934 328.824C25.86 328.824 26.084 328.92 26.2654 329.112C26.4574 329.304 26.5534 329.539 26.5534 329.816C26.5534 330.093 26.4574 330.328 26.2654 330.52C26.084 330.712 25.86 330.808 25.5934 330.808ZM26.2974 332.232V341H24.8414V332.232H26.2974ZM33.0509 332.072C34.1175 332.072 34.9815 332.397 35.6429 333.048C36.3042 333.688 36.6349 334.616 36.6349 335.832V341H35.1949V336.04C35.1949 335.165 34.9762 334.499 34.5389 334.04C34.1015 333.571 33.5042 333.336 32.7469 333.336C31.9789 333.336 31.3655 333.576 30.9069 334.056C30.4589 334.536 30.2349 335.235 30.2349 336.152V341H28.7789V332.232H30.2349V333.48C30.5229 333.032 30.9122 332.685 31.4029 332.44C31.9042 332.195 32.4535 332.072 33.0509 332.072ZM43.9093 341L40.4693 337.128V341H39.0133V329.16H40.4693V336.12L43.8453 332.232H45.8773L41.7493 336.6L45.8933 341H43.9093ZM47.9516 328.264L47.7756 331.448H46.7676L46.5756 328.264H47.9516ZM50.1116 328.264L49.9356 331.448H48.9276L48.7356 328.264H50.1116ZM16.936 352.264L16.76 355.448H15.752L15.56 352.264H16.936ZM19.096 352.264L18.92 355.448H17.912L17.72 352.264H19.096ZM20.3599 360.584C20.3599 359.688 20.5412 358.904 20.9039 358.232C21.2665 357.549 21.7625 357.021 22.3919 356.648C23.0319 356.275 23.7465 356.088 24.5359 356.088C25.2932 356.088 25.9545 356.259 26.5199 356.6C27.0959 356.931 27.5172 357.341 27.7839 357.832V356.232H29.2559V369.16H27.7839V363.384C27.5065 363.875 27.0799 364.291 26.5039 364.632C25.9279 364.973 25.2559 365.144 24.4879 365.144C23.7199 365.144 23.0212 364.952 22.3919 364.568C21.7625 364.184 21.2665 363.645 20.9039 362.952C20.5412 362.259 20.3599 361.469 20.3599 360.584ZM27.7839 360.6C27.7839 359.939 27.6505 359.363 27.3839 358.872C27.1172 358.381 26.7545 358.008 26.2959 357.752C25.8479 357.485 25.3519 357.352 24.8079 357.352C24.2639 357.352 23.7679 357.48 23.3199 357.736C22.8719 357.992 22.5145 358.365 22.2479 358.856C21.9812 359.347 21.8479 359.923 21.8479 360.584C21.8479 361.256 21.9812 361.843 22.2479 362.344C22.5145 362.835 22.8719 363.213 23.3199 363.48C23.7679 363.736 24.2639 363.864 24.8079 363.864C25.3519 363.864 25.8479 363.736 26.2959 363.48C26.7545 363.213 27.1172 362.835 27.3839 362.344C27.6505 361.843 27.7839 361.261 27.7839 360.6ZM39.4924 356.232V365H38.0364V363.704C37.759 364.152 37.3697 364.504 36.8684 364.76C36.3777 365.005 35.8337 365.128 35.2364 365.128C34.5537 365.128 33.9404 364.989 33.3964 364.712C32.8524 364.424 32.4204 363.997 32.1004 363.432C31.791 362.867 31.6364 362.179 31.6364 361.368V356.232H33.0764V361.176C33.0764 362.04 33.295 362.707 33.7324 363.176C34.1697 363.635 34.767 363.864 35.5244 363.864C36.303 363.864 36.9164 363.624 37.3644 363.144C37.8124 362.664 38.0364 361.965 38.0364 361.048V356.232H39.4924ZM41.4068 360.584C41.4068 359.688 41.5881 358.904 41.9508 358.232C42.3134 357.549 42.8094 357.021 43.4388 356.648C44.0788 356.275 44.7881 356.088 45.5668 356.088C46.3348 356.088 47.0014 356.253 47.5668 356.584C48.1321 356.915 48.5534 357.331 48.8308 357.832V356.232H50.3028V365H48.8308V363.368C48.5428 363.88 48.1108 364.307 47.5348 364.648C46.9694 364.979 46.3081 365.144 45.5508 365.144C44.7721 365.144 44.0681 364.952 43.4388 364.568C42.8094 364.184 42.3134 363.645 41.9508 362.952C41.5881 362.259 41.4068 361.469 41.4068 360.584ZM48.8308 360.6C48.8308 359.939 48.6974 359.363 48.4308 358.872C48.1641 358.381 47.8014 358.008 47.3428 357.752C46.8948 357.485 46.3988 357.352 45.8548 357.352C45.3108 357.352 44.8148 357.48 44.3668 357.736C43.9188 357.992 43.5614 358.365 43.2948 358.856C43.0281 359.347 42.8948 359.923 42.8948 360.584C42.8948 361.256 43.0281 361.843 43.2948 362.344C43.5614 362.835 43.9188 363.213 44.3668 363.48C44.8148 363.736 45.3108 363.864 45.8548 363.864C46.3988 363.864 46.8948 363.736 47.3428 363.48C47.8014 363.213 48.1641 362.835 48.4308 362.344C48.6974 361.843 48.8308 361.261 48.8308 360.6ZM57.0353 356.072C58.1019 356.072 58.9659 356.397 59.6273 357.048C60.2886 357.688 60.6193 358.616 60.6193 359.832V365H59.1793V360.04C59.1793 359.165 58.9606 358.499 58.5233 358.04C58.0859 357.571 57.4886 357.336 56.7313 357.336C55.9633 357.336 55.3499 357.576 54.8913 358.056C54.4433 358.536 54.2193 359.235 54.2193 360.152V365H52.7633V356.232H54.2193V357.48C54.5073 357.032 54.8966 356.685 55.3873 356.44C55.8886 356.195 56.4379 356.072 57.0353 356.072ZM64.7736 357.432V362.6C64.7736 363.027 64.8643 363.331 65.0456 363.512C65.227 363.683 65.5416 363.768 65.9896 363.768H67.0616V365H65.7496C64.939 365 64.331 364.813 63.9256 364.44C63.5203 364.067 63.3176 363.453 63.3176 362.6V357.432H62.1816V356.232H63.3176V354.024H64.7736V356.232H67.0616V357.432H64.7736ZM69.5778 354.808C69.3004 354.808 69.0658 354.712 68.8738 354.52C68.6818 354.328 68.5858 354.093 68.5858 353.816C68.5858 353.539 68.6818 353.304 68.8738 353.112C69.0658 352.92 69.3004 352.824 69.5778 352.824C69.8444 352.824 70.0684 352.92 70.2498 353.112C70.4418 353.304 70.5378 353.539 70.5378 353.816C70.5378 354.093 70.4418 354.328 70.2498 354.52C70.0684 354.712 69.8444 354.808 69.5778 354.808ZM70.2818 356.232V365H68.8258V356.232H70.2818ZM74.5393 357.432V362.6C74.5393 363.027 74.6299 363.331 74.8113 363.512C74.9926 363.683 75.3073 363.768 75.7552 363.768H76.8273V365H75.5153C74.7046 365 74.0966 364.813 73.6913 364.44C73.2859 364.067 73.0833 363.453 73.0833 362.6V357.432H71.9473V356.232H73.0833V354.024H74.5393V356.232H76.8273V357.432H74.5393ZM86.1434 356.232L80.8634 369.128H79.3594L81.0874 364.904L77.5514 356.232H79.1674L81.9194 363.336L84.6394 356.232H86.1434ZM88.311 352.264L88.135 355.448H87.127L86.935 352.264H88.311ZM90.471 352.264L90.295 355.448H89.287L89.095 352.264H90.471Z" fill="#5078FA"/>
<mask id="path-11-inside-3_2004_3208" fill="white">
<path d="M0 158H540V212H0V158Z"/>
</mask>
<path d="M0 158H540V212H0V158Z" fill="white"/>
<path d="M540 211H0V213H540V211Z" fill="#E0E7F6" mask="url(#path-11-inside-3_2004_3208)"/>
<path d="M16.68 184.456C17.768 184.253 18.312 183.693 18.312 182.776C18.312 182.371 18.2587 181.677 18.152 180.696C18.0453 179.651 17.992 178.893 17.992 178.424C17.992 177.656 18.2053 177.069 18.632 176.664C19.0693 176.259 19.6507 176.056 20.376 176.056H21.304V177.32H20.648C20.232 177.32 19.9227 177.416 19.72 177.608C19.5173 177.789 19.416 178.093 19.416 178.52C19.416 178.829 19.4373 179.213 19.48 179.672C19.5227 180.12 19.5493 180.424 19.56 180.584C19.6667 181.608 19.72 182.355 19.72 182.824C19.72 183.389 19.576 183.864 19.288 184.248C19.0107 184.621 18.5787 184.872 17.992 185V185.032C18.5787 185.16 19.0107 185.416 19.288 185.8C19.576 186.184 19.72 186.659 19.72 187.224C19.72 187.693 19.6667 188.44 19.56 189.464C19.5493 189.624 19.5227 189.933 19.48 190.392C19.4373 190.84 19.416 191.219 19.416 191.528C19.416 191.955 19.5173 192.259 19.72 192.44C19.9227 192.632 20.232 192.728 20.648 192.728H21.304V193.992H20.376C19.6507 193.992 19.0693 193.789 18.632 193.384C18.2053 192.979 17.992 192.392 17.992 191.624C17.992 191.155 18.0453 190.397 18.152 189.352C18.2587 188.371 18.312 187.677 18.312 187.272C18.312 186.355 17.768 185.795 16.68 185.592V184.456ZM24.0866 191.096C23.8093 191.096 23.5746 191 23.3826 190.808C23.1906 190.616 23.0946 190.381 23.0946 190.104C23.0946 189.827 23.1906 189.592 23.3826 189.4C23.5746 189.208 23.8093 189.112 24.0866 189.112C24.3533 189.112 24.5773 189.208 24.7586 189.4C24.9506 189.592 25.0466 189.827 25.0466 190.104C25.0466 190.381 24.9506 190.616 24.7586 190.808C24.5773 191 24.3533 191.096 24.0866 191.096ZM27.446 191.096C27.1687 191.096 26.934 191 26.742 190.808C26.55 190.616 26.454 190.381 26.454 190.104C26.454 189.827 26.55 189.592 26.742 189.4C26.934 189.208 27.1687 189.112 27.446 189.112C27.7127 189.112 27.9367 189.208 28.118 189.4C28.31 189.592 28.406 189.827 28.406 190.104C28.406 190.381 28.31 190.616 28.118 190.808C27.9367 191 27.7127 191.096 27.446 191.096ZM30.8054 191.096C30.528 191.096 30.2934 191 30.1014 190.808C29.9094 190.616 29.8134 190.381 29.8134 190.104C29.8134 189.827 29.9094 189.592 30.1014 189.4C30.2934 189.208 30.528 189.112 30.8054 189.112C31.072 189.112 31.296 189.208 31.4774 189.4C31.6694 189.592 31.7654 189.827 31.7654 190.104C31.7654 190.381 31.6694 190.616 31.4774 190.808C31.296 191 31.072 191.096 30.8054 191.096ZM38.1808 185.592C37.0928 185.795 36.5488 186.355 36.5488 187.272C36.5488 187.677 36.6021 188.371 36.7088 189.352C36.8154 190.397 36.8688 191.155 36.8688 191.624C36.8688 192.392 36.6501 192.979 36.2128 193.384C35.7861 193.789 35.2101 193.992 34.4848 193.992H33.5568V192.728H34.2128C34.6288 192.728 34.9381 192.632 35.1408 192.44C35.3434 192.259 35.4448 191.955 35.4448 191.528C35.4448 191.219 35.4234 190.84 35.3808 190.392C35.3381 189.933 35.3114 189.624 35.3008 189.464C35.1941 188.44 35.1408 187.693 35.1408 187.224C35.1408 186.659 35.2794 186.184 35.5568 185.8C35.8448 185.416 36.2821 185.16 36.8688 185.032V185C36.2821 184.872 35.8448 184.621 35.5568 184.248C35.2794 183.864 35.1408 183.389 35.1408 182.824C35.1408 182.355 35.1941 181.608 35.3008 180.584C35.3114 180.424 35.3381 180.12 35.3808 179.672C35.4234 179.213 35.4448 178.829 35.4448 178.52C35.4448 178.093 35.3434 177.789 35.1408 177.608C34.9381 177.416 34.6288 177.32 34.2128 177.32H33.5568V176.056H34.4848C35.2101 176.056 35.7861 176.259 36.2128 176.664C36.6501 177.069 36.8688 177.656 36.8688 178.424C36.8688 178.893 36.8154 179.651 36.7088 180.696C36.6021 181.677 36.5488 182.371 36.5488 182.776C36.5488 183.693 37.0928 184.253 38.1808 184.456V185.592Z" fill="#5078FA"/>
<path d="M48.973 182.088C49.7303 182.088 50.3917 182.253 50.957 182.584C51.533 182.915 51.9597 183.331 52.237 183.832V182.232H53.709V191.192C53.709 191.992 53.5383 192.701 53.197 193.32C52.8557 193.949 52.365 194.44 51.725 194.792C51.0957 195.144 50.3597 195.32 49.517 195.32C48.365 195.32 47.405 195.048 46.637 194.504C45.869 193.96 45.4157 193.219 45.277 192.28H46.717C46.877 192.813 47.2077 193.24 47.709 193.56C48.2103 193.891 48.813 194.056 49.517 194.056C50.317 194.056 50.9677 193.805 51.469 193.304C51.981 192.803 52.237 192.099 52.237 191.192V189.352C51.949 189.864 51.5223 190.291 50.957 190.632C50.3917 190.973 49.7303 191.144 48.973 191.144C48.1943 191.144 47.485 190.952 46.845 190.568C46.2157 190.184 45.7197 189.645 45.357 188.952C44.9943 188.259 44.813 187.469 44.813 186.584C44.813 185.688 44.9943 184.904 45.357 184.232C45.7197 183.549 46.2157 183.021 46.845 182.648C47.485 182.275 48.1943 182.088 48.973 182.088ZM52.237 186.6C52.237 185.939 52.1037 185.363 51.837 184.872C51.5703 184.381 51.2077 184.008 50.749 183.752C50.301 183.485 49.805 183.352 49.261 183.352C48.717 183.352 48.221 183.48 47.773 183.736C47.325 183.992 46.9677 184.365 46.701 184.856C46.4343 185.347 46.301 185.923 46.301 186.584C46.301 187.256 46.4343 187.843 46.701 188.344C46.9677 188.835 47.325 189.213 47.773 189.48C48.221 189.736 48.717 189.864 49.261 189.864C49.805 189.864 50.301 189.736 50.749 189.48C51.2077 189.213 51.5703 188.835 51.837 188.344C52.1037 187.843 52.237 187.261 52.237 186.6ZM64.1695 186.28C64.1695 186.557 64.1535 186.851 64.1215 187.16H57.1135C57.1668 188.024 57.4602 188.701 57.9935 189.192C58.5375 189.672 59.1935 189.912 59.9615 189.912C60.5908 189.912 61.1135 189.768 61.5295 189.48C61.9562 189.181 62.2548 188.787 62.4255 188.296H63.9935C63.7588 189.139 63.2895 189.827 62.5855 190.36C61.8815 190.883 61.0068 191.144 59.9615 191.144C59.1295 191.144 58.3828 190.957 57.7215 190.584C57.0708 190.211 56.5588 189.683 56.1855 189C55.8122 188.307 55.6255 187.507 55.6255 186.6C55.6255 185.693 55.8068 184.899 56.1695 184.216C56.5322 183.533 57.0388 183.011 57.6895 182.648C58.3508 182.275 59.1082 182.088 59.9615 182.088C60.7935 182.088 61.5295 182.269 62.1695 182.632C62.8095 182.995 63.3002 183.496 63.6415 184.136C63.9935 184.765 64.1695 185.48 64.1695 186.28ZM62.6655 185.976C62.6655 185.421 62.5428 184.947 62.2975 184.552C62.0522 184.147 61.7162 183.843 61.2895 183.64C60.8735 183.427 60.4095 183.32 59.8975 183.32C59.1615 183.32 58.5322 183.555 58.0095 184.024C57.4975 184.493 57.2042 185.144 57.1295 185.976H62.6655ZM67.8674 183.432V188.6C67.8674 189.027 67.958 189.331 68.1394 189.512C68.3207 189.683 68.6354 189.768 69.0834 189.768H70.1554V191H68.8434C68.0327 191 67.4247 190.813 67.0194 190.44C66.614 190.067 66.4114 189.453 66.4114 188.6V183.432H65.2754V182.232H66.4114V180.024H67.8674V182.232H70.1554V183.432H67.8674ZM76.9755 191.112C75.9408 191.112 74.9968 190.872 74.1435 190.392C73.2902 189.901 72.6128 189.224 72.1115 188.36C71.6208 187.485 71.3755 186.504 71.3755 185.416C71.3755 184.328 71.6208 183.352 72.1115 182.488C72.6128 181.613 73.2902 180.936 74.1435 180.456C74.9968 179.965 75.9408 179.72 76.9755 179.72C78.0208 179.72 78.9702 179.965 79.8235 180.456C80.6768 180.936 81.3488 181.608 81.8395 182.472C82.3302 183.336 82.5755 184.317 82.5755 185.416C82.5755 186.515 82.3302 187.496 81.8395 188.36C81.3488 189.224 80.6768 189.901 79.8235 190.392C78.9702 190.872 78.0208 191.112 76.9755 191.112ZM76.9755 189.848C77.7542 189.848 78.4528 189.667 79.0715 189.304C79.7008 188.941 80.1915 188.424 80.5435 187.752C80.9062 187.08 81.0875 186.301 81.0875 185.416C81.0875 184.52 80.9062 183.741 80.5435 183.08C80.1915 182.408 79.7062 181.891 79.0875 181.528C78.4688 181.165 77.7648 180.984 76.9755 180.984C76.1862 180.984 75.4822 181.165 74.8635 181.528C74.2448 181.891 73.7542 182.408 73.3915 183.08C73.0395 183.741 72.8635 184.52 72.8635 185.416C72.8635 186.301 73.0395 187.08 73.3915 187.752C73.7542 188.424 74.2448 188.941 74.8635 189.304C75.4928 189.667 76.1968 189.848 76.9755 189.848ZM85.9536 183.656C86.2096 183.155 86.5723 182.765 87.0416 182.488C87.5216 182.211 88.103 182.072 88.7856 182.072V183.576H88.4016C86.7696 183.576 85.9536 184.461 85.9536 186.232V191H84.4976V182.232H85.9536V183.656ZM89.9224 186.584C89.9224 185.688 90.1037 184.904 90.4664 184.232C90.829 183.549 91.325 183.021 91.9544 182.648C92.5944 182.275 93.309 182.088 94.0984 182.088C94.781 182.088 95.4157 182.248 96.0024 182.568C96.589 182.877 97.037 183.288 97.3464 183.8V179.16H98.8184V191H97.3464V189.352C97.0584 189.875 96.6317 190.307 96.0664 190.648C95.501 190.979 94.8397 191.144 94.0824 191.144C93.3037 191.144 92.5944 190.952 91.9544 190.568C91.325 190.184 90.829 189.645 90.4664 188.952C90.1037 188.259 89.9224 187.469 89.9224 186.584ZM97.3464 186.6C97.3464 185.939 97.213 185.363 96.9464 184.872C96.6797 184.381 96.317 184.008 95.8584 183.752C95.4104 183.485 94.9144 183.352 94.3704 183.352C93.8264 183.352 93.3304 183.48 92.8824 183.736C92.4344 183.992 92.077 184.365 91.8104 184.856C91.5437 185.347 91.4104 185.923 91.4104 186.584C91.4104 187.256 91.5437 187.843 91.8104 188.344C92.077 188.835 92.4344 189.213 92.8824 189.48C93.3304 189.736 93.8264 189.864 94.3704 189.864C94.9144 189.864 95.4104 189.736 95.8584 189.48C96.317 189.213 96.6797 188.835 96.9464 188.344C97.213 187.843 97.3464 187.261 97.3464 186.6ZM109.279 186.28C109.279 186.557 109.263 186.851 109.231 187.16H102.223C102.276 188.024 102.57 188.701 103.103 189.192C103.647 189.672 104.303 189.912 105.071 189.912C105.7 189.912 106.223 189.768 106.639 189.48C107.066 189.181 107.364 188.787 107.535 188.296H109.103C108.868 189.139 108.399 189.827 107.695 190.36C106.991 190.883 106.116 191.144 105.071 191.144C104.239 191.144 103.492 190.957 102.831 190.584C102.18 190.211 101.668 189.683 101.295 189C100.922 188.307 100.735 187.507 100.735 186.6C100.735 185.693 100.916 184.899 101.279 184.216C101.642 183.533 102.148 183.011 102.799 182.648C103.46 182.275 104.218 182.088 105.071 182.088C105.903 182.088 106.639 182.269 107.279 182.632C107.919 182.995 108.41 183.496 108.751 184.136C109.103 184.765 109.279 185.48 109.279 186.28ZM107.775 185.976C107.775 185.421 107.652 184.947 107.407 184.552C107.162 184.147 106.826 183.843 106.399 183.64C105.983 183.427 105.519 183.32 105.007 183.32C104.271 183.32 103.642 183.555 103.119 184.024C102.607 184.493 102.314 185.144 102.239 185.976H107.775ZM112.657 183.656C112.913 183.155 113.275 182.765 113.745 182.488C114.225 182.211 114.806 182.072 115.489 182.072V183.576H115.105C113.473 183.576 112.657 184.461 112.657 186.232V191H111.201V182.232H112.657V183.656ZM117.634 191.096C117.356 191.096 117.122 191 116.93 190.808C116.738 190.616 116.642 190.381 116.642 190.104C116.642 189.827 116.738 189.592 116.93 189.4C117.122 189.208 117.356 189.112 117.634 189.112C117.9 189.112 118.124 189.208 118.306 189.4C118.498 189.592 118.594 189.827 118.594 190.104C118.594 190.381 118.498 190.616 118.306 190.808C118.124 191 117.9 191.096 117.634 191.096ZM121.313 180.808C121.036 180.808 120.801 180.712 120.609 180.52C120.428 180.328 120.337 180.093 120.337 179.816C120.337 179.539 120.428 179.304 120.609 179.112C120.801 178.92 121.036 178.824 121.313 178.824C121.59 178.824 121.82 178.92 122.001 179.112C122.193 179.304 122.289 179.539 122.289 179.816C122.289 180.093 122.193 180.328 122.001 180.52C121.82 180.712 121.59 180.808 121.313 180.808ZM122.033 192.904C122.033 193.683 121.836 194.253 121.441 194.616C121.046 194.979 120.47 195.16 119.713 195.16H118.865V193.928H119.473C119.878 193.928 120.161 193.848 120.321 193.688C120.492 193.528 120.577 193.256 120.577 192.872V182.232H122.033V192.904ZM127.602 191.144C126.93 191.144 126.327 191.032 125.794 190.808C125.26 190.573 124.839 190.253 124.53 189.848C124.22 189.432 124.05 188.957 124.018 188.424H125.522C125.564 188.861 125.767 189.219 126.13 189.496C126.503 189.773 126.988 189.912 127.586 189.912C128.14 189.912 128.578 189.789 128.898 189.544C129.218 189.299 129.378 188.989 129.378 188.616C129.378 188.232 129.207 187.949 128.866 187.768C128.524 187.576 127.996 187.389 127.282 187.208C126.631 187.037 126.098 186.867 125.682 186.696C125.276 186.515 124.924 186.253 124.626 185.912C124.338 185.56 124.194 185.101 124.194 184.536C124.194 184.088 124.327 183.677 124.594 183.304C124.86 182.931 125.239 182.637 125.73 182.424C126.22 182.2 126.78 182.088 127.41 182.088C128.38 182.088 129.164 182.333 129.762 182.824C130.359 183.315 130.679 183.987 130.722 184.84H129.266C129.234 184.381 129.047 184.013 128.706 183.736C128.375 183.459 127.927 183.32 127.362 183.32C126.839 183.32 126.423 183.432 126.114 183.656C125.804 183.88 125.65 184.173 125.65 184.536C125.65 184.824 125.74 185.064 125.922 185.256C126.114 185.437 126.348 185.587 126.626 185.704C126.914 185.811 127.308 185.933 127.81 186.072C128.439 186.243 128.951 186.413 129.346 186.584C129.74 186.744 130.076 186.989 130.354 187.32C130.642 187.651 130.791 188.083 130.802 188.616C130.802 189.096 130.668 189.528 130.402 189.912C130.135 190.296 129.756 190.6 129.266 190.824C128.786 191.037 128.231 191.144 127.602 191.144ZM136.681 191.144C135.86 191.144 135.113 190.957 134.441 190.584C133.78 190.211 133.257 189.683 132.873 189C132.5 188.307 132.313 187.507 132.313 186.6C132.313 185.704 132.505 184.915 132.889 184.232C133.284 183.539 133.817 183.011 134.489 182.648C135.161 182.275 135.913 182.088 136.745 182.088C137.577 182.088 138.329 182.275 139.001 182.648C139.673 183.011 140.201 183.533 140.585 184.216C140.98 184.899 141.177 185.693 141.177 186.6C141.177 187.507 140.974 188.307 140.569 189C140.174 189.683 139.636 190.211 138.953 190.584C138.27 190.957 137.513 191.144 136.681 191.144ZM136.681 189.864C137.204 189.864 137.694 189.741 138.153 189.496C138.612 189.251 138.98 188.883 139.257 188.392C139.545 187.901 139.689 187.304 139.689 186.6C139.689 185.896 139.55 185.299 139.273 184.808C138.996 184.317 138.633 183.955 138.185 183.72C137.737 183.475 137.252 183.352 136.729 183.352C136.196 183.352 135.705 183.475 135.257 183.72C134.82 183.955 134.468 184.317 134.201 184.808C133.934 185.299 133.801 185.896 133.801 186.6C133.801 187.315 133.929 187.917 134.185 188.408C134.452 188.899 134.804 189.267 135.241 189.512C135.678 189.747 136.158 189.864 136.681 189.864ZM147.363 182.072C148.43 182.072 149.294 182.397 149.955 183.048C150.617 183.688 150.947 184.616 150.947 185.832V191H149.507V186.04C149.507 185.165 149.289 184.499 148.851 184.04C148.414 183.571 147.817 183.336 147.059 183.336C146.291 183.336 145.678 183.576 145.219 184.056C144.771 184.536 144.547 185.235 144.547 186.152V191H143.091V182.232H144.547V183.48C144.835 183.032 145.225 182.685 145.715 182.44C146.217 182.195 146.766 182.072 147.363 182.072Z" fill="#18202B"/>
<defs>
<linearGradient id="paint0_linear_2004_3208" x1="130.975" y1="136.615" x2="245.577" y2="266.984" gradientUnits="userSpaceOnUse">
<stop stop-color="white"/>
<stop offset="1" stop-color="#F6F9FF"/>
</linearGradient>
<linearGradient id="paint1_linear_2004_3208" x1="84.4948" y1="215.615" x2="196.891" y2="358.004" gradientUnits="userSpaceOnUse">
<stop stop-color="white"/>
<stop offset="1" stop-color="#F6F9FF"/>
</linearGradient>
<linearGradient id="paint2_linear_2004_3208" x1="38.0147" y1="288.154" x2="140.527" y2="438.379" gradientUnits="userSpaceOnUse">
<stop stop-color="white"/>
<stop offset="1" stop-color="#F6F9FF"/>
</linearGradient>
</defs>
</svg>
